%TF.GenerationSoftware,KiCad,Pcbnew,7.0.10*%
%TF.CreationDate,2026-06-17T08:52:16+03:00*%
%TF.ProjectId,ADC_MainBoard,4144435f-4d61-4696-9e42-6f6172642e6b,rev?*%
%TF.SameCoordinates,Original*%
%TF.FileFunction,Soldermask,Bot*%
%TF.FilePolarity,Negative*%
%FSLAX46Y46*%
G04 Gerber Fmt 4.6, Leading zero omitted, Abs format (unit mm)*
G04 Created by KiCad (PCBNEW 7.0.10) date 2026-06-17 08:52:16*
%MOMM*%
%LPD*%
G01*
G04 APERTURE LIST*
G04 Aperture macros list*
%AMRoundRect*
0 Rectangle with rounded corners*
0 $1 Rounding radius*
0 $2 $3 $4 $5 $6 $7 $8 $9 X,Y pos of 4 corners*
0 Add a 4 corners polygon primitive as box body*
4,1,4,$2,$3,$4,$5,$6,$7,$8,$9,$2,$3,0*
0 Add four circle primitives for the rounded corners*
1,1,$1+$1,$2,$3*
1,1,$1+$1,$4,$5*
1,1,$1+$1,$6,$7*
1,1,$1+$1,$8,$9*
0 Add four rect primitives between the rounded corners*
20,1,$1+$1,$2,$3,$4,$5,0*
20,1,$1+$1,$4,$5,$6,$7,0*
20,1,$1+$1,$6,$7,$8,$9,0*
20,1,$1+$1,$8,$9,$2,$3,0*%
G04 Aperture macros list end*
%ADD10R,2.000000X1.500000*%
%ADD11R,2.000000X3.800000*%
%ADD12RoundRect,0.150000X0.512500X0.150000X-0.512500X0.150000X-0.512500X-0.150000X0.512500X-0.150000X0*%
%ADD13RoundRect,0.150000X-0.587500X-0.150000X0.587500X-0.150000X0.587500X0.150000X-0.587500X0.150000X0*%
%ADD14RoundRect,0.200000X-0.275000X0.200000X-0.275000X-0.200000X0.275000X-0.200000X0.275000X0.200000X0*%
%ADD15RoundRect,0.200000X0.200000X0.275000X-0.200000X0.275000X-0.200000X-0.275000X0.200000X-0.275000X0*%
%ADD16RoundRect,0.225000X-0.225000X-0.250000X0.225000X-0.250000X0.225000X0.250000X-0.225000X0.250000X0*%
%ADD17RoundRect,0.225000X-0.250000X0.225000X-0.250000X-0.225000X0.250000X-0.225000X0.250000X0.225000X0*%
%ADD18RoundRect,0.225000X0.250000X-0.225000X0.250000X0.225000X-0.250000X0.225000X-0.250000X-0.225000X0*%
%ADD19RoundRect,0.225000X0.225000X0.250000X-0.225000X0.250000X-0.225000X-0.250000X0.225000X-0.250000X0*%
%ADD20R,1.700000X1.700000*%
%ADD21O,1.700000X1.700000*%
%ADD22RoundRect,0.200000X-0.200000X-0.275000X0.200000X-0.275000X0.200000X0.275000X-0.200000X0.275000X0*%
G04 APERTURE END LIST*
D10*
%TO.C,U7*%
X86462000Y-40626000D03*
D11*
X80162000Y-42926000D03*
D10*
X86462000Y-42926000D03*
X86462000Y-45226000D03*
%TD*%
D12*
%TO.C,U3*%
X77078404Y-48630000D03*
X77078404Y-49580000D03*
X77078404Y-50530000D03*
X74803404Y-50530000D03*
X74803404Y-48630000D03*
%TD*%
D13*
%TO.C,U1*%
X74868500Y-47077000D03*
X74868500Y-45177000D03*
X76743500Y-46127000D03*
%TD*%
D14*
%TO.C,R10*%
X66421000Y-62802000D03*
X66421000Y-64452000D03*
%TD*%
%TO.C,R9*%
X67945000Y-60516000D03*
X67945000Y-62166000D03*
%TD*%
D15*
%TO.C,R8*%
X64960000Y-65532000D03*
X63310000Y-65532000D03*
%TD*%
D16*
%TO.C,R7*%
X78714000Y-47524000D03*
X80264000Y-47524000D03*
%TD*%
D17*
%TO.C,R6*%
X75425000Y-52083000D03*
X75425000Y-53633000D03*
%TD*%
D14*
%TO.C,R5*%
X69469000Y-60516000D03*
X69469000Y-62166000D03*
%TD*%
D18*
%TO.C,R4*%
X73025000Y-50559000D03*
X73025000Y-49009000D03*
%TD*%
D19*
%TO.C,R3*%
X78613000Y-52096000D03*
X77063000Y-52096000D03*
%TD*%
%TO.C,R2*%
X80264000Y-50572000D03*
X78714000Y-50572000D03*
%TD*%
D16*
%TO.C,R1*%
X78714000Y-49048000D03*
X80264000Y-49048000D03*
%TD*%
D20*
%TO.C,J13*%
X97155000Y-56764000D03*
D21*
X97155000Y-59304000D03*
%TD*%
D17*
%TO.C,C11*%
X60579000Y-60185000D03*
X60579000Y-61735000D03*
%TD*%
D16*
%TO.C,C10*%
X62725000Y-57150000D03*
X64275000Y-57150000D03*
%TD*%
D19*
%TO.C,C9*%
X62878000Y-58674000D03*
X61328000Y-58674000D03*
%TD*%
D18*
%TO.C,C8*%
X67183000Y-59068000D03*
X67183000Y-57518000D03*
%TD*%
D14*
%TO.C,C7*%
X67945000Y-64580000D03*
X67945000Y-66230000D03*
%TD*%
D15*
%TO.C,C6*%
X63690000Y-61722000D03*
X62040000Y-61722000D03*
%TD*%
D22*
%TO.C,C5*%
X60643000Y-64008000D03*
X62293000Y-64008000D03*
%TD*%
D17*
%TO.C,C4*%
X73901000Y-52083000D03*
X73901000Y-53633000D03*
%TD*%
%TO.C,C3*%
X95758000Y-57391000D03*
X95758000Y-58941000D03*
%TD*%
D19*
%TO.C,C2*%
X81661000Y-52096000D03*
X80111000Y-52096000D03*
%TD*%
D16*
%TO.C,C1*%
X78587000Y-53620000D03*
X80137000Y-53620000D03*
%TD*%
M02*
