M48
; DRILL file {KiCad 7.0.10} date Wed Jun 17 08:52:22 2026
; FORMAT={-:-/ absolute / metric / decimal}
; #@! TF.CreationDate,2026-06-17T08:52:22+03:00
; #@! TF.GenerationSoftware,Kicad,Pcbnew,7.0.10
; #@! TF.FileFunction,Plated,1,2,PTH
FMAT,2
METRIC
; #@! TA.AperFunction,Plated,PTH,ViaDrill
T1C0.400
; #@! TA.AperFunction,Plated,PTH,ComponentDrill
T2C1.000
%
G90
G05
T1
X60.452Y-55.753
X60.691Y-64.424
X61.081Y-57.216
X61.341Y-60.198
X61.722Y-58.166
X62.103Y-61.722
X63.378Y-59.116
X63.627Y-60.198
X63.751Y-61.725
X63.881Y-43.18
X64.475Y-64.424
X65.404Y-44.99
X65.404Y-50.99
X65.424Y-65.062
X66.421Y-64.426
X67.178Y-65.876
X67.183Y-57.891
X67.183Y-59.055
X67.714Y-61.691
X69.85Y-62.103
X70.612Y-53.848
X72.009Y-57.404
X73.025Y-49.009
X73.025Y-50.559
X74.926Y-65.668
X74.93Y-42.037
X75.425Y-53.633
X75.522Y-56.729
X76.454Y-44.958
X76.949Y-46.127
X77.851Y-62.484
X78.486Y-63.373
X78.714Y-49.048
X78.714Y-50.572
X81.661Y-52.096
X82.296Y-40.894
X83.692Y-50.99
X83.82Y-40.894
X83.82Y-47.117
X84.074Y-38.1
X84.582Y-56.261
X85.852Y-50.927
X86.462Y-40.626
X88.265Y-48.514
X88.463Y-46.101
X88.519Y-49.53
X89.789Y-63.119
X90.932Y-47.244
X91.223Y-50.419
X91.313Y-49.276
X91.992Y-44.225
X92.837Y-50.038
X93.091Y-48.133
X93.091Y-53.213
X93.092Y-41.99
X93.092Y-43.99
X93.476Y-63.868
T2
X97.155Y-56.764
X97.155Y-59.304
M30
