%TF.GenerationSoftware,KiCad,Pcbnew,7.0.10*%
%TF.CreationDate,2026-06-17T08:52:15+03:00*%
%TF.ProjectId,ADC_MainBoard,4144435f-4d61-4696-9e42-6f6172642e6b,rev?*%
%TF.SameCoordinates,Original*%
%TF.FileFunction,Copper,L1,Top*%
%TF.FilePolarity,Positive*%
%FSLAX46Y46*%
G04 Gerber Fmt 4.6, Leading zero omitted, Abs format (unit mm)*
G04 Created by KiCad (PCBNEW 7.0.10) date 2026-06-17 08:52:15*
%MOMM*%
%LPD*%
G01*
G04 APERTURE LIST*
G04 Aperture macros list*
%AMRoundRect*
0 Rectangle with rounded corners*
0 $1 Rounding radius*
0 $2 $3 $4 $5 $6 $7 $8 $9 X,Y pos of 4 corners*
0 Add a 4 corners polygon primitive as box body*
4,1,4,$2,$3,$4,$5,$6,$7,$8,$9,$2,$3,0*
0 Add four circle primitives for the rounded corners*
1,1,$1+$1,$2,$3*
1,1,$1+$1,$4,$5*
1,1,$1+$1,$6,$7*
1,1,$1+$1,$8,$9*
0 Add four rect primitives between the rounded corners*
20,1,$1+$1,$2,$3,$4,$5,0*
20,1,$1+$1,$4,$5,$6,$7,0*
20,1,$1+$1,$6,$7,$8,$9,0*
20,1,$1+$1,$8,$9,$2,$3,0*%
G04 Aperture macros list end*
%TA.AperFunction,SMDPad,CuDef*%
%ADD10R,0.300000X1.600000*%
%TD*%
%TA.AperFunction,SMDPad,CuDef*%
%ADD11R,1.550000X1.500000*%
%TD*%
%TA.AperFunction,SMDPad,CuDef*%
%ADD12RoundRect,0.225000X-0.250000X0.225000X-0.250000X-0.225000X0.250000X-0.225000X0.250000X0.225000X0*%
%TD*%
%TA.AperFunction,SMDPad,CuDef*%
%ADD13RoundRect,0.150000X0.512500X0.150000X-0.512500X0.150000X-0.512500X-0.150000X0.512500X-0.150000X0*%
%TD*%
%TA.AperFunction,SMDPad,CuDef*%
%ADD14R,0.300000X1.300000*%
%TD*%
%TA.AperFunction,SMDPad,CuDef*%
%ADD15R,1.800000X2.200000*%
%TD*%
%TA.AperFunction,SMDPad,CuDef*%
%ADD16RoundRect,0.381000X-0.762000X-0.381000X0.762000X-0.381000X0.762000X0.381000X-0.762000X0.381000X0*%
%TD*%
%TA.AperFunction,ComponentPad*%
%ADD17R,1.700000X1.700000*%
%TD*%
%TA.AperFunction,ComponentPad*%
%ADD18O,1.700000X1.700000*%
%TD*%
%TA.AperFunction,SMDPad,CuDef*%
%ADD19RoundRect,0.250000X0.250000X-0.250000X0.250000X0.250000X-0.250000X0.250000X-0.250000X-0.250000X0*%
%TD*%
%TA.AperFunction,ViaPad*%
%ADD20C,0.800000*%
%TD*%
%TA.AperFunction,Conductor*%
%ADD21C,0.250000*%
%TD*%
%TA.AperFunction,Conductor*%
%ADD22C,0.200000*%
%TD*%
G04 APERTURE END LIST*
D10*
%TO.P,J5,1,1*%
%TO.N,Net-(J5-Pad1)*%
X88951001Y-63307999D03*
%TO.P,J5,2,2*%
%TO.N,Net-(J5-Pad2)*%
X88451002Y-63307999D03*
%TO.P,J5,3,3*%
%TO.N,Net-(J5-Pad3)*%
X87951000Y-63307999D03*
%TO.P,J5,4,4*%
%TO.N,Net-(J5-Pad4)*%
X87451001Y-63307999D03*
%TO.P,J5,5,5*%
%TO.N,Net-(J5-Pad5)*%
X86951000Y-63307999D03*
%TO.P,J5,6,6*%
%TO.N,Net-(J5-Pad6)*%
X86451001Y-63307999D03*
%TO.P,J5,7,7*%
%TO.N,Net-(J5-Pad7)*%
X85951002Y-63307999D03*
%TO.P,J5,8,8*%
%TO.N,Net-(J5-Pad8)*%
X85451000Y-63307999D03*
%TO.P,J5,9,9*%
%TO.N,Net-(J5-Pad9)*%
X84951001Y-63307999D03*
%TO.P,J5,10,10*%
%TO.N,/CamD3*%
X84451000Y-63307999D03*
%TO.P,J5,11,11*%
%TO.N,/PCLK*%
X83951000Y-63307999D03*
%TO.P,J5,12,12*%
%TO.N,/CamD6*%
X83451002Y-63307999D03*
%TO.P,J5,13,13*%
%TO.N,/CamMCLK*%
X82951000Y-63307999D03*
%TO.P,J5,14,14*%
%TO.N,/CamD7*%
X82451001Y-63307999D03*
%TO.P,J5,15,15*%
%TO.N,/CamHSYNC*%
X81951002Y-63307999D03*
%TO.P,J5,16,16*%
%TO.N,/CamVSYNC*%
X81451000Y-63307999D03*
%TO.P,J5,17,17*%
%TO.N,/CamSCK*%
X80951001Y-63307999D03*
%TO.P,J5,18,18*%
%TO.N,/CamSDA*%
X80451000Y-63307999D03*
%TO.P,J5,19,19*%
%TO.N,/nIRQ___3*%
X79951001Y-63307999D03*
%TO.P,J5,20,20*%
%TO.N,/nIRQ___2*%
X79451002Y-63307999D03*
%TO.P,J5,G2,G2*%
%TO.N,Earth*%
X78950999Y-63308000D03*
%TO.P,J5,G1,G1*%
X89450990Y-63308000D03*
D11*
%TO.P,J5,P2,P2*%
X74926020Y-63868000D03*
%TO.P,J5,P1,P1*%
X93475980Y-63868000D03*
%TO.P,J5,P4,P4*%
X74926020Y-65667999D03*
%TO.P,J5,P3,P3*%
X93475980Y-65667999D03*
%TD*%
D12*
%TO.P,R19,1*%
%TO.N,/SDO4*%
X82296000Y-58788000D03*
%TO.P,R19,2*%
%TO.N,Net-(J5-Pad9)*%
X82296000Y-60338000D03*
%TD*%
%TO.P,R18,1*%
%TO.N,/SDO3*%
X83820000Y-58788000D03*
%TO.P,R18,2*%
%TO.N,Net-(J5-Pad8)*%
X83820000Y-60338000D03*
%TD*%
%TO.P,R17,1*%
%TO.N,/SDO2*%
X85344000Y-58788000D03*
%TO.P,R17,2*%
%TO.N,Net-(J5-Pad7)*%
X85344000Y-60338000D03*
%TD*%
%TO.P,R16,1*%
%TO.N,/SDO1*%
X86868000Y-58788000D03*
%TO.P,R16,2*%
%TO.N,Net-(J5-Pad6)*%
X86868000Y-60338000D03*
%TD*%
%TO.P,R15,1*%
%TO.N,/SDI*%
X88392000Y-58788000D03*
%TO.P,R15,2*%
%TO.N,Net-(J5-Pad5)*%
X88392000Y-60338000D03*
%TD*%
%TO.P,R14,1*%
%TO.N,/SCK*%
X89916000Y-58788000D03*
%TO.P,R14,2*%
%TO.N,Net-(J5-Pad4)*%
X89916000Y-60338000D03*
%TD*%
%TO.P,R13,1*%
%TO.N,/nIRQ*%
X91440000Y-58788000D03*
%TO.P,R13,2*%
%TO.N,Net-(J5-Pad3)*%
X91440000Y-60338000D03*
%TD*%
%TO.P,R12,1*%
%TO.N,/MCLK*%
X94488000Y-58788000D03*
%TO.P,R12,2*%
%TO.N,Net-(J5-Pad2)*%
X94488000Y-60338000D03*
%TD*%
%TO.P,R11,1*%
%TO.N,/nCS*%
X92964000Y-58788000D03*
%TO.P,R11,2*%
%TO.N,Net-(J5-Pad1)*%
X92964000Y-60338000D03*
%TD*%
D13*
%TO.P,U6,1,IN*%
%TO.N,+3.3V*%
X61081500Y-59116000D03*
%TO.P,U6,2,GND*%
%TO.N,Earth*%
X61081500Y-58166000D03*
%TO.P,U6,3,EN*%
%TO.N,+3.3V*%
X61081500Y-57216000D03*
%TO.P,U6,4,NC*%
%TO.N,unconnected-(U6-NC-Pad4)*%
X58806500Y-57216000D03*
%TO.P,U6,5,OUT*%
%TO.N,+1V2*%
X58806500Y-59116000D03*
%TD*%
%TO.P,U5,1,IN*%
%TO.N,+5V*%
X65653500Y-59116000D03*
%TO.P,U5,2,GND*%
%TO.N,Earth*%
X65653500Y-58166000D03*
%TO.P,U5,3,EN*%
%TO.N,+5V*%
X65653500Y-57216000D03*
%TO.P,U5,4,NC*%
%TO.N,unconnected-(U5-NC-Pad4)*%
X63378500Y-57216000D03*
%TO.P,U5,5,OUT*%
%TO.N,+2V8*%
X63378500Y-59116000D03*
%TD*%
D14*
%TO.P,U2,1,24*%
%TO.N,unconnected-(U2-24-Pad1)*%
X57750000Y-63174000D03*
%TO.P,U2,2*%
%TO.N,unconnected-(U2-Pad2)*%
X58250000Y-63174000D03*
%TO.P,U2,3,D2*%
%TO.N,/CamD2*%
X58750000Y-63174000D03*
%TO.P,U2,4,D1*%
%TO.N,/CamD1*%
X59250000Y-63174000D03*
%TO.P,U2,5,D3*%
%TO.N,/CamD3*%
X59750000Y-63174000D03*
%TO.P,U2,6,D0*%
%TO.N,/CamD0*%
X60250000Y-63174000D03*
%TO.P,U2,7,D4*%
%TO.N,/CamD4*%
X60750000Y-63174000D03*
%TO.P,U2,8,PCLK*%
%TO.N,/PCLK*%
X61250000Y-63174000D03*
%TO.P,U2,9,D5*%
%TO.N,/CamD5*%
X61750000Y-63174000D03*
%TO.P,U2,10,DGND*%
%TO.N,Earth*%
X62250000Y-63174000D03*
%TO.P,U2,11,D6*%
%TO.N,/CamD6*%
X62750000Y-63174000D03*
%TO.P,U2,12,MCLK*%
%TO.N,/CamMCLK*%
X63250000Y-63174000D03*
%TO.P,U2,13,D7*%
%TO.N,/CamD7*%
X63750000Y-63174000D03*
%TO.P,U2,14,DOVDD*%
%TO.N,+3.3V*%
X64250000Y-63174000D03*
%TO.P,U2,15,DVDD*%
%TO.N,+1V2*%
X64750000Y-63174000D03*
%TO.P,U2,16,HSYNC*%
%TO.N,/CamHSYNC*%
X65250000Y-63174000D03*
%TO.P,U2,17,PWDN*%
%TO.N,Net-(U2-PWDN)*%
X65750000Y-63174000D03*
%TO.P,U2,18,VSYNC*%
%TO.N,/CamVSYNC*%
X66250000Y-63174000D03*
%TO.P,U2,19,RST*%
%TO.N,/CamRST*%
X66750000Y-63174000D03*
%TO.P,U2,20,SCK*%
%TO.N,/CamSCK*%
X67250000Y-63174000D03*
%TO.P,U2,21,AVDD*%
%TO.N,+2V8*%
X67750000Y-63174000D03*
%TO.P,U2,22,SDA*%
%TO.N,/CamSDA*%
X68250000Y-63174000D03*
%TO.P,U2,23,AGND*%
%TO.N,Earth*%
X68750000Y-63174000D03*
%TO.P,U2,24*%
%TO.N,N/C*%
X69250000Y-63174000D03*
D15*
%TO.P,U2,MP*%
X71150000Y-66424000D03*
X55850000Y-66424000D03*
%TD*%
D16*
%TO.P,J17,1,Pin_1*%
%TO.N,/SDO2*%
X62103000Y-46228000D03*
%TD*%
%TO.P,J16,1,Pin_1*%
%TO.N,/SDO1*%
X86995000Y-43053000D03*
%TD*%
%TO.P,J15,1,Pin_1*%
%TO.N,/SDI*%
X78740000Y-40132000D03*
%TD*%
%TO.P,J14,1,Pin_1*%
%TO.N,/SCK*%
X78740000Y-42545000D03*
%TD*%
D17*
%TO.P,J13,1,Pin_1*%
%TO.N,+5V*%
X97155000Y-56764000D03*
D18*
%TO.P,J13,2,Pin_2*%
%TO.N,Earth*%
X97155000Y-59304000D03*
%TD*%
D16*
%TO.P,J9,1,Pin_1*%
%TO.N,/nIRQ*%
X81153000Y-45847000D03*
%TD*%
%TO.P,J8,1,Pin_1*%
%TO.N,/CamMCLK*%
X55499000Y-61341000D03*
%TD*%
%TO.P,J7,1,Pin_1*%
%TO.N,/MCLK*%
X62103000Y-39878000D03*
%TD*%
D19*
%TO.P,J6,1,Pin_1*%
%TO.N,/REFIN-*%
X74804000Y-51990000D03*
%TO.P,J6,2,Pin_2*%
%TO.N,/REFIN+*%
X74804000Y-49990000D03*
%TO.P,J6,3,Pin_3*%
%TO.N,Earth*%
X74804000Y-47990000D03*
%TO.P,J6,4,Pin_4*%
%TO.N,/SCK*%
X74804000Y-45990000D03*
%TO.P,J6,5,Pin_5*%
%TO.N,/SDI*%
X74804000Y-43990000D03*
%TO.P,J6,6,Pin_6*%
%TO.N,Earth*%
X74804000Y-41990000D03*
%TO.P,J6,7,Pin_7*%
%TO.N,/MCLK*%
X65404000Y-40990000D03*
%TO.P,J6,8,Pin_8*%
%TO.N,/SDO2*%
X65404000Y-42990000D03*
%TO.P,J6,9,Pin_9*%
%TO.N,Earth*%
X65404000Y-44990000D03*
%TO.P,J6,10,Pin_10*%
%TO.N,/nCS*%
X65404000Y-46990000D03*
%TO.P,J6,11,Pin_11*%
%TO.N,/nIRQ___2*%
X65404000Y-48990000D03*
%TO.P,J6,12,Pin_12*%
%TO.N,+3.3V*%
X65404000Y-50990000D03*
%TD*%
D16*
%TO.P,J3,1,Pin_1*%
%TO.N,/PCLK*%
X58293000Y-61341000D03*
%TD*%
%TO.P,J2,1,Pin_1*%
%TO.N,/CamD3*%
X55499000Y-63246000D03*
%TD*%
D19*
%TO.P,J1,1,Pin_1*%
%TO.N,/REFIN-*%
X93092000Y-51990000D03*
%TO.P,J1,2,Pin_2*%
%TO.N,/REFIN+*%
X93092000Y-49990000D03*
%TO.P,J1,3,Pin_3*%
%TO.N,Earth*%
X93092000Y-47990000D03*
%TO.P,J1,4,Pin_4*%
%TO.N,/SCK*%
X93092000Y-45990000D03*
%TO.P,J1,5,Pin_5*%
%TO.N,/SDI*%
X93092000Y-43990000D03*
%TO.P,J1,6,Pin_6*%
%TO.N,Earth*%
X93092000Y-41990000D03*
%TO.P,J1,7,Pin_7*%
%TO.N,/MCLK*%
X83692000Y-40990000D03*
%TO.P,J1,8,Pin_8*%
%TO.N,/SDO1*%
X83692000Y-42990000D03*
%TO.P,J1,9,Pin_9*%
%TO.N,Earth*%
X83692000Y-44990000D03*
%TO.P,J1,10,Pin_10*%
%TO.N,/nCS*%
X83692000Y-46990000D03*
%TO.P,J1,11,Pin_11*%
%TO.N,/nIRQ*%
X83692000Y-48990000D03*
%TO.P,J1,12,Pin_12*%
%TO.N,+3.3V*%
X83692000Y-50990000D03*
%TD*%
D20*
%TO.N,Earth*%
X88463000Y-46101000D03*
X60452000Y-55753000D03*
X72009000Y-57404000D03*
X75522310Y-56728695D03*
X63881000Y-43180000D03*
X82296000Y-40894000D03*
X91992000Y-44224552D03*
X91223000Y-50419000D03*
X88265000Y-48514000D03*
%TO.N,Net-(U1-Vout)*%
X78714000Y-50572000D03*
X76454000Y-44958000D03*
%TO.N,/nCS*%
X83820000Y-47117000D03*
X90932000Y-47244000D03*
%TO.N,Earth*%
X93091000Y-48133000D03*
X74926020Y-65667999D03*
X93475980Y-63868000D03*
X89789000Y-63119000D03*
X84582000Y-56261000D03*
X78486000Y-63373000D03*
%TO.N,/REFIN-*%
X93091000Y-53213000D03*
%TO.N,/nIRQ*%
X91313000Y-49276000D03*
X85852000Y-50927000D03*
%TO.N,/nIRQ___2*%
X77851000Y-62484000D03*
X70612000Y-53848000D03*
%TO.N,Earth*%
X73025000Y-49009000D03*
%TO.N,/REFIN-*%
X73025000Y-50559000D03*
%TO.N,+5V*%
X67183000Y-59055000D03*
%TO.N,/CamSDA*%
X69850000Y-62103000D03*
%TO.N,Earth*%
X61722000Y-58166000D03*
X67183000Y-57891000D03*
%TO.N,Net-(U2-PWDN)*%
X65424012Y-65061950D03*
%TO.N,+3.3V*%
X63751000Y-61725000D03*
%TO.N,/PCLK*%
X60691081Y-64424002D03*
%TO.N,/CamSCK*%
X67713701Y-61691138D03*
%TO.N,+3.3V*%
X61081500Y-57216000D03*
%TO.N,/CamRST*%
X66421000Y-64426000D03*
%TO.N,+1V2*%
X63627000Y-60198000D03*
X61341000Y-60198000D03*
%TO.N,+2V8*%
X63378500Y-59116000D03*
%TO.N,Earth*%
X67178347Y-65876000D03*
%TO.N,+2V8*%
X64475000Y-64424002D03*
%TO.N,Earth*%
X62103000Y-61722000D03*
X65404000Y-44990000D03*
X74930000Y-42037000D03*
X86462000Y-40626000D03*
X93092000Y-41990000D03*
%TO.N,+3.3V*%
X83692000Y-50990000D03*
X65404000Y-50990000D03*
%TO.N,/REFIN+*%
X92837000Y-50038000D03*
%TO.N,/MCLK*%
X84074000Y-38100000D03*
X83820000Y-40894000D03*
%TO.N,/REFIN+*%
X75425000Y-53633000D03*
%TO.N,Earth*%
X81661000Y-52096000D03*
X76949000Y-46127000D03*
X78714000Y-49048000D03*
%TO.N,/SDI*%
X88519000Y-49530000D03*
X93092000Y-43990000D03*
%TD*%
D21*
%TO.N,+2V8*%
X65024000Y-65913000D02*
X66116042Y-65913000D01*
X64475000Y-65364000D02*
X65024000Y-65913000D01*
X64475000Y-64424002D02*
X64475000Y-65364000D01*
X66116042Y-65913000D02*
X67750000Y-64279042D01*
X67750000Y-64279042D02*
X67750000Y-63174000D01*
%TO.N,/MCLK*%
X67056000Y-38354000D02*
X65404000Y-40006000D01*
X91694000Y-38354000D02*
X67056000Y-38354000D01*
X94488000Y-41148000D02*
X91694000Y-38354000D01*
X94488000Y-58788000D02*
X94488000Y-41148000D01*
%TO.N,+5V*%
X97155000Y-42797604D02*
X97155000Y-56764000D01*
X91568396Y-37211000D02*
X97155000Y-42797604D01*
X64008000Y-56007000D02*
X62357000Y-56007000D01*
X65217000Y-57216000D02*
X64008000Y-56007000D01*
X59436000Y-53086000D02*
X59436000Y-39497000D01*
X59436000Y-39497000D02*
X61722000Y-37211000D01*
X65653500Y-57216000D02*
X65217000Y-57216000D01*
X62357000Y-56007000D02*
X59436000Y-53086000D01*
X61722000Y-37211000D02*
X91568396Y-37211000D01*
%TO.N,/nCS*%
X66802000Y-42037000D02*
X66802000Y-45592000D01*
X69977000Y-38862000D02*
X66802000Y-42037000D01*
X91284100Y-38862000D02*
X69977000Y-38862000D01*
X94038000Y-41615900D02*
X91284100Y-38862000D01*
X66802000Y-45592000D02*
X65404000Y-46990000D01*
X94038000Y-46990000D02*
X94038000Y-41615900D01*
%TO.N,/SDI*%
X79424000Y-39370000D02*
X74804000Y-43990000D01*
X88472000Y-39370000D02*
X79424000Y-39370000D01*
X93092000Y-43990000D02*
X88472000Y-39370000D01*
%TO.N,/SCK*%
X87884000Y-39878000D02*
X81407000Y-39878000D01*
X89281000Y-41275000D02*
X87884000Y-39878000D01*
X89281000Y-46599695D02*
X89281000Y-41275000D01*
X81407000Y-39878000D02*
X78740000Y-42545000D01*
X89916000Y-47234695D02*
X89281000Y-46599695D01*
%TO.N,Earth*%
X82677000Y-42291000D02*
X82677000Y-44704000D01*
X82931000Y-42037000D02*
X82677000Y-42291000D01*
X85051000Y-42037000D02*
X82931000Y-42037000D01*
X86462000Y-40626000D02*
X85051000Y-42037000D01*
X88463000Y-42377000D02*
X88463000Y-46101000D01*
X86712000Y-40626000D02*
X88463000Y-42377000D01*
X82677000Y-44704000D02*
X82963000Y-44990000D01*
X82963000Y-44990000D02*
X83692000Y-44990000D01*
X86462000Y-40626000D02*
X86712000Y-40626000D01*
X88463000Y-46101000D02*
X88463000Y-48316000D01*
X91573695Y-47990000D02*
X93092000Y-47990000D01*
X90588000Y-48975695D02*
X91573695Y-47990000D01*
X90588000Y-49784000D02*
X90588000Y-48975695D01*
X91223000Y-50419000D02*
X90588000Y-49784000D01*
X88463000Y-48316000D02*
X88265000Y-48514000D01*
%TO.N,/SCK*%
X91160695Y-45990000D02*
X92965000Y-45990000D01*
X89916000Y-47234695D02*
X91160695Y-45990000D01*
X89916000Y-49039000D02*
X89916000Y-47234695D01*
%TO.N,/nIRQ*%
X91948000Y-49911000D02*
X91313000Y-49276000D01*
X91948000Y-58280000D02*
X91948000Y-49911000D01*
X91440000Y-58788000D02*
X91948000Y-58280000D01*
D22*
%TO.N,/REFIN-*%
X93092000Y-53212000D02*
X93092000Y-51990000D01*
X93091000Y-53213000D02*
X93092000Y-53212000D01*
D21*
%TO.N,/CamD3*%
X57464000Y-65211000D02*
X59750000Y-65211000D01*
X55499000Y-63246000D02*
X57464000Y-65211000D01*
%TO.N,/SDO1*%
X86995000Y-43053000D02*
X85375000Y-44673000D01*
X85375000Y-44673000D02*
X83692000Y-42990000D01*
X86868000Y-46166000D02*
X85375000Y-44673000D01*
%TO.N,Earth*%
X77851000Y-49911000D02*
X78714000Y-49048000D01*
X77851000Y-51689000D02*
X77851000Y-49911000D01*
X78867000Y-52705000D02*
X77851000Y-51689000D01*
X81052000Y-52705000D02*
X78867000Y-52705000D01*
X81661000Y-52096000D02*
X81052000Y-52705000D01*
%TO.N,Net-(U1-Vout)*%
X79502000Y-49784000D02*
X78714000Y-50572000D01*
X79502000Y-46990000D02*
X79502000Y-49784000D01*
X77470000Y-44958000D02*
X79502000Y-46990000D01*
X76454000Y-44958000D02*
X77470000Y-44958000D01*
%TO.N,/SCK*%
X74804000Y-45465000D02*
X74804000Y-45990000D01*
X77724000Y-42545000D02*
X74804000Y-45465000D01*
X78740000Y-42545000D02*
X77724000Y-42545000D01*
%TO.N,/nCS*%
X91186000Y-46990000D02*
X94038000Y-46990000D01*
X90932000Y-47244000D02*
X91186000Y-46990000D01*
X94038000Y-57714000D02*
X94038000Y-46990000D01*
X83693000Y-46990000D02*
X83820000Y-47117000D01*
X83692000Y-46990000D02*
X83693000Y-46990000D01*
%TO.N,/MCLK*%
X62103000Y-39878000D02*
X65276000Y-39878000D01*
X65276000Y-39878000D02*
X65404000Y-40006000D01*
%TO.N,/SDO2*%
X62103000Y-46228000D02*
X64262000Y-46228000D01*
X64262000Y-46228000D02*
X64262000Y-53467000D01*
X64262000Y-44132000D02*
X64262000Y-46228000D01*
%TO.N,Earth*%
X93092000Y-47990000D02*
X93092000Y-48132000D01*
X93092000Y-48132000D02*
X93091000Y-48133000D01*
X74342000Y-41990000D02*
X74804000Y-41990000D01*
X72644000Y-47625000D02*
X72644000Y-43688000D01*
X73526500Y-48507500D02*
X72644000Y-47625000D01*
X73526500Y-48507500D02*
X73025000Y-49009000D01*
X72644000Y-43688000D02*
X74342000Y-41990000D01*
X74044000Y-47990000D02*
X73526500Y-48507500D01*
X74926020Y-63868000D02*
X74926020Y-65667999D01*
X93475980Y-65667999D02*
X93475980Y-63868000D01*
X89600000Y-63308000D02*
X89789000Y-63119000D01*
X89450990Y-63308000D02*
X89600000Y-63308000D01*
X81661000Y-53340000D02*
X81661000Y-52096000D01*
X84582000Y-56261000D02*
X81661000Y-53340000D01*
X78551000Y-63308000D02*
X78486000Y-63373000D01*
X78950999Y-63308000D02*
X78551000Y-63308000D01*
%TO.N,/nIRQ*%
X85629000Y-50927000D02*
X83692000Y-48990000D01*
X85852000Y-50927000D02*
X85629000Y-50927000D01*
%TO.N,/nIRQ___2*%
X79451002Y-62306002D02*
X79451002Y-63307999D01*
X79248000Y-62103000D02*
X79451002Y-62306002D01*
X77851000Y-62484000D02*
X78232000Y-62103000D01*
X78232000Y-62103000D02*
X79248000Y-62103000D01*
X70262000Y-53848000D02*
X70612000Y-53848000D01*
X65404000Y-48990000D02*
X70262000Y-53848000D01*
%TO.N,/nIRQ*%
X81153000Y-47752000D02*
X81153000Y-45847000D01*
X82391000Y-48990000D02*
X81153000Y-47752000D01*
X83692000Y-48990000D02*
X82391000Y-48990000D01*
%TO.N,/CamMCLK*%
X56642000Y-60198000D02*
X55499000Y-61341000D01*
X60617396Y-60997000D02*
X59818396Y-60198000D01*
X62521000Y-60997000D02*
X60617396Y-60997000D01*
X62828000Y-61827305D02*
X62828000Y-61304000D01*
X62828000Y-61304000D02*
X62521000Y-60997000D01*
X59818396Y-60198000D02*
X56642000Y-60198000D01*
X63250000Y-62249305D02*
X62828000Y-61827305D01*
X63250000Y-63174000D02*
X63250000Y-62249305D01*
%TO.N,+1V2*%
X59624000Y-59116000D02*
X58806500Y-59116000D01*
X60325000Y-59817000D02*
X59624000Y-59116000D01*
X60960000Y-59817000D02*
X60325000Y-59817000D01*
X61341000Y-60198000D02*
X60960000Y-59817000D01*
%TO.N,+3.3V*%
X61402000Y-59116000D02*
X61081500Y-59116000D01*
X63751000Y-61465000D02*
X61402000Y-59116000D01*
X63751000Y-61725000D02*
X63751000Y-61465000D01*
%TO.N,Earth*%
X62103000Y-61722000D02*
X62250000Y-61869000D01*
X62250000Y-61869000D02*
X62250000Y-63174000D01*
%TO.N,/PCLK*%
X58801000Y-61341000D02*
X58420000Y-60960000D01*
X60325000Y-61341000D02*
X58801000Y-61341000D01*
X61250000Y-62266000D02*
X60325000Y-61341000D01*
X61250000Y-63174000D02*
X61250000Y-62266000D01*
%TO.N,Earth*%
X74804000Y-47990000D02*
X74044000Y-47990000D01*
D22*
%TO.N,/REFIN-*%
X74456000Y-51990000D02*
X73025000Y-50559000D01*
X74804000Y-51990000D02*
X74456000Y-51990000D01*
D21*
%TO.N,+5V*%
X67691000Y-59055000D02*
X67183000Y-59055000D01*
X68072000Y-58674000D02*
X67691000Y-59055000D01*
X68072000Y-57404000D02*
X68072000Y-58674000D01*
X67584000Y-56916000D02*
X68072000Y-57404000D01*
X65953500Y-56916000D02*
X67584000Y-56916000D01*
X65653500Y-57216000D02*
X65953500Y-56916000D01*
%TO.N,/SDO2*%
X82309000Y-55753000D02*
X85344000Y-58788000D01*
X66548000Y-55753000D02*
X82309000Y-55753000D01*
X65404000Y-42990000D02*
X64262000Y-44132000D01*
X64262000Y-53467000D02*
X66548000Y-55753000D01*
%TO.N,+5V*%
X67122000Y-59116000D02*
X65653500Y-59116000D01*
X67183000Y-59055000D02*
X67122000Y-59116000D01*
%TO.N,Earth*%
X66908000Y-58166000D02*
X65653500Y-58166000D01*
X67183000Y-57891000D02*
X66908000Y-58166000D01*
%TO.N,/CamSDA*%
X69850000Y-62103000D02*
X69850000Y-61595000D01*
X69850000Y-61595000D02*
X68834000Y-61595000D01*
X79883000Y-61595000D02*
X69850000Y-61595000D01*
%TO.N,Earth*%
X61081500Y-58166000D02*
X61722000Y-58166000D01*
X61722000Y-58166000D02*
X65653500Y-58166000D01*
%TO.N,Net-(U2-PWDN)*%
X65424012Y-64397683D02*
X65424012Y-65061950D01*
X65750000Y-64071695D02*
X65424012Y-64397683D01*
X65750000Y-63174000D02*
X65750000Y-64071695D01*
%TO.N,/CamD7*%
X63750000Y-65401000D02*
X63750000Y-63174000D01*
X64950000Y-66601000D02*
X63750000Y-65401000D01*
X67511000Y-66601000D02*
X64950000Y-66601000D01*
X76073000Y-62103000D02*
X72009000Y-62103000D01*
X81818002Y-65040999D02*
X79010999Y-65040999D01*
X82451001Y-64408000D02*
X81818002Y-65040999D01*
X72009000Y-62103000D02*
X67511000Y-66601000D01*
X82451001Y-63307999D02*
X82451001Y-64408000D01*
X79010999Y-65040999D02*
X76073000Y-62103000D01*
%TO.N,Earth*%
X67273000Y-65601000D02*
X68750000Y-64124000D01*
X67273000Y-65781347D02*
X67273000Y-65601000D01*
X67178347Y-65876000D02*
X67273000Y-65781347D01*
X68750000Y-64124000D02*
X68750000Y-63174000D01*
%TO.N,+3.3V*%
X64250000Y-62224000D02*
X63751000Y-61725000D01*
%TO.N,/PCLK*%
X60783079Y-64516000D02*
X60691081Y-64424002D01*
X61250000Y-64516000D02*
X61250000Y-63174000D01*
X61250000Y-64516000D02*
X60783079Y-64516000D01*
X61250000Y-65568000D02*
X61250000Y-64516000D01*
%TO.N,/CamSCK*%
X67250000Y-61655000D02*
X67250000Y-61916000D01*
X67818000Y-61087000D02*
X67250000Y-61655000D01*
X80072104Y-61087000D02*
X67818000Y-61087000D01*
X80951001Y-63307999D02*
X80951001Y-61965897D01*
X80951001Y-61965897D02*
X80072104Y-61087000D01*
X67474862Y-61691138D02*
X67713701Y-61691138D01*
X67250000Y-61916000D02*
X67474862Y-61691138D01*
X67250000Y-61916000D02*
X67250000Y-63174000D01*
%TO.N,/CamVSYNC*%
X66250000Y-61639000D02*
X66250000Y-63174000D01*
X67310000Y-60579000D02*
X66250000Y-61639000D01*
X80264000Y-60579000D02*
X67310000Y-60579000D01*
X81451000Y-61766000D02*
X80264000Y-60579000D01*
X81451000Y-63307999D02*
X81451000Y-61766000D01*
%TO.N,/CamRST*%
X66750000Y-64097000D02*
X66421000Y-64426000D01*
X66750000Y-63174000D02*
X66750000Y-64097000D01*
%TO.N,+1V2*%
X64135000Y-60198000D02*
X63627000Y-60198000D01*
X64750000Y-60813000D02*
X64135000Y-60198000D01*
X64750000Y-63174000D02*
X64750000Y-60813000D01*
%TO.N,+3.3V*%
X60513000Y-59116000D02*
X61081500Y-59116000D01*
X60419001Y-57216000D02*
X60094000Y-57541001D01*
X60094000Y-57541001D02*
X60094000Y-58697000D01*
X61081500Y-57216000D02*
X60419001Y-57216000D01*
X60094000Y-58697000D02*
X60513000Y-59116000D01*
X64250000Y-63174000D02*
X64250000Y-62224000D01*
%TO.N,/CamD3*%
X59750000Y-65211000D02*
X59750000Y-63174000D01*
X83185000Y-68961000D02*
X63500000Y-68961000D01*
X63500000Y-68961000D02*
X59750000Y-65211000D01*
X84451000Y-67695000D02*
X83185000Y-68961000D01*
X84451000Y-63307999D02*
X84451000Y-67695000D01*
%TO.N,/PCLK*%
X83951000Y-67433000D02*
X82931000Y-68453000D01*
X64135000Y-68453000D02*
X61250000Y-65568000D01*
X83951000Y-63307999D02*
X83951000Y-67433000D01*
X82931000Y-68453000D02*
X64135000Y-68453000D01*
%TO.N,/CamD6*%
X62750000Y-66179000D02*
X62750000Y-63174000D01*
X64516000Y-67945000D02*
X62750000Y-66179000D01*
X82802604Y-67945000D02*
X64516000Y-67945000D01*
X83451002Y-63307999D02*
X83451002Y-67296602D01*
X83451002Y-67296602D02*
X82802604Y-67945000D01*
%TO.N,/CamMCLK*%
X82083001Y-65490999D02*
X78697603Y-65490999D01*
X63250000Y-65710000D02*
X63250000Y-63174000D01*
X78697603Y-65490999D02*
X75817604Y-62611000D01*
X82951000Y-64623000D02*
X82083001Y-65490999D01*
X72327896Y-62611000D02*
X67887896Y-67051000D01*
X64591000Y-67051000D02*
X63250000Y-65710000D01*
X82951000Y-63307999D02*
X82951000Y-64623000D01*
X75817604Y-62611000D02*
X72327896Y-62611000D01*
X67887896Y-67051000D02*
X64591000Y-67051000D01*
%TO.N,/CamHSYNC*%
X80518000Y-60071000D02*
X67056000Y-60071000D01*
X81915000Y-61468000D02*
X80518000Y-60071000D01*
X81915000Y-62171999D02*
X81915000Y-61468000D01*
X67056000Y-60071000D02*
X65250000Y-61877000D01*
X65250000Y-61877000D02*
X65250000Y-63174000D01*
X81951002Y-62208001D02*
X81915000Y-62171999D01*
X81951002Y-63307999D02*
X81951002Y-62208001D01*
%TO.N,/CamSDA*%
X68834000Y-61595000D02*
X68250000Y-62179000D01*
X68250000Y-62179000D02*
X68250000Y-63174000D01*
X80451000Y-62163000D02*
X79883000Y-61595000D01*
X80451000Y-63307999D02*
X80451000Y-62163000D01*
%TO.N,Earth*%
X74883000Y-41990000D02*
X74930000Y-42037000D01*
X74804000Y-41990000D02*
X74883000Y-41990000D01*
D22*
%TO.N,/REFIN+*%
X92885000Y-49990000D02*
X92837000Y-50038000D01*
X93092000Y-49990000D02*
X92885000Y-49990000D01*
D21*
%TO.N,/MCLK*%
X83724000Y-40990000D02*
X83820000Y-40894000D01*
X83692000Y-40990000D02*
X83724000Y-40990000D01*
D22*
%TO.N,/REFIN+*%
X75604000Y-53454000D02*
X75425000Y-53633000D01*
X74804000Y-49990000D02*
X75604000Y-50790000D01*
X75604000Y-50790000D02*
X75604000Y-53454000D01*
D21*
%TO.N,Earth*%
X78714000Y-47892000D02*
X78714000Y-49048000D01*
X76949000Y-46127000D02*
X78714000Y-47892000D01*
%TO.N,/SDO1*%
X86868000Y-58788000D02*
X86868000Y-46166000D01*
%TO.N,/nCS*%
X92964000Y-58788000D02*
X94038000Y-57714000D01*
%TO.N,/MCLK*%
X65404000Y-40006000D02*
X65404000Y-40990000D01*
%TO.N,/SDI*%
X88392000Y-49657000D02*
X88519000Y-49530000D01*
X88392000Y-58788000D02*
X88392000Y-49657000D01*
%TO.N,/SCK*%
X89916000Y-58788000D02*
X89916000Y-49039000D01*
%TO.N,Net-(J5-Pad1)*%
X92964000Y-61595000D02*
X92964000Y-60338000D01*
X89312990Y-64770000D02*
X89789000Y-64770000D01*
X88951001Y-64408011D02*
X89312990Y-64770000D01*
X89789000Y-64770000D02*
X92964000Y-61595000D01*
X88951001Y-63307999D02*
X88951001Y-64408011D01*
%TO.N,Net-(J5-Pad2)*%
X89096000Y-65220000D02*
X88451002Y-64575002D01*
X88451002Y-64575002D02*
X88451002Y-63307999D01*
X90056000Y-65220000D02*
X89096000Y-65220000D01*
X94488000Y-60788000D02*
X90056000Y-65220000D01*
X94488000Y-60338000D02*
X94488000Y-60788000D01*
%TO.N,Net-(J5-Pad9)*%
X84951001Y-63307999D02*
X84951001Y-62218001D01*
%TO.N,Net-(J5-Pad8)*%
X85451000Y-63307999D02*
X85451000Y-61969000D01*
%TO.N,Net-(J5-Pad7)*%
X85951002Y-63307999D02*
X85951002Y-60945002D01*
%TO.N,Net-(J5-Pad6)*%
X86451001Y-63307999D02*
X86451001Y-60754999D01*
%TO.N,Net-(J5-Pad5)*%
X86951000Y-61639000D02*
X86951000Y-63307999D01*
%TO.N,Net-(J5-Pad4)*%
X87451001Y-63307999D02*
X87451001Y-62027999D01*
%TO.N,Net-(J5-Pad3)*%
X87951000Y-63307999D02*
X87951000Y-62290000D01*
X90114000Y-61664000D02*
X91440000Y-60338000D01*
X88577000Y-61664000D02*
X90114000Y-61664000D01*
X87951000Y-62290000D02*
X88577000Y-61664000D01*
%TO.N,Net-(J5-Pad4)*%
X89776000Y-60338000D02*
X89916000Y-60338000D01*
X88900000Y-61214000D02*
X89776000Y-60338000D01*
X87451001Y-62027999D02*
X88265000Y-61214000D01*
X88265000Y-61214000D02*
X88900000Y-61214000D01*
%TO.N,Net-(J5-Pad5)*%
X88252000Y-60338000D02*
X88392000Y-60338000D01*
X86951000Y-61639000D02*
X88252000Y-60338000D01*
%TO.N,Net-(J5-Pad9)*%
X83058000Y-61214000D02*
X83947000Y-61214000D01*
X82296000Y-60452000D02*
X83058000Y-61214000D01*
X82296000Y-60338000D02*
X82296000Y-60452000D01*
X83947000Y-61214000D02*
X84951001Y-62218001D01*
%TO.N,Net-(J5-Pad6)*%
X86451001Y-60754999D02*
X86868000Y-60338000D01*
%TO.N,Net-(J5-Pad7)*%
X85951002Y-60945002D02*
X85344000Y-60338000D01*
%TO.N,Net-(J5-Pad8)*%
X85451000Y-61969000D02*
X83820000Y-60338000D01*
%TD*%
%TA.AperFunction,Conductor*%
%TO.N,Earth*%
G36*
X95318703Y-41846343D02*
G01*
X95325181Y-41852375D01*
X96493181Y-43020375D01*
X96526666Y-43081698D01*
X96529500Y-43108056D01*
X96529500Y-55289500D01*
X96509815Y-55356539D01*
X96457011Y-55402294D01*
X96405501Y-55413500D01*
X96257130Y-55413500D01*
X96257123Y-55413501D01*
X96197516Y-55419908D01*
X96062671Y-55470202D01*
X96062664Y-55470206D01*
X95947455Y-55556452D01*
X95947452Y-55556455D01*
X95861206Y-55671664D01*
X95861202Y-55671671D01*
X95810908Y-55806517D01*
X95804501Y-55866116D01*
X95804500Y-55866135D01*
X95804500Y-57661870D01*
X95804501Y-57661876D01*
X95810908Y-57721483D01*
X95861202Y-57856328D01*
X95861206Y-57856335D01*
X95947452Y-57971544D01*
X95947455Y-57971547D01*
X96062664Y-58057793D01*
X96062671Y-58057797D01*
X96107337Y-58074456D01*
X96194598Y-58107002D01*
X96250531Y-58148873D01*
X96274949Y-58214337D01*
X96260098Y-58282610D01*
X96238947Y-58310865D01*
X96116886Y-58432926D01*
X95981400Y-58626420D01*
X95981399Y-58626422D01*
X95881570Y-58840507D01*
X95881567Y-58840513D01*
X95824364Y-59053999D01*
X95824364Y-59054000D01*
X96721314Y-59054000D01*
X96695507Y-59094156D01*
X96655000Y-59232111D01*
X96655000Y-59375889D01*
X96695507Y-59513844D01*
X96721314Y-59554000D01*
X95824364Y-59554000D01*
X95881567Y-59767486D01*
X95881570Y-59767492D01*
X95981399Y-59981578D01*
X96116894Y-60175082D01*
X96283917Y-60342105D01*
X96477421Y-60477600D01*
X96691507Y-60577429D01*
X96691516Y-60577433D01*
X96905000Y-60634634D01*
X96905000Y-59739501D01*
X97012685Y-59788680D01*
X97119237Y-59804000D01*
X97190763Y-59804000D01*
X97297315Y-59788680D01*
X97405000Y-59739501D01*
X97405000Y-60634633D01*
X97618483Y-60577433D01*
X97618492Y-60577429D01*
X97832578Y-60477600D01*
X98026082Y-60342105D01*
X98086319Y-60281869D01*
X98147642Y-60248384D01*
X98217334Y-60253368D01*
X98273267Y-60295240D01*
X98297684Y-60360704D01*
X98298000Y-60369550D01*
X98298000Y-69218000D01*
X98278315Y-69285039D01*
X98225511Y-69330794D01*
X98174000Y-69342000D01*
X83987951Y-69342000D01*
X83920912Y-69322315D01*
X83875157Y-69269511D01*
X83865213Y-69200353D01*
X83894238Y-69136797D01*
X83900270Y-69130319D01*
X84834787Y-68195802D01*
X84847042Y-68185986D01*
X84846859Y-68185764D01*
X84852868Y-68180791D01*
X84852877Y-68180786D01*
X84898949Y-68131722D01*
X84901566Y-68129023D01*
X84921120Y-68109471D01*
X84923576Y-68106303D01*
X84931156Y-68097427D01*
X84961062Y-68065582D01*
X84970713Y-68048024D01*
X84981396Y-68031761D01*
X84993673Y-68015936D01*
X85011021Y-67975844D01*
X85016151Y-67965371D01*
X85037197Y-67927092D01*
X85042180Y-67907680D01*
X85048481Y-67889280D01*
X85056437Y-67870896D01*
X85063270Y-67827748D01*
X85065633Y-67816338D01*
X85076500Y-67774019D01*
X85076500Y-67753983D01*
X85078027Y-67734582D01*
X85081160Y-67714804D01*
X85077050Y-67671324D01*
X85076500Y-67659655D01*
X85076500Y-65917999D01*
X92200980Y-65917999D01*
X92200980Y-66465843D01*
X92207381Y-66525371D01*
X92207383Y-66525378D01*
X92257625Y-66660085D01*
X92257629Y-66660092D01*
X92343789Y-66775186D01*
X92343792Y-66775189D01*
X92458886Y-66861349D01*
X92458893Y-66861353D01*
X92593600Y-66911595D01*
X92593607Y-66911597D01*
X92653135Y-66917998D01*
X92653152Y-66917999D01*
X93225980Y-66917999D01*
X93225980Y-65917999D01*
X93725980Y-65917999D01*
X93725980Y-66917999D01*
X94298808Y-66917999D01*
X94298824Y-66917998D01*
X94358352Y-66911597D01*
X94358359Y-66911595D01*
X94493066Y-66861353D01*
X94493073Y-66861349D01*
X94608167Y-66775189D01*
X94608170Y-66775186D01*
X94694330Y-66660092D01*
X94694334Y-66660085D01*
X94744576Y-66525378D01*
X94744578Y-66525371D01*
X94750979Y-66465843D01*
X94750980Y-66465826D01*
X94750980Y-65917999D01*
X93725980Y-65917999D01*
X93225980Y-65917999D01*
X92200980Y-65917999D01*
X85076500Y-65917999D01*
X85076500Y-64727662D01*
X85096185Y-64660623D01*
X85148989Y-64614868D01*
X85187210Y-64604376D01*
X85187716Y-64604321D01*
X85214251Y-64604319D01*
X85253127Y-64608499D01*
X85648872Y-64608498D01*
X85648873Y-64608497D01*
X85648888Y-64608497D01*
X85687746Y-64604319D01*
X85714253Y-64604319D01*
X85753129Y-64608499D01*
X86148874Y-64608498D01*
X86148875Y-64608497D01*
X86148887Y-64608497D01*
X86187745Y-64604319D01*
X86214253Y-64604319D01*
X86253128Y-64608499D01*
X86648873Y-64608498D01*
X86648874Y-64608497D01*
X86648886Y-64608497D01*
X86687744Y-64604319D01*
X86714252Y-64604319D01*
X86753127Y-64608499D01*
X87148872Y-64608498D01*
X87148873Y-64608497D01*
X87148885Y-64608497D01*
X87187744Y-64604319D01*
X87214252Y-64604319D01*
X87253128Y-64608499D01*
X87648873Y-64608498D01*
X87648874Y-64608497D01*
X87648886Y-64608497D01*
X87687744Y-64604319D01*
X87714252Y-64604319D01*
X87728274Y-64605826D01*
X87792823Y-64632566D01*
X87832670Y-64689960D01*
X87838036Y-64713575D01*
X87840336Y-64731789D01*
X87840337Y-64731792D01*
X87856416Y-64772405D01*
X87860199Y-64783454D01*
X87872383Y-64825390D01*
X87882582Y-64842636D01*
X87891138Y-64860102D01*
X87898516Y-64878734D01*
X87924183Y-64914062D01*
X87930595Y-64923823D01*
X87952830Y-64961419D01*
X87952835Y-64961426D01*
X87966992Y-64975582D01*
X87979630Y-64990378D01*
X87991407Y-65006588D01*
X87991408Y-65006589D01*
X88025059Y-65034427D01*
X88033700Y-65042290D01*
X88595197Y-65603788D01*
X88605022Y-65616051D01*
X88605243Y-65615869D01*
X88610211Y-65621874D01*
X88610213Y-65621876D01*
X88610214Y-65621877D01*
X88626636Y-65637298D01*
X88659222Y-65667899D01*
X88662021Y-65670612D01*
X88681522Y-65690114D01*
X88681526Y-65690117D01*
X88681529Y-65690120D01*
X88684702Y-65692581D01*
X88693574Y-65700159D01*
X88725418Y-65730062D01*
X88742976Y-65739714D01*
X88759233Y-65750393D01*
X88775064Y-65762673D01*
X88804803Y-65775542D01*
X88815152Y-65780021D01*
X88825641Y-65785160D01*
X88849457Y-65798252D01*
X88863908Y-65806197D01*
X88876523Y-65809435D01*
X88883305Y-65811177D01*
X88901719Y-65817481D01*
X88920104Y-65825438D01*
X88963261Y-65832273D01*
X88974656Y-65834632D01*
X89016981Y-65845500D01*
X89037016Y-65845500D01*
X89056413Y-65847026D01*
X89076196Y-65850160D01*
X89119675Y-65846050D01*
X89131344Y-65845500D01*
X89973257Y-65845500D01*
X89988877Y-65847224D01*
X89988904Y-65846939D01*
X89996660Y-65847671D01*
X89996667Y-65847673D01*
X90063873Y-65845561D01*
X90067768Y-65845500D01*
X90095346Y-65845500D01*
X90095350Y-65845500D01*
X90099324Y-65844997D01*
X90110963Y-65844080D01*
X90154627Y-65842709D01*
X90173869Y-65837117D01*
X90192912Y-65833174D01*
X90212792Y-65830664D01*
X90253401Y-65814585D01*
X90264444Y-65810803D01*
X90306390Y-65798618D01*
X90323629Y-65788422D01*
X90341103Y-65779862D01*
X90359727Y-65772488D01*
X90359727Y-65772487D01*
X90359732Y-65772486D01*
X90395083Y-65746800D01*
X90404814Y-65740408D01*
X90442420Y-65718170D01*
X90456589Y-65703999D01*
X90471379Y-65691368D01*
X90487587Y-65679594D01*
X90515438Y-65645926D01*
X90523279Y-65637309D01*
X91989299Y-64171290D01*
X92050622Y-64137805D01*
X92120314Y-64142789D01*
X92176247Y-64184661D01*
X92200664Y-64250125D01*
X92200980Y-64258971D01*
X92200980Y-64665844D01*
X92207381Y-64725372D01*
X92209167Y-64732930D01*
X92207732Y-64733268D01*
X92212101Y-64794357D01*
X92207612Y-64809645D01*
X92207381Y-64810623D01*
X92200980Y-64870154D01*
X92200980Y-65417999D01*
X93225980Y-65417999D01*
X93225980Y-64118000D01*
X93725980Y-64118000D01*
X93725980Y-65417999D01*
X94750980Y-65417999D01*
X94750980Y-64870171D01*
X94750979Y-64870154D01*
X94744577Y-64810621D01*
X94742793Y-64803066D01*
X94744229Y-64802726D01*
X94739856Y-64741650D01*
X94744343Y-64726369D01*
X94744578Y-64725372D01*
X94750979Y-64665844D01*
X94750980Y-64665827D01*
X94750980Y-64118000D01*
X93725980Y-64118000D01*
X93225980Y-64118000D01*
X93225980Y-63742000D01*
X93245665Y-63674961D01*
X93298469Y-63629206D01*
X93349980Y-63618000D01*
X94750980Y-63618000D01*
X94750980Y-63070172D01*
X94750979Y-63070155D01*
X94744578Y-63010627D01*
X94744576Y-63010620D01*
X94694334Y-62875913D01*
X94694330Y-62875906D01*
X94608170Y-62760812D01*
X94608167Y-62760809D01*
X94493073Y-62674649D01*
X94493066Y-62674645D01*
X94358359Y-62624403D01*
X94358352Y-62624401D01*
X94298824Y-62618000D01*
X93841951Y-62618000D01*
X93774912Y-62598315D01*
X93729157Y-62545511D01*
X93719213Y-62476353D01*
X93748238Y-62412797D01*
X93754270Y-62406319D01*
X94302074Y-61858515D01*
X94859742Y-61300846D01*
X94908415Y-61270824D01*
X95046697Y-61225003D01*
X95191044Y-61135968D01*
X95310968Y-61016044D01*
X95400003Y-60871697D01*
X95453349Y-60710708D01*
X95463500Y-60611345D01*
X95463499Y-60064656D01*
X95453349Y-59965292D01*
X95400003Y-59804303D01*
X95399999Y-59804297D01*
X95399998Y-59804294D01*
X95310970Y-59659959D01*
X95310967Y-59659955D01*
X95301693Y-59650681D01*
X95268208Y-59589358D01*
X95273192Y-59519666D01*
X95301693Y-59475319D01*
X95303494Y-59473518D01*
X95310968Y-59466044D01*
X95400003Y-59321697D01*
X95453349Y-59160708D01*
X95463500Y-59061345D01*
X95463499Y-58514656D01*
X95461049Y-58490675D01*
X95453349Y-58415292D01*
X95453348Y-58415289D01*
X95421243Y-58318402D01*
X95400003Y-58254303D01*
X95399999Y-58254297D01*
X95399998Y-58254294D01*
X95310970Y-58109959D01*
X95310969Y-58109958D01*
X95310968Y-58109956D01*
X95191044Y-57990032D01*
X95172399Y-57978531D01*
X95125677Y-57926582D01*
X95113500Y-57872995D01*
X95113500Y-41940056D01*
X95133185Y-41873017D01*
X95185989Y-41827262D01*
X95255147Y-41817318D01*
X95318703Y-41846343D01*
G37*
%TD.AperFunction*%
%TA.AperFunction,Conductor*%
G36*
X73594059Y-63256185D02*
G01*
X73639814Y-63308989D01*
X73651020Y-63360500D01*
X73651020Y-63618000D01*
X75052020Y-63618000D01*
X75119059Y-63637685D01*
X75164814Y-63690489D01*
X75176020Y-63742000D01*
X75176020Y-65417999D01*
X76201020Y-65417999D01*
X76201020Y-64870171D01*
X76201019Y-64870154D01*
X76194617Y-64810621D01*
X76192833Y-64803066D01*
X76194269Y-64802726D01*
X76189896Y-64741650D01*
X76194383Y-64726369D01*
X76194618Y-64725372D01*
X76201019Y-64665844D01*
X76201020Y-64665827D01*
X76201020Y-64178368D01*
X76220705Y-64111329D01*
X76273509Y-64065574D01*
X76342667Y-64055630D01*
X76406223Y-64084655D01*
X76412701Y-64090687D01*
X78196797Y-65874783D01*
X78206622Y-65887047D01*
X78206843Y-65886865D01*
X78211813Y-65892873D01*
X78260842Y-65938914D01*
X78263639Y-65941625D01*
X78283133Y-65961119D01*
X78286298Y-65963574D01*
X78295174Y-65971155D01*
X78327021Y-66001061D01*
X78327025Y-66001063D01*
X78344576Y-66010712D01*
X78360834Y-66021391D01*
X78376667Y-66033673D01*
X78412013Y-66048967D01*
X78416758Y-66051021D01*
X78427238Y-66056154D01*
X78465511Y-66077196D01*
X78484915Y-66082178D01*
X78503313Y-66088477D01*
X78521708Y-66096437D01*
X78564857Y-66103270D01*
X78576283Y-66105637D01*
X78618584Y-66116499D01*
X78638619Y-66116499D01*
X78658016Y-66118025D01*
X78677799Y-66121159D01*
X78721278Y-66117049D01*
X78732947Y-66116499D01*
X82000258Y-66116499D01*
X82015878Y-66118223D01*
X82015905Y-66117938D01*
X82023661Y-66118670D01*
X82023668Y-66118672D01*
X82090874Y-66116560D01*
X82094769Y-66116499D01*
X82122347Y-66116499D01*
X82122351Y-66116499D01*
X82126325Y-66115996D01*
X82137964Y-66115079D01*
X82181628Y-66113708D01*
X82200870Y-66108116D01*
X82219913Y-66104173D01*
X82239793Y-66101663D01*
X82280402Y-66085584D01*
X82291445Y-66081802D01*
X82333391Y-66069617D01*
X82350630Y-66059421D01*
X82368104Y-66050861D01*
X82386728Y-66043487D01*
X82386728Y-66043486D01*
X82386733Y-66043485D01*
X82422084Y-66017799D01*
X82431815Y-66011407D01*
X82469421Y-65989169D01*
X82483590Y-65974998D01*
X82498380Y-65962367D01*
X82514588Y-65950593D01*
X82542439Y-65916925D01*
X82550270Y-65908318D01*
X82613823Y-65844765D01*
X82675145Y-65811283D01*
X82744836Y-65816268D01*
X82800770Y-65858139D01*
X82825186Y-65923604D01*
X82825502Y-65932449D01*
X82825502Y-66986149D01*
X82805817Y-67053188D01*
X82789183Y-67073830D01*
X82579832Y-67283181D01*
X82518509Y-67316666D01*
X82492151Y-67319500D01*
X72674500Y-67319500D01*
X72607461Y-67299815D01*
X72561706Y-67247011D01*
X72550500Y-67195500D01*
X72550499Y-65917999D01*
X73651020Y-65917999D01*
X73651020Y-66465843D01*
X73657421Y-66525371D01*
X73657423Y-66525378D01*
X73707665Y-66660085D01*
X73707669Y-66660092D01*
X73793829Y-66775186D01*
X73793832Y-66775189D01*
X73908926Y-66861349D01*
X73908933Y-66861353D01*
X74043640Y-66911595D01*
X74043647Y-66911597D01*
X74103175Y-66917998D01*
X74103192Y-66917999D01*
X74676020Y-66917999D01*
X74676020Y-65917999D01*
X75176020Y-65917999D01*
X75176020Y-66917999D01*
X75748848Y-66917999D01*
X75748864Y-66917998D01*
X75808392Y-66911597D01*
X75808399Y-66911595D01*
X75943106Y-66861353D01*
X75943113Y-66861349D01*
X76058207Y-66775189D01*
X76058210Y-66775186D01*
X76144370Y-66660092D01*
X76144374Y-66660085D01*
X76194616Y-66525378D01*
X76194618Y-66525371D01*
X76201019Y-66465843D01*
X76201020Y-66465826D01*
X76201020Y-65917999D01*
X75176020Y-65917999D01*
X74676020Y-65917999D01*
X73651020Y-65917999D01*
X72550499Y-65917999D01*
X72550499Y-65276129D01*
X72550498Y-65276123D01*
X72550497Y-65276116D01*
X72544091Y-65216517D01*
X72493796Y-65081669D01*
X72493795Y-65081668D01*
X72493793Y-65081664D01*
X72407547Y-64966455D01*
X72407544Y-64966452D01*
X72292335Y-64880206D01*
X72292328Y-64880202D01*
X72157482Y-64829908D01*
X72157483Y-64829908D01*
X72097883Y-64823501D01*
X72097881Y-64823500D01*
X72097873Y-64823500D01*
X72097865Y-64823500D01*
X71299348Y-64823500D01*
X71232309Y-64803815D01*
X71186554Y-64751011D01*
X71176610Y-64681853D01*
X71205635Y-64618297D01*
X71211667Y-64611819D01*
X71705487Y-64118000D01*
X73651020Y-64118000D01*
X73651020Y-64665844D01*
X73657421Y-64725372D01*
X73659207Y-64732930D01*
X73657772Y-64733268D01*
X73662141Y-64794357D01*
X73657652Y-64809645D01*
X73657421Y-64810623D01*
X73651020Y-64870154D01*
X73651020Y-65417999D01*
X74676020Y-65417999D01*
X74676020Y-64118000D01*
X73651020Y-64118000D01*
X71705487Y-64118000D01*
X71833258Y-63990229D01*
X72550668Y-63272819D01*
X72611991Y-63239334D01*
X72638349Y-63236500D01*
X73527020Y-63236500D01*
X73594059Y-63256185D01*
G37*
%TD.AperFunction*%
%TA.AperFunction,Conductor*%
G36*
X68515606Y-64320068D02*
G01*
X68552166Y-64323999D01*
X68552182Y-64324000D01*
X68604046Y-64324000D01*
X68671085Y-64343685D01*
X68716840Y-64396489D01*
X68726784Y-64465647D01*
X68697759Y-64529203D01*
X68691727Y-64535681D01*
X68496942Y-64730465D01*
X68435619Y-64763950D01*
X68365927Y-64758966D01*
X68309994Y-64717094D01*
X68285577Y-64651630D01*
X68295456Y-64593546D01*
X68310029Y-64559867D01*
X68315161Y-64549396D01*
X68336194Y-64511140D01*
X68336194Y-64511139D01*
X68336197Y-64511134D01*
X68341180Y-64491722D01*
X68347477Y-64473333D01*
X68355438Y-64454937D01*
X68360005Y-64426096D01*
X68389931Y-64362964D01*
X68449241Y-64326030D01*
X68469217Y-64322204D01*
X68489101Y-64320067D01*
X68515606Y-64320068D01*
G37*
%TD.AperFunction*%
%TA.AperFunction,Conductor*%
G36*
X92267095Y-61139754D02*
G01*
X92279596Y-61147465D01*
X92326321Y-61199413D01*
X92338500Y-61253004D01*
X92338500Y-61284546D01*
X92318815Y-61351585D01*
X92302181Y-61372227D01*
X90246380Y-63428028D01*
X90185057Y-63461513D01*
X90135934Y-63458000D01*
X89725500Y-63458000D01*
X89658461Y-63438315D01*
X89612706Y-63385511D01*
X89601500Y-63334000D01*
X89601500Y-63282000D01*
X89621185Y-63214961D01*
X89673989Y-63169206D01*
X89725500Y-63158000D01*
X90100990Y-63158000D01*
X90100990Y-62460172D01*
X90100989Y-62460158D01*
X90097078Y-62423784D01*
X90109482Y-62355024D01*
X90157092Y-62303886D01*
X90205222Y-62289866D01*
X90204916Y-62287931D01*
X90212617Y-62286710D01*
X90212619Y-62286709D01*
X90212627Y-62286709D01*
X90231869Y-62281117D01*
X90250912Y-62277174D01*
X90270792Y-62274664D01*
X90311401Y-62258585D01*
X90322444Y-62254803D01*
X90364390Y-62242618D01*
X90381629Y-62232422D01*
X90399103Y-62223862D01*
X90417727Y-62216488D01*
X90417727Y-62216487D01*
X90417732Y-62216486D01*
X90453083Y-62190800D01*
X90462814Y-62184408D01*
X90500420Y-62162170D01*
X90514589Y-62147999D01*
X90529379Y-62135368D01*
X90545587Y-62123594D01*
X90573438Y-62089926D01*
X90581279Y-62081309D01*
X91337772Y-61324818D01*
X91399095Y-61291333D01*
X91425453Y-61288499D01*
X91738338Y-61288499D01*
X91738344Y-61288499D01*
X91738352Y-61288498D01*
X91738355Y-61288498D01*
X91792760Y-61282940D01*
X91837708Y-61278349D01*
X91998697Y-61225003D01*
X92136903Y-61139756D01*
X92204295Y-61121315D01*
X92267095Y-61139754D01*
G37*
%TD.AperFunction*%
%TA.AperFunction,Conductor*%
G36*
X62145105Y-61642185D02*
G01*
X62190860Y-61694989D01*
X62200225Y-61760125D01*
X62201061Y-61760204D01*
X62200734Y-61763661D01*
X62200804Y-61764147D01*
X62200565Y-61765449D01*
X62200326Y-61767970D01*
X62202439Y-61835177D01*
X62202500Y-61839072D01*
X62202500Y-61866662D01*
X62203003Y-61870640D01*
X62203918Y-61882271D01*
X62204353Y-61896102D01*
X62186785Y-61963727D01*
X62135446Y-62011119D01*
X62080414Y-62024000D01*
X62052165Y-62024000D01*
X62015598Y-62027931D01*
X61989092Y-62027931D01*
X61947875Y-62023500D01*
X61947873Y-62023500D01*
X61909482Y-62023500D01*
X61842443Y-62003815D01*
X61808542Y-61967511D01*
X61807072Y-61968580D01*
X61776816Y-61926937D01*
X61770405Y-61917177D01*
X61754971Y-61891080D01*
X61748172Y-61879583D01*
X61748165Y-61879574D01*
X61734006Y-61865415D01*
X61721368Y-61850619D01*
X61716675Y-61844160D01*
X61709594Y-61834413D01*
X61709593Y-61834412D01*
X61709591Y-61834409D01*
X61706751Y-61831385D01*
X61705276Y-61828470D01*
X61705008Y-61828101D01*
X61705067Y-61828057D01*
X61675208Y-61769040D01*
X61682378Y-61699539D01*
X61725985Y-61644948D01*
X61792184Y-61622599D01*
X61797142Y-61622500D01*
X62078066Y-61622500D01*
X62145105Y-61642185D01*
G37*
%TD.AperFunction*%
%TA.AperFunction,Conductor*%
G36*
X61239046Y-36595685D02*
G01*
X61284801Y-36648489D01*
X61294745Y-36717647D01*
X61267543Y-36779050D01*
X61262566Y-36785065D01*
X61254711Y-36793696D01*
X59052208Y-38996199D01*
X59039951Y-39006020D01*
X59040134Y-39006241D01*
X59034122Y-39011214D01*
X58988098Y-39060223D01*
X58985391Y-39063016D01*
X58965889Y-39082517D01*
X58965875Y-39082534D01*
X58963407Y-39085715D01*
X58955843Y-39094570D01*
X58925937Y-39126418D01*
X58925936Y-39126420D01*
X58916284Y-39143976D01*
X58905610Y-39160226D01*
X58893329Y-39176061D01*
X58893324Y-39176068D01*
X58875975Y-39216158D01*
X58870838Y-39226644D01*
X58849803Y-39264906D01*
X58844822Y-39284307D01*
X58838521Y-39302710D01*
X58830562Y-39321102D01*
X58830561Y-39321105D01*
X58823728Y-39364243D01*
X58821360Y-39375674D01*
X58810501Y-39417971D01*
X58810500Y-39417982D01*
X58810500Y-39438016D01*
X58808973Y-39457415D01*
X58805840Y-39477194D01*
X58805840Y-39477195D01*
X58809950Y-39520674D01*
X58810500Y-39532343D01*
X58810500Y-53003255D01*
X58808775Y-53018872D01*
X58809061Y-53018899D01*
X58808326Y-53026665D01*
X58810439Y-53093872D01*
X58810500Y-53097767D01*
X58810500Y-53125357D01*
X58811003Y-53129335D01*
X58811918Y-53140967D01*
X58813290Y-53184624D01*
X58813291Y-53184627D01*
X58818880Y-53203867D01*
X58822824Y-53222911D01*
X58825336Y-53242792D01*
X58841414Y-53283403D01*
X58845197Y-53294452D01*
X58857381Y-53336388D01*
X58867580Y-53353634D01*
X58876138Y-53371103D01*
X58883514Y-53389732D01*
X58909181Y-53425060D01*
X58915593Y-53434821D01*
X58937828Y-53472417D01*
X58937833Y-53472424D01*
X58951990Y-53486580D01*
X58964628Y-53501376D01*
X58976405Y-53517586D01*
X58976406Y-53517587D01*
X59010057Y-53545425D01*
X59018698Y-53553288D01*
X61669228Y-56203819D01*
X61702713Y-56265142D01*
X61697729Y-56334834D01*
X61655857Y-56390767D01*
X61590393Y-56415184D01*
X61581547Y-56415500D01*
X61523867Y-56415500D01*
X61473431Y-56404779D01*
X61361307Y-56354857D01*
X61361302Y-56354855D01*
X61214094Y-56323566D01*
X61176146Y-56315500D01*
X60986854Y-56315500D01*
X60959035Y-56321413D01*
X60801697Y-56354855D01*
X60801692Y-56354857D01*
X60689569Y-56404779D01*
X60639133Y-56415500D01*
X60503298Y-56415500D01*
X60466432Y-56418401D01*
X60466426Y-56418402D01*
X60308606Y-56464254D01*
X60308603Y-56464255D01*
X60167137Y-56547917D01*
X60167133Y-56547920D01*
X60050920Y-56664134D01*
X60050914Y-56664142D01*
X60050730Y-56664454D01*
X60050521Y-56664648D01*
X60046137Y-56670301D01*
X60045225Y-56669593D01*
X59999659Y-56712136D01*
X59930917Y-56724638D01*
X59866329Y-56697990D01*
X59842144Y-56670078D01*
X59841861Y-56670298D01*
X59837820Y-56665088D01*
X59837267Y-56664450D01*
X59837081Y-56664135D01*
X59837078Y-56664132D01*
X59837076Y-56664129D01*
X59720870Y-56547923D01*
X59720862Y-56547917D01*
X59579396Y-56464255D01*
X59579393Y-56464254D01*
X59421573Y-56418402D01*
X59421567Y-56418401D01*
X59384701Y-56415500D01*
X59384694Y-56415500D01*
X58228306Y-56415500D01*
X58228298Y-56415500D01*
X58191432Y-56418401D01*
X58191426Y-56418402D01*
X58033606Y-56464254D01*
X58033603Y-56464255D01*
X57892137Y-56547917D01*
X57892129Y-56547923D01*
X57775923Y-56664129D01*
X57775917Y-56664137D01*
X57692255Y-56805603D01*
X57692254Y-56805606D01*
X57646402Y-56963426D01*
X57646401Y-56963432D01*
X57643500Y-57000298D01*
X57643500Y-57431701D01*
X57646401Y-57468567D01*
X57646402Y-57468573D01*
X57692254Y-57626393D01*
X57692255Y-57626396D01*
X57692256Y-57626398D01*
X57724792Y-57681413D01*
X57775917Y-57767862D01*
X57775923Y-57767870D01*
X57892129Y-57884076D01*
X57892133Y-57884079D01*
X57892135Y-57884081D01*
X58033602Y-57967744D01*
X58046692Y-57971547D01*
X58191426Y-58013597D01*
X58191429Y-58013597D01*
X58191431Y-58013598D01*
X58228306Y-58016500D01*
X58228314Y-58016500D01*
X59344500Y-58016500D01*
X59411539Y-58036185D01*
X59457294Y-58088989D01*
X59468500Y-58140500D01*
X59468500Y-58191500D01*
X59448815Y-58258539D01*
X59396011Y-58304294D01*
X59344500Y-58315500D01*
X58228298Y-58315500D01*
X58191432Y-58318401D01*
X58191426Y-58318402D01*
X58033606Y-58364254D01*
X58033603Y-58364255D01*
X57892137Y-58447917D01*
X57892129Y-58447923D01*
X57775923Y-58564129D01*
X57775917Y-58564137D01*
X57692255Y-58705603D01*
X57692254Y-58705606D01*
X57646402Y-58863426D01*
X57646401Y-58863432D01*
X57643500Y-58900298D01*
X57643500Y-59331701D01*
X57646401Y-59368567D01*
X57646402Y-59368573D01*
X57659573Y-59413905D01*
X57659374Y-59483774D01*
X57621432Y-59542444D01*
X57557794Y-59571288D01*
X57540497Y-59572500D01*
X56724738Y-59572500D01*
X56709121Y-59570776D01*
X56709094Y-59571062D01*
X56701332Y-59570327D01*
X56634145Y-59572439D01*
X56630251Y-59572500D01*
X56602650Y-59572500D01*
X56598962Y-59572965D01*
X56598649Y-59573005D01*
X56587031Y-59573918D01*
X56543373Y-59575290D01*
X56543372Y-59575290D01*
X56524129Y-59580881D01*
X56505079Y-59584825D01*
X56485211Y-59587334D01*
X56485210Y-59587334D01*
X56444599Y-59603413D01*
X56433554Y-59607194D01*
X56391614Y-59619379D01*
X56391610Y-59619381D01*
X56374366Y-59629579D01*
X56356905Y-59638133D01*
X56338274Y-59645510D01*
X56338262Y-59645517D01*
X56302933Y-59671185D01*
X56293173Y-59677596D01*
X56255580Y-59699829D01*
X56241414Y-59713995D01*
X56226624Y-59726627D01*
X56210414Y-59738404D01*
X56210411Y-59738407D01*
X56182573Y-59772058D01*
X56174711Y-59780697D01*
X55913227Y-60042181D01*
X55851904Y-60075666D01*
X55825546Y-60078500D01*
X54660343Y-60078500D01*
X54660340Y-60078501D01*
X54617298Y-60081418D01*
X54617297Y-60081418D01*
X54431221Y-60127694D01*
X54431220Y-60127694D01*
X54281094Y-60202150D01*
X54212289Y-60214302D01*
X54147837Y-60187325D01*
X54108202Y-60129786D01*
X54102000Y-60091062D01*
X54102000Y-36700000D01*
X54121685Y-36632961D01*
X54174489Y-36587206D01*
X54226000Y-36576000D01*
X61172007Y-36576000D01*
X61239046Y-36595685D01*
G37*
%TD.AperFunction*%
%TA.AperFunction,Conductor*%
G36*
X82065587Y-56398185D02*
G01*
X82086229Y-56414819D01*
X83352822Y-57681413D01*
X83386307Y-57742736D01*
X83381323Y-57812428D01*
X83339451Y-57868361D01*
X83304147Y-57886799D01*
X83261309Y-57900994D01*
X83261300Y-57900998D01*
X83123097Y-57986244D01*
X83055705Y-58004684D01*
X82992903Y-57986244D01*
X82854699Y-57900998D01*
X82854694Y-57900996D01*
X82693709Y-57847651D01*
X82594346Y-57837500D01*
X81997662Y-57837500D01*
X81997644Y-57837501D01*
X81898292Y-57847650D01*
X81898289Y-57847651D01*
X81737305Y-57900996D01*
X81737294Y-57901001D01*
X81592959Y-57990029D01*
X81592955Y-57990032D01*
X81473032Y-58109955D01*
X81473029Y-58109959D01*
X81384001Y-58254294D01*
X81383996Y-58254305D01*
X81330651Y-58415290D01*
X81320500Y-58514647D01*
X81320500Y-59061337D01*
X81320501Y-59061355D01*
X81330650Y-59160707D01*
X81330651Y-59160710D01*
X81383996Y-59321694D01*
X81384001Y-59321705D01*
X81473029Y-59466040D01*
X81473032Y-59466044D01*
X81482307Y-59475319D01*
X81515792Y-59536642D01*
X81510808Y-59606334D01*
X81482307Y-59650681D01*
X81473032Y-59659955D01*
X81473029Y-59659959D01*
X81384001Y-59804294D01*
X81380947Y-59810846D01*
X81378606Y-59809754D01*
X81345708Y-59857271D01*
X81281192Y-59884094D01*
X81212416Y-59871779D01*
X81180094Y-59848503D01*
X81018803Y-59687212D01*
X81008980Y-59674950D01*
X81008759Y-59675134D01*
X81003786Y-59669122D01*
X80954776Y-59623099D01*
X80951977Y-59620386D01*
X80932477Y-59600885D01*
X80932471Y-59600880D01*
X80929286Y-59598409D01*
X80920434Y-59590848D01*
X80888582Y-59560938D01*
X80888580Y-59560936D01*
X80888577Y-59560935D01*
X80871029Y-59551288D01*
X80854763Y-59540604D01*
X80849655Y-59536642D01*
X80838936Y-59528327D01*
X80838935Y-59528326D01*
X80838932Y-59528324D01*
X80798849Y-59510978D01*
X80788363Y-59505841D01*
X80750094Y-59484803D01*
X80750092Y-59484802D01*
X80730693Y-59479822D01*
X80712281Y-59473518D01*
X80693898Y-59465562D01*
X80693892Y-59465560D01*
X80650760Y-59458729D01*
X80639322Y-59456361D01*
X80597020Y-59445500D01*
X80597019Y-59445500D01*
X80576984Y-59445500D01*
X80557586Y-59443973D01*
X80550162Y-59442797D01*
X80537805Y-59440840D01*
X80537804Y-59440840D01*
X80494325Y-59444950D01*
X80482656Y-59445500D01*
X68484451Y-59445500D01*
X68417412Y-59425815D01*
X68371657Y-59373011D01*
X68361713Y-59303853D01*
X68390738Y-59240297D01*
X68396769Y-59233820D01*
X68398478Y-59232111D01*
X68455784Y-59174804D01*
X68468041Y-59164987D01*
X68467858Y-59164765D01*
X68473870Y-59159790D01*
X68473877Y-59159786D01*
X68519949Y-59110722D01*
X68522566Y-59108023D01*
X68542120Y-59088471D01*
X68544576Y-59085303D01*
X68552156Y-59076427D01*
X68582062Y-59044582D01*
X68591713Y-59027024D01*
X68602396Y-59010761D01*
X68614673Y-58994936D01*
X68632021Y-58954844D01*
X68637151Y-58944371D01*
X68658197Y-58906092D01*
X68663180Y-58886680D01*
X68669481Y-58868280D01*
X68677437Y-58849896D01*
X68684270Y-58806748D01*
X68686633Y-58795338D01*
X68697500Y-58753019D01*
X68697500Y-58732983D01*
X68699027Y-58713582D01*
X68702160Y-58693804D01*
X68698050Y-58650324D01*
X68697500Y-58638655D01*
X68697500Y-57486737D01*
X68699224Y-57471123D01*
X68698938Y-57471096D01*
X68699672Y-57463333D01*
X68697561Y-57396144D01*
X68697500Y-57392250D01*
X68697500Y-57364651D01*
X68697500Y-57364650D01*
X68696997Y-57360670D01*
X68696080Y-57349021D01*
X68694709Y-57305373D01*
X68689122Y-57286144D01*
X68685174Y-57267084D01*
X68682664Y-57247208D01*
X68666585Y-57206597D01*
X68662804Y-57195552D01*
X68650619Y-57153612D01*
X68640418Y-57136363D01*
X68631860Y-57118894D01*
X68624486Y-57100268D01*
X68624483Y-57100264D01*
X68624483Y-57100263D01*
X68598816Y-57064935D01*
X68592403Y-57055172D01*
X68570172Y-57017583D01*
X68570170Y-57017579D01*
X68570166Y-57017575D01*
X68570163Y-57017571D01*
X68556005Y-57003413D01*
X68543370Y-56988620D01*
X68531593Y-56972412D01*
X68497945Y-56944576D01*
X68489304Y-56936713D01*
X68142772Y-56590181D01*
X68109287Y-56528858D01*
X68114271Y-56459166D01*
X68156143Y-56403233D01*
X68221607Y-56378816D01*
X68230453Y-56378500D01*
X81998548Y-56378500D01*
X82065587Y-56398185D01*
G37*
%TD.AperFunction*%
%TA.AperFunction,Conductor*%
G36*
X62405920Y-57844697D02*
G01*
X62454863Y-57874810D01*
X62464129Y-57884076D01*
X62464133Y-57884079D01*
X62464135Y-57884081D01*
X62605602Y-57967744D01*
X62618692Y-57971547D01*
X62763426Y-58013597D01*
X62763429Y-58013597D01*
X62763431Y-58013598D01*
X62800306Y-58016500D01*
X62800314Y-58016500D01*
X63050679Y-58016500D01*
X63117718Y-58036185D01*
X63163473Y-58088989D01*
X63173417Y-58158147D01*
X63144392Y-58221703D01*
X63101115Y-58253779D01*
X62986569Y-58304779D01*
X62936133Y-58315500D01*
X62800298Y-58315500D01*
X62763432Y-58318401D01*
X62763426Y-58318402D01*
X62605606Y-58364254D01*
X62605603Y-58364255D01*
X62464137Y-58447917D01*
X62464127Y-58447925D01*
X62454860Y-58457192D01*
X62393536Y-58490675D01*
X62323845Y-58485688D01*
X62276126Y-58453680D01*
X62241295Y-58416000D01*
X61975815Y-58416000D01*
X61912694Y-58398732D01*
X61854396Y-58364255D01*
X61854393Y-58364254D01*
X61696573Y-58318402D01*
X61696567Y-58318401D01*
X61659701Y-58315500D01*
X61659694Y-58315500D01*
X61409321Y-58315500D01*
X61342282Y-58295815D01*
X61296527Y-58243011D01*
X61286583Y-58173853D01*
X61315608Y-58110297D01*
X61358885Y-58078221D01*
X61473431Y-58027221D01*
X61523867Y-58016500D01*
X61659686Y-58016500D01*
X61659694Y-58016500D01*
X61696569Y-58013598D01*
X61696571Y-58013597D01*
X61696573Y-58013597D01*
X61738191Y-58001505D01*
X61854398Y-57967744D01*
X61912694Y-57933268D01*
X61975815Y-57916000D01*
X62241295Y-57916000D01*
X62276126Y-57878320D01*
X62336087Y-57842453D01*
X62405920Y-57844697D01*
G37*
%TD.AperFunction*%
%TA.AperFunction,Conductor*%
G36*
X64421701Y-57857735D02*
G01*
X64469441Y-57889752D01*
X64493704Y-57916000D01*
X64759185Y-57916000D01*
X64822306Y-57933268D01*
X64880602Y-57967744D01*
X64893692Y-57971547D01*
X65038426Y-58013597D01*
X65038429Y-58013597D01*
X65038431Y-58013598D01*
X65075306Y-58016500D01*
X65075314Y-58016500D01*
X65779500Y-58016500D01*
X65846539Y-58036185D01*
X65892294Y-58088989D01*
X65903500Y-58140500D01*
X65903500Y-58191500D01*
X65883815Y-58258539D01*
X65831011Y-58304294D01*
X65779500Y-58315500D01*
X65075298Y-58315500D01*
X65038432Y-58318401D01*
X65038426Y-58318402D01*
X64880606Y-58364254D01*
X64880603Y-58364255D01*
X64822306Y-58398732D01*
X64759185Y-58416000D01*
X64493704Y-58416000D01*
X64469440Y-58442248D01*
X64409479Y-58478114D01*
X64339645Y-58475869D01*
X64299987Y-58451468D01*
X64299031Y-58452702D01*
X64292862Y-58447917D01*
X64151396Y-58364255D01*
X64151393Y-58364254D01*
X63993573Y-58318402D01*
X63993567Y-58318401D01*
X63956701Y-58315500D01*
X63956694Y-58315500D01*
X63820867Y-58315500D01*
X63770431Y-58304779D01*
X63655885Y-58253779D01*
X63602648Y-58208529D01*
X63582327Y-58141680D01*
X63601372Y-58074456D01*
X63653739Y-58028201D01*
X63706321Y-58016500D01*
X63956686Y-58016500D01*
X63956694Y-58016500D01*
X63993569Y-58013598D01*
X63993571Y-58013597D01*
X63993573Y-58013597D01*
X64035191Y-58001505D01*
X64151398Y-57967744D01*
X64292865Y-57884081D01*
X64292870Y-57884075D01*
X64299031Y-57879298D01*
X64300339Y-57880984D01*
X64352009Y-57852761D01*
X64421701Y-57857735D01*
G37*
%TD.AperFunction*%
%TA.AperFunction,Conductor*%
G36*
X67340587Y-57561185D02*
G01*
X67361229Y-57577819D01*
X67410181Y-57626771D01*
X67443666Y-57688094D01*
X67446500Y-57714452D01*
X67446500Y-58037263D01*
X67426815Y-58104302D01*
X67374011Y-58150057D01*
X67304853Y-58160001D01*
X67296720Y-58158554D01*
X67277646Y-58154500D01*
X67088354Y-58154500D01*
X67088352Y-58154500D01*
X66965780Y-58180553D01*
X66896113Y-58175237D01*
X66840380Y-58133099D01*
X66816275Y-58067519D01*
X66816000Y-58059263D01*
X66816000Y-57950365D01*
X66815999Y-57950350D01*
X66813100Y-57913510D01*
X66813099Y-57913504D01*
X66767283Y-57755806D01*
X66767281Y-57755801D01*
X66766578Y-57754612D01*
X66766310Y-57753558D01*
X66764184Y-57748644D01*
X66764976Y-57748300D01*
X66749395Y-57686888D01*
X66765009Y-57633714D01*
X66764646Y-57633557D01*
X66765920Y-57630612D01*
X66766579Y-57628369D01*
X66767742Y-57626401D01*
X66767744Y-57626398D01*
X66767745Y-57626393D01*
X66770843Y-57619237D01*
X66773228Y-57620269D01*
X66804035Y-57572025D01*
X66867505Y-57542814D01*
X66885511Y-57541500D01*
X67273548Y-57541500D01*
X67340587Y-57561185D01*
G37*
%TD.AperFunction*%
%TA.AperFunction,Conductor*%
G36*
X77044047Y-39507185D02*
G01*
X77089802Y-39559989D01*
X77099266Y-39625814D01*
X77099789Y-39625850D01*
X77099623Y-39628293D01*
X77099746Y-39629147D01*
X77099509Y-39630721D01*
X77099420Y-39631286D01*
X77099419Y-39631294D01*
X77099419Y-39631296D01*
X77096500Y-39674343D01*
X77096500Y-39674345D01*
X77096500Y-40589656D01*
X77096501Y-40589659D01*
X77099418Y-40632701D01*
X77099419Y-40632708D01*
X77117807Y-40706650D01*
X77114883Y-40776458D01*
X77085153Y-40824255D01*
X76015680Y-41893727D01*
X75954357Y-41927212D01*
X75884665Y-41922228D01*
X75828732Y-41880356D01*
X75804315Y-41814892D01*
X75803999Y-41806046D01*
X75803999Y-41690028D01*
X75803998Y-41690013D01*
X75793505Y-41587302D01*
X75738357Y-41420878D01*
X75733899Y-41413652D01*
X74804000Y-42343553D01*
X74227651Y-42919900D01*
X74233700Y-42971668D01*
X74221928Y-43040539D01*
X74175635Y-43091595D01*
X74085347Y-43147285D01*
X74085343Y-43147288D01*
X73961289Y-43271342D01*
X73869187Y-43420663D01*
X73869186Y-43420666D01*
X73814001Y-43587203D01*
X73814001Y-43587204D01*
X73814000Y-43587204D01*
X73803500Y-43689983D01*
X73803500Y-44290001D01*
X73803501Y-44290019D01*
X73814000Y-44392796D01*
X73814001Y-44392799D01*
X73869185Y-44559331D01*
X73869187Y-44559336D01*
X73870913Y-44562134D01*
X73961288Y-44708656D01*
X74085344Y-44832712D01*
X74169243Y-44884461D01*
X74215967Y-44936409D01*
X74227190Y-45005372D01*
X74199346Y-45069454D01*
X74169243Y-45095539D01*
X74085342Y-45147289D01*
X73961289Y-45271342D01*
X73869187Y-45420663D01*
X73869185Y-45420668D01*
X73841349Y-45504670D01*
X73814001Y-45587203D01*
X73814001Y-45587204D01*
X73814000Y-45587204D01*
X73803500Y-45689983D01*
X73803500Y-46290001D01*
X73803501Y-46290019D01*
X73814000Y-46392796D01*
X73814001Y-46392799D01*
X73855141Y-46516950D01*
X73869186Y-46559334D01*
X73961288Y-46708656D01*
X74085344Y-46832712D01*
X74175298Y-46888196D01*
X74175636Y-46888404D01*
X74222361Y-46940352D01*
X74233702Y-47008338D01*
X74227652Y-47060099D01*
X74804000Y-47636447D01*
X74804001Y-47636447D01*
X75380346Y-47060099D01*
X75374297Y-47008336D01*
X75386067Y-46939465D01*
X75432361Y-46888405D01*
X75522656Y-46832712D01*
X75646712Y-46708656D01*
X75738814Y-46559334D01*
X75793999Y-46392797D01*
X75804500Y-46290009D01*
X75804499Y-45842551D01*
X75824183Y-45775513D01*
X75876987Y-45729758D01*
X75946146Y-45719814D01*
X75995167Y-45739712D01*
X75995637Y-45738899D01*
X76001270Y-45742151D01*
X76174192Y-45819142D01*
X76174197Y-45819144D01*
X76359354Y-45858500D01*
X76359355Y-45858500D01*
X76548644Y-45858500D01*
X76548646Y-45858500D01*
X76733803Y-45819144D01*
X76906730Y-45742151D01*
X77059871Y-45630888D01*
X77062788Y-45627647D01*
X77065600Y-45624526D01*
X77125087Y-45587879D01*
X77157748Y-45583500D01*
X77159548Y-45583500D01*
X77226587Y-45603185D01*
X77247229Y-45619819D01*
X78840181Y-47212771D01*
X78873666Y-47274094D01*
X78876500Y-47300452D01*
X78876500Y-49473547D01*
X78856815Y-49540586D01*
X78840181Y-49561228D01*
X78766228Y-49635181D01*
X78704905Y-49668666D01*
X78678547Y-49671500D01*
X78619354Y-49671500D01*
X78586897Y-49678398D01*
X78434197Y-49710855D01*
X78434192Y-49710857D01*
X78261270Y-49787848D01*
X78261265Y-49787851D01*
X78108129Y-49899111D01*
X77981466Y-50039785D01*
X77886821Y-50203715D01*
X77886818Y-50203722D01*
X77832551Y-50370740D01*
X77828326Y-50383744D01*
X77808540Y-50572000D01*
X77828326Y-50760256D01*
X77828327Y-50760259D01*
X77886818Y-50940277D01*
X77886821Y-50940284D01*
X77981467Y-51104216D01*
X78096424Y-51231888D01*
X78108129Y-51244888D01*
X78261265Y-51356148D01*
X78261270Y-51356151D01*
X78434192Y-51433142D01*
X78434197Y-51433144D01*
X78619354Y-51472500D01*
X78619355Y-51472500D01*
X78808644Y-51472500D01*
X78808646Y-51472500D01*
X78993803Y-51433144D01*
X79166730Y-51356151D01*
X79319871Y-51244888D01*
X79446533Y-51104216D01*
X79541179Y-50940284D01*
X79599674Y-50760256D01*
X79617321Y-50592344D01*
X79643904Y-50527734D01*
X79652951Y-50517638D01*
X79885788Y-50284801D01*
X79898042Y-50274986D01*
X79897859Y-50274764D01*
X79903868Y-50269791D01*
X79903877Y-50269786D01*
X79949949Y-50220722D01*
X79952566Y-50218023D01*
X79972120Y-50198471D01*
X79974576Y-50195303D01*
X79982156Y-50186427D01*
X80012062Y-50154582D01*
X80021713Y-50137024D01*
X80032396Y-50120761D01*
X80044673Y-50104936D01*
X80062021Y-50064844D01*
X80067151Y-50054371D01*
X80088197Y-50016092D01*
X80093180Y-49996680D01*
X80099481Y-49978280D01*
X80107437Y-49959896D01*
X80114270Y-49916748D01*
X80116633Y-49905338D01*
X80127500Y-49863019D01*
X80127500Y-49842983D01*
X80129027Y-49823582D01*
X80132160Y-49803804D01*
X80128050Y-49760324D01*
X80127500Y-49748655D01*
X80127500Y-47228992D01*
X80147185Y-47161953D01*
X80199989Y-47116198D01*
X80265814Y-47106733D01*
X80265850Y-47106211D01*
X80268293Y-47106376D01*
X80269147Y-47106254D01*
X80270721Y-47106491D01*
X80271286Y-47106579D01*
X80271288Y-47106579D01*
X80271296Y-47106581D01*
X80314343Y-47109500D01*
X80403500Y-47109499D01*
X80470538Y-47129183D01*
X80516294Y-47181986D01*
X80527500Y-47233499D01*
X80527500Y-47669255D01*
X80525775Y-47684872D01*
X80526061Y-47684899D01*
X80525326Y-47692665D01*
X80527439Y-47759872D01*
X80527500Y-47763767D01*
X80527500Y-47791357D01*
X80528003Y-47795335D01*
X80528918Y-47806967D01*
X80530290Y-47850624D01*
X80530291Y-47850627D01*
X80535880Y-47869867D01*
X80539824Y-47888911D01*
X80541518Y-47902318D01*
X80542336Y-47908792D01*
X80558414Y-47949403D01*
X80562197Y-47960452D01*
X80573687Y-48000001D01*
X80574382Y-48002390D01*
X80576145Y-48005372D01*
X80584580Y-48019634D01*
X80593136Y-48037100D01*
X80595707Y-48043591D01*
X80600514Y-48055732D01*
X80626181Y-48091060D01*
X80632593Y-48100821D01*
X80654828Y-48138417D01*
X80654833Y-48138424D01*
X80668990Y-48152580D01*
X80681628Y-48167376D01*
X80693405Y-48183586D01*
X80693406Y-48183587D01*
X80727057Y-48211425D01*
X80735698Y-48219288D01*
X81890197Y-49373788D01*
X81900022Y-49386051D01*
X81900243Y-49385869D01*
X81905211Y-49391874D01*
X81954222Y-49437899D01*
X81957021Y-49440612D01*
X81976522Y-49460114D01*
X81976526Y-49460117D01*
X81976529Y-49460120D01*
X81979702Y-49462581D01*
X81988574Y-49470159D01*
X82020418Y-49500062D01*
X82037976Y-49509714D01*
X82054235Y-49520395D01*
X82070064Y-49532673D01*
X82110155Y-49550021D01*
X82120626Y-49555151D01*
X82131680Y-49561228D01*
X82158902Y-49576194D01*
X82158904Y-49576195D01*
X82158908Y-49576197D01*
X82178316Y-49581180D01*
X82196719Y-49587481D01*
X82215101Y-49595436D01*
X82215102Y-49595436D01*
X82215104Y-49595437D01*
X82258250Y-49602270D01*
X82269672Y-49604636D01*
X82311981Y-49615500D01*
X82332016Y-49615500D01*
X82351414Y-49617026D01*
X82371194Y-49620159D01*
X82371195Y-49620160D01*
X82371195Y-49620159D01*
X82371196Y-49620160D01*
X82414675Y-49616050D01*
X82426344Y-49615500D01*
X82722622Y-49615500D01*
X82789661Y-49635185D01*
X82828159Y-49674401D01*
X82849288Y-49708656D01*
X82973344Y-49832712D01*
X83057243Y-49884461D01*
X83103967Y-49936409D01*
X83115190Y-50005372D01*
X83087346Y-50069454D01*
X83057243Y-50095539D01*
X82973342Y-50147289D01*
X82849289Y-50271342D01*
X82757187Y-50420663D01*
X82757186Y-50420666D01*
X82702001Y-50587203D01*
X82702001Y-50587204D01*
X82702000Y-50587204D01*
X82691500Y-50689983D01*
X82691500Y-51290001D01*
X82691501Y-51290019D01*
X82702000Y-51392796D01*
X82702001Y-51392799D01*
X82724009Y-51459214D01*
X82757186Y-51559334D01*
X82849288Y-51708656D01*
X82973344Y-51832712D01*
X83122666Y-51924814D01*
X83289203Y-51979999D01*
X83391991Y-51990500D01*
X83992008Y-51990499D01*
X83992016Y-51990498D01*
X83992019Y-51990498D01*
X84048302Y-51984748D01*
X84094797Y-51979999D01*
X84261334Y-51924814D01*
X84410656Y-51832712D01*
X84534712Y-51708656D01*
X84626814Y-51559334D01*
X84681999Y-51392797D01*
X84692500Y-51290009D01*
X84692499Y-51174449D01*
X84712183Y-51107412D01*
X84764987Y-51061657D01*
X84834145Y-51051713D01*
X84897701Y-51080737D01*
X84904180Y-51086770D01*
X84961474Y-51144064D01*
X84991724Y-51193426D01*
X85024819Y-51295280D01*
X85024821Y-51295284D01*
X85119467Y-51459216D01*
X85152425Y-51495819D01*
X85246129Y-51599888D01*
X85399265Y-51711148D01*
X85399270Y-51711151D01*
X85572192Y-51788142D01*
X85572197Y-51788144D01*
X85757354Y-51827500D01*
X85757355Y-51827500D01*
X85946644Y-51827500D01*
X85946646Y-51827500D01*
X86092720Y-51796451D01*
X86162386Y-51801767D01*
X86218120Y-51843904D01*
X86242225Y-51909484D01*
X86242500Y-51917741D01*
X86242500Y-57872995D01*
X86222815Y-57940034D01*
X86183596Y-57978534D01*
X86171096Y-57986244D01*
X86103704Y-58004684D01*
X86040903Y-57986244D01*
X85902699Y-57900998D01*
X85902694Y-57900996D01*
X85741709Y-57847651D01*
X85642352Y-57837500D01*
X85642345Y-57837500D01*
X85329453Y-57837500D01*
X85262414Y-57817815D01*
X85241772Y-57801181D01*
X82809803Y-55369212D01*
X82799980Y-55356950D01*
X82799759Y-55357134D01*
X82794786Y-55351122D01*
X82745776Y-55305099D01*
X82742977Y-55302386D01*
X82723477Y-55282885D01*
X82723471Y-55282880D01*
X82720286Y-55280409D01*
X82711434Y-55272848D01*
X82679582Y-55242938D01*
X82679580Y-55242936D01*
X82679577Y-55242935D01*
X82662029Y-55233288D01*
X82645763Y-55222604D01*
X82629932Y-55210324D01*
X82589849Y-55192978D01*
X82579363Y-55187841D01*
X82541094Y-55166803D01*
X82541092Y-55166802D01*
X82521693Y-55161822D01*
X82503281Y-55155518D01*
X82484898Y-55147562D01*
X82484892Y-55147560D01*
X82441760Y-55140729D01*
X82430322Y-55138361D01*
X82388020Y-55127500D01*
X82388019Y-55127500D01*
X82367984Y-55127500D01*
X82348586Y-55125973D01*
X82341162Y-55124797D01*
X82328805Y-55122840D01*
X82328804Y-55122840D01*
X82285325Y-55126950D01*
X82273656Y-55127500D01*
X66858453Y-55127500D01*
X66791414Y-55107815D01*
X66770772Y-55091181D01*
X64923819Y-53244228D01*
X64890334Y-53182905D01*
X64887500Y-53156547D01*
X64887500Y-52105696D01*
X64907185Y-52038657D01*
X64959989Y-51992902D01*
X65024101Y-51982338D01*
X65103991Y-51990500D01*
X65704008Y-51990499D01*
X65704016Y-51990498D01*
X65704019Y-51990498D01*
X65760302Y-51984748D01*
X65806797Y-51979999D01*
X65973334Y-51924814D01*
X66122656Y-51832712D01*
X66246712Y-51708656D01*
X66338814Y-51559334D01*
X66393999Y-51392797D01*
X66404500Y-51290009D01*
X66404499Y-51174449D01*
X66424183Y-51107412D01*
X66476987Y-51061657D01*
X66546145Y-51051713D01*
X66609701Y-51080737D01*
X66616179Y-51086769D01*
X68238065Y-52708656D01*
X69761197Y-54231788D01*
X69771022Y-54244051D01*
X69771243Y-54243869D01*
X69776211Y-54249874D01*
X69824028Y-54294778D01*
X69846531Y-54323170D01*
X69879466Y-54380214D01*
X69879465Y-54380214D01*
X70006129Y-54520888D01*
X70159265Y-54632148D01*
X70159270Y-54632151D01*
X70332192Y-54709142D01*
X70332197Y-54709144D01*
X70517354Y-54748500D01*
X70517355Y-54748500D01*
X70706644Y-54748500D01*
X70706646Y-54748500D01*
X70891803Y-54709144D01*
X71064730Y-54632151D01*
X71217871Y-54520888D01*
X71344533Y-54380216D01*
X71439179Y-54216284D01*
X71497674Y-54036256D01*
X71517460Y-53848000D01*
X71497674Y-53659744D01*
X71439179Y-53479716D01*
X71344533Y-53315784D01*
X71217871Y-53175112D01*
X71217870Y-53175111D01*
X71064734Y-53063851D01*
X71064729Y-53063848D01*
X70891807Y-52986857D01*
X70891802Y-52986855D01*
X70746001Y-52955865D01*
X70706646Y-52947500D01*
X70517354Y-52947500D01*
X70445637Y-52962743D01*
X70359497Y-52981053D01*
X70289829Y-52975737D01*
X70246035Y-52947444D01*
X67857591Y-50559000D01*
X72119540Y-50559000D01*
X72139326Y-50747256D01*
X72139327Y-50747259D01*
X72197818Y-50927277D01*
X72197821Y-50927284D01*
X72292467Y-51091216D01*
X72384498Y-51193426D01*
X72419129Y-51231888D01*
X72572265Y-51343148D01*
X72572270Y-51343151D01*
X72745192Y-51420142D01*
X72745197Y-51420144D01*
X72930354Y-51459500D01*
X73024903Y-51459500D01*
X73091942Y-51479185D01*
X73112584Y-51495819D01*
X73767181Y-52150416D01*
X73800666Y-52211739D01*
X73803500Y-52238095D01*
X73803500Y-52290000D01*
X73803501Y-52290019D01*
X73814000Y-52392796D01*
X73814001Y-52392799D01*
X73869185Y-52559331D01*
X73869186Y-52559334D01*
X73961288Y-52708656D01*
X74085344Y-52832712D01*
X74234666Y-52924814D01*
X74401203Y-52979999D01*
X74503991Y-52990500D01*
X74541364Y-52990499D01*
X74608402Y-53010182D01*
X74654158Y-53062985D01*
X74664103Y-53132143D01*
X74648753Y-53176498D01*
X74597820Y-53264718D01*
X74597818Y-53264722D01*
X74544183Y-53429796D01*
X74539326Y-53444744D01*
X74519540Y-53633000D01*
X74539326Y-53821256D01*
X74539327Y-53821259D01*
X74597818Y-54001277D01*
X74597821Y-54001284D01*
X74692467Y-54165216D01*
X74811330Y-54297226D01*
X74819129Y-54305888D01*
X74972265Y-54417148D01*
X74972270Y-54417151D01*
X75145192Y-54494142D01*
X75145197Y-54494144D01*
X75330354Y-54533500D01*
X75330355Y-54533500D01*
X75519644Y-54533500D01*
X75519646Y-54533500D01*
X75704803Y-54494144D01*
X75877730Y-54417151D01*
X76030871Y-54305888D01*
X76157533Y-54165216D01*
X76252179Y-54001284D01*
X76310674Y-53821256D01*
X76330460Y-53633000D01*
X76310674Y-53444744D01*
X76252179Y-53264716D01*
X76252178Y-53264714D01*
X76221113Y-53210907D01*
X76204500Y-53148907D01*
X76204500Y-50837487D01*
X76205561Y-50821301D01*
X76209682Y-50789999D01*
X76209682Y-50789998D01*
X76189044Y-50633239D01*
X76189042Y-50633234D01*
X76128538Y-50487163D01*
X76128535Y-50487158D01*
X76113379Y-50467406D01*
X76032281Y-50361717D01*
X76007228Y-50342493D01*
X75995034Y-50331799D01*
X75840818Y-50177583D01*
X75807333Y-50116260D01*
X75804499Y-50089902D01*
X75804499Y-49689998D01*
X75804498Y-49689981D01*
X75793999Y-49587203D01*
X75793998Y-49587200D01*
X75781675Y-49550013D01*
X75738814Y-49420666D01*
X75646712Y-49271344D01*
X75522656Y-49147288D01*
X75522655Y-49147287D01*
X75432366Y-49091597D01*
X75385641Y-49039649D01*
X75374299Y-48971671D01*
X75380346Y-48919898D01*
X74804001Y-48343553D01*
X74804000Y-48343553D01*
X74227651Y-48919900D01*
X74233700Y-48971668D01*
X74221928Y-49040539D01*
X74175635Y-49091595D01*
X74085347Y-49147285D01*
X74085343Y-49147288D01*
X73961289Y-49271342D01*
X73869187Y-49420663D01*
X73869185Y-49420668D01*
X73856114Y-49460114D01*
X73814001Y-49587203D01*
X73814001Y-49587204D01*
X73814000Y-49587204D01*
X73803500Y-49689983D01*
X73803500Y-49768170D01*
X73783815Y-49835209D01*
X73731011Y-49880964D01*
X73661853Y-49890908D01*
X73606615Y-49868488D01*
X73477734Y-49774851D01*
X73477729Y-49774848D01*
X73304807Y-49697857D01*
X73304802Y-49697855D01*
X73159001Y-49666865D01*
X73119646Y-49658500D01*
X72930354Y-49658500D01*
X72897897Y-49665398D01*
X72745197Y-49697855D01*
X72745192Y-49697857D01*
X72572270Y-49774848D01*
X72572265Y-49774851D01*
X72419129Y-49886111D01*
X72292466Y-50026785D01*
X72197821Y-50190715D01*
X72197818Y-50190722D01*
X72139327Y-50370740D01*
X72139326Y-50370744D01*
X72119540Y-50559000D01*
X67857591Y-50559000D01*
X66440818Y-49142227D01*
X66407333Y-49080904D01*
X66404499Y-49054546D01*
X66404499Y-48689998D01*
X66404498Y-48689981D01*
X66393999Y-48587203D01*
X66393998Y-48587200D01*
X66362402Y-48491851D01*
X66338814Y-48420666D01*
X66258201Y-48289971D01*
X73804000Y-48289971D01*
X73804001Y-48289987D01*
X73814494Y-48392697D01*
X73869641Y-48559120D01*
X73869644Y-48559126D01*
X73874098Y-48566346D01*
X73874099Y-48566346D01*
X74450447Y-47990000D01*
X75157553Y-47990000D01*
X75733899Y-48566347D01*
X75733900Y-48566346D01*
X75738357Y-48559122D01*
X75738358Y-48559120D01*
X75793505Y-48392697D01*
X75793506Y-48392690D01*
X75803999Y-48289986D01*
X75803999Y-47690028D01*
X75803998Y-47690012D01*
X75793505Y-47587302D01*
X75738357Y-47420878D01*
X75733899Y-47413652D01*
X75157553Y-47989999D01*
X75157553Y-47990000D01*
X74450447Y-47990000D01*
X73874099Y-47413652D01*
X73869643Y-47420875D01*
X73869641Y-47420880D01*
X73814494Y-47587302D01*
X73814493Y-47587309D01*
X73804000Y-47690013D01*
X73804000Y-48289971D01*
X66258201Y-48289971D01*
X66246712Y-48271344D01*
X66122656Y-48147288D01*
X66122655Y-48147287D01*
X66038757Y-48095539D01*
X65992032Y-48043591D01*
X65980809Y-47974629D01*
X66008653Y-47910546D01*
X66038757Y-47884461D01*
X66062432Y-47869858D01*
X66122656Y-47832712D01*
X66246712Y-47708656D01*
X66338814Y-47559334D01*
X66393999Y-47392797D01*
X66404500Y-47290009D01*
X66404499Y-46925450D01*
X66424183Y-46858412D01*
X66440813Y-46837775D01*
X67185786Y-46092802D01*
X67198048Y-46082980D01*
X67197865Y-46082759D01*
X67203868Y-46077791D01*
X67203877Y-46077786D01*
X67249934Y-46028739D01*
X67252582Y-46026006D01*
X67272120Y-46006470D01*
X67274570Y-46003310D01*
X67282154Y-45994429D01*
X67312062Y-45962582D01*
X67321714Y-45945023D01*
X67332389Y-45928772D01*
X67344674Y-45912936D01*
X67362030Y-45872825D01*
X67367161Y-45862354D01*
X67388194Y-45824098D01*
X67388194Y-45824097D01*
X67388197Y-45824092D01*
X67393180Y-45804680D01*
X67399477Y-45786291D01*
X67407438Y-45767895D01*
X67414270Y-45724748D01*
X67416639Y-45713316D01*
X67427499Y-45671022D01*
X67427500Y-45671017D01*
X67427500Y-45650983D01*
X67429027Y-45631582D01*
X67429137Y-45630888D01*
X67432160Y-45611804D01*
X67428050Y-45568324D01*
X67427500Y-45556655D01*
X67427500Y-42347452D01*
X67444378Y-42289971D01*
X73804000Y-42289971D01*
X73804001Y-42289987D01*
X73814494Y-42392697D01*
X73869641Y-42559120D01*
X73869644Y-42559126D01*
X73874098Y-42566346D01*
X73874099Y-42566346D01*
X74450447Y-41990000D01*
X73874099Y-41413652D01*
X73869643Y-41420875D01*
X73869641Y-41420880D01*
X73814494Y-41587302D01*
X73814493Y-41587309D01*
X73804000Y-41690013D01*
X73804000Y-42289971D01*
X67444378Y-42289971D01*
X67447185Y-42280413D01*
X67463819Y-42259771D01*
X68663491Y-41060099D01*
X74227652Y-41060099D01*
X74804000Y-41636447D01*
X74804001Y-41636447D01*
X75380346Y-41060099D01*
X75380346Y-41060098D01*
X75373126Y-41055644D01*
X75373120Y-41055641D01*
X75206697Y-41000494D01*
X75206690Y-41000493D01*
X75103980Y-40990000D01*
X74504028Y-40990000D01*
X74504012Y-40990001D01*
X74401302Y-41000494D01*
X74234880Y-41055641D01*
X74234875Y-41055643D01*
X74227652Y-41060099D01*
X68663491Y-41060099D01*
X70199772Y-39523819D01*
X70261095Y-39490334D01*
X70287453Y-39487500D01*
X76977008Y-39487500D01*
X77044047Y-39507185D01*
G37*
%TD.AperFunction*%
%TA.AperFunction,Conductor*%
G36*
X90738381Y-49971594D02*
G01*
X90853436Y-50055186D01*
X90860270Y-50060151D01*
X91033192Y-50137142D01*
X91033193Y-50137142D01*
X91033197Y-50137144D01*
X91218354Y-50176500D01*
X91218357Y-50176500D01*
X91224280Y-50177759D01*
X91285762Y-50210951D01*
X91319539Y-50272114D01*
X91322500Y-50299049D01*
X91322500Y-57713500D01*
X91302815Y-57780539D01*
X91250011Y-57826294D01*
X91198502Y-57837500D01*
X91141663Y-57837500D01*
X91141644Y-57837501D01*
X91042292Y-57847650D01*
X91042289Y-57847651D01*
X90881305Y-57900996D01*
X90881300Y-57900998D01*
X90743096Y-57986244D01*
X90675703Y-58004684D01*
X90612900Y-57986242D01*
X90600399Y-57978531D01*
X90553677Y-57926582D01*
X90541500Y-57872995D01*
X90541500Y-50071914D01*
X90561185Y-50004875D01*
X90613989Y-49959120D01*
X90683147Y-49949176D01*
X90738381Y-49971594D01*
G37*
%TD.AperFunction*%
%TA.AperFunction,Conductor*%
G36*
X60378834Y-39541269D02*
G01*
X60434767Y-39583141D01*
X60459184Y-39648605D01*
X60459500Y-39657451D01*
X60459500Y-40335656D01*
X60459501Y-40335659D01*
X60462418Y-40378701D01*
X60462418Y-40378702D01*
X60508694Y-40564778D01*
X60593881Y-40736543D01*
X60593883Y-40736546D01*
X60714009Y-40885989D01*
X60714010Y-40885990D01*
X60863453Y-41006116D01*
X60863456Y-41006118D01*
X61016975Y-41082256D01*
X61035225Y-41091307D01*
X61161869Y-41122802D01*
X61221291Y-41137580D01*
X61221292Y-41137580D01*
X61221296Y-41137581D01*
X61264343Y-41140500D01*
X62941656Y-41140499D01*
X62984704Y-41137581D01*
X63170775Y-41091307D01*
X63342547Y-41006116D01*
X63491990Y-40885990D01*
X63612116Y-40736547D01*
X63693522Y-40572405D01*
X63740943Y-40521093D01*
X63804610Y-40503500D01*
X64285239Y-40503500D01*
X64352278Y-40523185D01*
X64398033Y-40575989D01*
X64408597Y-40640104D01*
X64403500Y-40689986D01*
X64403500Y-41290001D01*
X64403501Y-41290019D01*
X64414000Y-41392796D01*
X64414001Y-41392799D01*
X64469185Y-41559331D01*
X64469187Y-41559336D01*
X64486437Y-41587302D01*
X64561288Y-41708656D01*
X64685344Y-41832712D01*
X64750689Y-41873017D01*
X64769243Y-41884461D01*
X64815967Y-41936409D01*
X64827190Y-42005372D01*
X64799346Y-42069454D01*
X64769243Y-42095539D01*
X64685342Y-42147289D01*
X64561289Y-42271342D01*
X64469187Y-42420663D01*
X64469186Y-42420666D01*
X64414001Y-42587203D01*
X64414001Y-42587204D01*
X64414000Y-42587204D01*
X64403500Y-42689983D01*
X64403500Y-43054546D01*
X64383815Y-43121585D01*
X64367181Y-43142227D01*
X63878208Y-43631199D01*
X63865951Y-43641020D01*
X63866134Y-43641241D01*
X63860122Y-43646214D01*
X63814098Y-43695223D01*
X63811391Y-43698016D01*
X63791889Y-43717517D01*
X63791875Y-43717534D01*
X63789407Y-43720715D01*
X63781843Y-43729570D01*
X63751937Y-43761418D01*
X63751936Y-43761420D01*
X63742284Y-43778976D01*
X63731610Y-43795226D01*
X63719329Y-43811061D01*
X63719324Y-43811068D01*
X63701975Y-43851158D01*
X63696838Y-43861644D01*
X63675803Y-43899906D01*
X63670822Y-43919307D01*
X63664521Y-43937710D01*
X63656562Y-43956102D01*
X63656561Y-43956105D01*
X63649728Y-43999243D01*
X63647360Y-44010674D01*
X63636501Y-44052971D01*
X63636500Y-44052982D01*
X63636500Y-44073016D01*
X63634973Y-44092415D01*
X63631840Y-44112194D01*
X63631840Y-44112195D01*
X63635950Y-44155674D01*
X63636500Y-44167343D01*
X63636500Y-45077402D01*
X63616815Y-45144441D01*
X63564011Y-45190196D01*
X63494853Y-45200140D01*
X63434813Y-45174050D01*
X63401521Y-45147289D01*
X63342547Y-45099884D01*
X63342544Y-45099882D01*
X63342541Y-45099880D01*
X63170778Y-45014694D01*
X63170776Y-45014693D01*
X63170775Y-45014693D01*
X63132939Y-45005283D01*
X62984708Y-44968419D01*
X62960105Y-44966751D01*
X62941657Y-44965500D01*
X62941654Y-44965500D01*
X61264343Y-44965500D01*
X61264340Y-44965501D01*
X61221298Y-44968418D01*
X61221297Y-44968418D01*
X61035221Y-45014694D01*
X60863456Y-45099881D01*
X60863453Y-45099883D01*
X60714010Y-45220009D01*
X60714009Y-45220010D01*
X60593883Y-45369453D01*
X60593881Y-45369456D01*
X60508694Y-45541221D01*
X60462419Y-45727291D01*
X60459500Y-45770345D01*
X60459500Y-46685656D01*
X60459501Y-46685659D01*
X60462418Y-46728701D01*
X60462418Y-46728702D01*
X60469328Y-46756487D01*
X60500731Y-46882761D01*
X60508694Y-46914778D01*
X60593881Y-47086543D01*
X60593883Y-47086546D01*
X60714009Y-47235989D01*
X60714010Y-47235990D01*
X60863453Y-47356116D01*
X60863456Y-47356118D01*
X61029959Y-47438695D01*
X61035225Y-47441307D01*
X61185013Y-47478558D01*
X61221291Y-47487580D01*
X61221292Y-47487580D01*
X61221296Y-47487581D01*
X61264343Y-47490500D01*
X62941656Y-47490499D01*
X62984704Y-47487581D01*
X63170775Y-47441307D01*
X63342547Y-47356116D01*
X63434814Y-47281948D01*
X63499396Y-47255291D01*
X63568141Y-47267781D01*
X63619219Y-47315455D01*
X63636500Y-47378597D01*
X63636500Y-53384255D01*
X63634775Y-53399872D01*
X63635061Y-53399899D01*
X63634326Y-53407665D01*
X63636439Y-53474872D01*
X63636500Y-53478767D01*
X63636500Y-53506357D01*
X63637003Y-53510335D01*
X63637918Y-53521967D01*
X63639290Y-53565624D01*
X63639291Y-53565627D01*
X63644880Y-53584867D01*
X63648824Y-53603911D01*
X63651336Y-53623792D01*
X63667414Y-53664403D01*
X63671197Y-53675452D01*
X63683381Y-53717388D01*
X63693580Y-53734634D01*
X63702138Y-53752103D01*
X63709514Y-53770732D01*
X63735181Y-53806060D01*
X63741593Y-53815821D01*
X63763828Y-53853417D01*
X63763833Y-53853424D01*
X63777990Y-53867580D01*
X63790628Y-53882376D01*
X63802405Y-53898586D01*
X63802406Y-53898587D01*
X63836057Y-53926425D01*
X63844698Y-53934288D01*
X65989767Y-56079358D01*
X66023252Y-56140681D01*
X66018268Y-56210373D01*
X65976396Y-56266306D01*
X65917604Y-56290064D01*
X65910152Y-56291004D01*
X65898531Y-56291918D01*
X65854873Y-56293290D01*
X65854872Y-56293290D01*
X65835629Y-56298881D01*
X65816579Y-56302825D01*
X65796711Y-56305334D01*
X65796710Y-56305334D01*
X65756099Y-56321413D01*
X65745054Y-56325194D01*
X65703114Y-56337379D01*
X65703110Y-56337381D01*
X65685866Y-56347579D01*
X65668405Y-56356133D01*
X65649774Y-56363510D01*
X65649762Y-56363517D01*
X65614433Y-56389185D01*
X65604679Y-56395593D01*
X65600226Y-56398227D01*
X65537096Y-56415500D01*
X65352453Y-56415500D01*
X65285414Y-56395815D01*
X65264772Y-56379181D01*
X64508803Y-55623212D01*
X64498980Y-55610950D01*
X64498759Y-55611134D01*
X64493786Y-55605122D01*
X64444776Y-55559099D01*
X64441977Y-55556386D01*
X64422477Y-55536885D01*
X64422471Y-55536880D01*
X64419286Y-55534409D01*
X64410434Y-55526848D01*
X64378582Y-55496938D01*
X64378580Y-55496936D01*
X64378577Y-55496935D01*
X64361029Y-55487288D01*
X64344763Y-55476604D01*
X64336512Y-55470204D01*
X64328936Y-55464327D01*
X64328935Y-55464326D01*
X64328932Y-55464324D01*
X64288849Y-55446978D01*
X64278363Y-55441841D01*
X64240094Y-55420803D01*
X64240092Y-55420802D01*
X64220693Y-55415822D01*
X64202281Y-55409518D01*
X64183898Y-55401562D01*
X64183892Y-55401560D01*
X64140760Y-55394729D01*
X64129322Y-55392361D01*
X64087020Y-55381500D01*
X64087019Y-55381500D01*
X64066984Y-55381500D01*
X64047586Y-55379973D01*
X64040162Y-55378797D01*
X64027805Y-55376840D01*
X64027804Y-55376840D01*
X63984325Y-55380950D01*
X63972656Y-55381500D01*
X62667452Y-55381500D01*
X62600413Y-55361815D01*
X62579771Y-55345181D01*
X60097819Y-52863228D01*
X60064334Y-52801905D01*
X60061500Y-52775547D01*
X60061500Y-39807451D01*
X60081185Y-39740412D01*
X60097815Y-39719774D01*
X60247820Y-39569769D01*
X60309142Y-39536285D01*
X60378834Y-39541269D01*
G37*
%TD.AperFunction*%
%TA.AperFunction,Conductor*%
G36*
X82640278Y-40523185D02*
G01*
X82686033Y-40575989D01*
X82696597Y-40640104D01*
X82691500Y-40689986D01*
X82691500Y-41290001D01*
X82691501Y-41290019D01*
X82702000Y-41392796D01*
X82702001Y-41392799D01*
X82757185Y-41559331D01*
X82757187Y-41559336D01*
X82774437Y-41587302D01*
X82849288Y-41708656D01*
X82973344Y-41832712D01*
X83038689Y-41873017D01*
X83057243Y-41884461D01*
X83103967Y-41936409D01*
X83115190Y-42005372D01*
X83087346Y-42069454D01*
X83057243Y-42095539D01*
X82973342Y-42147289D01*
X82849289Y-42271342D01*
X82757187Y-42420663D01*
X82757186Y-42420666D01*
X82702001Y-42587203D01*
X82702001Y-42587204D01*
X82702000Y-42587204D01*
X82691500Y-42689983D01*
X82691500Y-43290001D01*
X82691501Y-43290019D01*
X82702000Y-43392796D01*
X82702001Y-43392799D01*
X82757185Y-43559331D01*
X82757187Y-43559336D01*
X82774376Y-43587203D01*
X82849288Y-43708656D01*
X82973344Y-43832712D01*
X83011933Y-43856514D01*
X83063636Y-43888404D01*
X83110361Y-43940352D01*
X83121702Y-44008338D01*
X83115652Y-44060099D01*
X83692000Y-44636447D01*
X84621899Y-45566347D01*
X84621900Y-45566346D01*
X84626357Y-45559122D01*
X84626358Y-45559120D01*
X84681505Y-45392697D01*
X84681506Y-45392690D01*
X84691999Y-45289986D01*
X84691999Y-45179361D01*
X84711683Y-45112321D01*
X84764487Y-45066566D01*
X84833645Y-45056622D01*
X84897201Y-45085646D01*
X84898001Y-45086345D01*
X84902075Y-45089936D01*
X84902076Y-45089938D01*
X84943696Y-45126630D01*
X84949358Y-45131949D01*
X84963626Y-45146218D01*
X84963655Y-45146245D01*
X86206181Y-46388771D01*
X86239666Y-46450094D01*
X86242500Y-46476452D01*
X86242500Y-49936258D01*
X86222815Y-50003297D01*
X86170011Y-50049052D01*
X86100853Y-50058996D01*
X86092720Y-50057548D01*
X85946647Y-50026500D01*
X85946646Y-50026500D01*
X85757354Y-50026500D01*
X85757351Y-50026500D01*
X85704229Y-50037790D01*
X85634562Y-50032472D01*
X85590770Y-50004180D01*
X85162787Y-49576197D01*
X84728818Y-49142227D01*
X84695333Y-49080904D01*
X84692499Y-49054546D01*
X84692499Y-48689998D01*
X84692498Y-48689981D01*
X84681999Y-48587203D01*
X84681998Y-48587200D01*
X84650402Y-48491851D01*
X84626814Y-48420666D01*
X84534712Y-48271344D01*
X84410656Y-48147288D01*
X84410655Y-48147287D01*
X84326757Y-48095539D01*
X84280032Y-48043591D01*
X84268809Y-47974629D01*
X84296653Y-47910546D01*
X84326757Y-47884461D01*
X84350432Y-47869858D01*
X84410656Y-47832712D01*
X84534712Y-47708656D01*
X84626814Y-47559334D01*
X84681999Y-47392797D01*
X84682843Y-47384534D01*
X84688270Y-47358818D01*
X84705674Y-47305256D01*
X84725460Y-47117000D01*
X84705674Y-46928744D01*
X84704397Y-46924814D01*
X84698568Y-46906872D01*
X84692499Y-46868555D01*
X84692499Y-46689998D01*
X84692498Y-46689981D01*
X84681999Y-46587203D01*
X84681998Y-46587200D01*
X84658719Y-46516950D01*
X84626814Y-46420666D01*
X84534712Y-46271344D01*
X84410656Y-46147288D01*
X84410655Y-46147287D01*
X84320366Y-46091597D01*
X84273641Y-46039649D01*
X84262299Y-45971671D01*
X84268346Y-45919898D01*
X83692000Y-45343553D01*
X82762099Y-44413652D01*
X82757643Y-44420875D01*
X82757641Y-44420880D01*
X82702494Y-44587302D01*
X82702493Y-44587309D01*
X82692000Y-44690013D01*
X82692000Y-44700823D01*
X82672315Y-44767862D01*
X82619511Y-44813617D01*
X82550353Y-44823561D01*
X82490313Y-44797471D01*
X82444543Y-44760680D01*
X82392547Y-44718884D01*
X82392544Y-44718882D01*
X82392541Y-44718880D01*
X82220778Y-44633694D01*
X82220776Y-44633693D01*
X82220775Y-44633693D01*
X82182939Y-44624283D01*
X82034708Y-44587419D01*
X82010105Y-44585751D01*
X81991657Y-44584500D01*
X81991654Y-44584500D01*
X80314343Y-44584500D01*
X80314340Y-44584501D01*
X80271298Y-44587418D01*
X80271297Y-44587418D01*
X80085221Y-44633694D01*
X79913456Y-44718881D01*
X79913453Y-44718883D01*
X79764010Y-44839009D01*
X79764009Y-44839010D01*
X79643883Y-44988453D01*
X79643881Y-44988456D01*
X79558694Y-45160221D01*
X79512419Y-45346291D01*
X79509500Y-45389345D01*
X79509500Y-45813547D01*
X79489815Y-45880586D01*
X79437011Y-45926341D01*
X79367853Y-45936285D01*
X79304297Y-45907260D01*
X79297819Y-45901228D01*
X77970803Y-44574212D01*
X77960980Y-44561950D01*
X77960759Y-44562134D01*
X77955786Y-44556122D01*
X77906776Y-44510099D01*
X77903977Y-44507386D01*
X77884477Y-44487885D01*
X77884471Y-44487880D01*
X77881286Y-44485409D01*
X77872434Y-44477848D01*
X77840582Y-44447938D01*
X77840580Y-44447936D01*
X77840577Y-44447935D01*
X77823029Y-44438288D01*
X77806763Y-44427604D01*
X77790932Y-44415324D01*
X77750849Y-44397978D01*
X77740363Y-44392841D01*
X77702094Y-44371803D01*
X77702092Y-44371802D01*
X77682693Y-44366822D01*
X77664281Y-44360518D01*
X77645898Y-44352562D01*
X77645892Y-44352560D01*
X77602760Y-44345729D01*
X77591322Y-44343361D01*
X77549020Y-44332500D01*
X77549019Y-44332500D01*
X77528984Y-44332500D01*
X77509586Y-44330973D01*
X77502162Y-44329797D01*
X77489805Y-44327840D01*
X77489804Y-44327840D01*
X77446325Y-44331950D01*
X77434656Y-44332500D01*
X77157748Y-44332500D01*
X77090709Y-44312815D01*
X77065600Y-44291474D01*
X77059871Y-44285112D01*
X77056262Y-44281862D01*
X77019615Y-44222375D01*
X77020946Y-44152518D01*
X77051553Y-44102035D01*
X77424117Y-43729471D01*
X77485438Y-43695988D01*
X77555130Y-43700972D01*
X77566888Y-43706064D01*
X77672225Y-43758307D01*
X77789713Y-43787525D01*
X77858291Y-43804580D01*
X77858292Y-43804580D01*
X77858296Y-43804581D01*
X77901343Y-43807500D01*
X79578656Y-43807499D01*
X79621704Y-43804581D01*
X79807775Y-43758307D01*
X79979547Y-43673116D01*
X80128990Y-43552990D01*
X80249116Y-43403547D01*
X80334307Y-43231775D01*
X80380581Y-43045704D01*
X80383500Y-43002657D01*
X80383499Y-42087344D01*
X80380581Y-42044296D01*
X80380580Y-42044294D01*
X80380580Y-42044289D01*
X80350021Y-41921413D01*
X80346657Y-41907885D01*
X80349580Y-41838077D01*
X80379308Y-41790280D01*
X81629771Y-40539819D01*
X81691094Y-40506334D01*
X81717452Y-40503500D01*
X82573239Y-40503500D01*
X82640278Y-40523185D01*
G37*
%TD.AperFunction*%
%TA.AperFunction,Conductor*%
G36*
X88622150Y-43990792D02*
G01*
X88653502Y-44053233D01*
X88655500Y-44075400D01*
X88655500Y-46516950D01*
X88653775Y-46532567D01*
X88654061Y-46532594D01*
X88653326Y-46540360D01*
X88655439Y-46607567D01*
X88655500Y-46611462D01*
X88655500Y-46639052D01*
X88656003Y-46643030D01*
X88656918Y-46654662D01*
X88658290Y-46698319D01*
X88658291Y-46698322D01*
X88663880Y-46717562D01*
X88667824Y-46736606D01*
X88670336Y-46756487D01*
X88686414Y-46797098D01*
X88690197Y-46808147D01*
X88702382Y-46850085D01*
X88707306Y-46858412D01*
X88712580Y-46867329D01*
X88721136Y-46884795D01*
X88728514Y-46903427D01*
X88754181Y-46938755D01*
X88760593Y-46948516D01*
X88782828Y-46986112D01*
X88782833Y-46986119D01*
X88796990Y-47000275D01*
X88809628Y-47015071D01*
X88821405Y-47031281D01*
X88821406Y-47031282D01*
X88855057Y-47059120D01*
X88863698Y-47066983D01*
X89254181Y-47457466D01*
X89287666Y-47518789D01*
X89290500Y-47545147D01*
X89290500Y-48734085D01*
X89270815Y-48801124D01*
X89218011Y-48846879D01*
X89148853Y-48856823D01*
X89093615Y-48834403D01*
X88971734Y-48745851D01*
X88971729Y-48745848D01*
X88798807Y-48668857D01*
X88798802Y-48668855D01*
X88653001Y-48637865D01*
X88613646Y-48629500D01*
X88424354Y-48629500D01*
X88391897Y-48636398D01*
X88239197Y-48668855D01*
X88239192Y-48668857D01*
X88066270Y-48745848D01*
X88066265Y-48745851D01*
X87913129Y-48857111D01*
X87786466Y-48997785D01*
X87724887Y-49104444D01*
X87674320Y-49152659D01*
X87605713Y-49165883D01*
X87540849Y-49139915D01*
X87500320Y-49083001D01*
X87493500Y-49042444D01*
X87493500Y-46248742D01*
X87495224Y-46233122D01*
X87494939Y-46233096D01*
X87495671Y-46225340D01*
X87495673Y-46225333D01*
X87493561Y-46158126D01*
X87493500Y-46154231D01*
X87493500Y-46126654D01*
X87493500Y-46126650D01*
X87492996Y-46122665D01*
X87492080Y-46111021D01*
X87490709Y-46067373D01*
X87485122Y-46048144D01*
X87481174Y-46029084D01*
X87478664Y-46009208D01*
X87478663Y-46009206D01*
X87478663Y-46009204D01*
X87462588Y-45968604D01*
X87458804Y-45957552D01*
X87446618Y-45915609D01*
X87446616Y-45915606D01*
X87436423Y-45898371D01*
X87427861Y-45880894D01*
X87420487Y-45862269D01*
X87394816Y-45826937D01*
X87388405Y-45817177D01*
X87366170Y-45779580D01*
X87366168Y-45779578D01*
X87366165Y-45779574D01*
X87352006Y-45765415D01*
X87339368Y-45750619D01*
X87333216Y-45742151D01*
X87327594Y-45734413D01*
X87293940Y-45706572D01*
X87285299Y-45698709D01*
X86776786Y-45190196D01*
X86347268Y-44760677D01*
X86313785Y-44699357D01*
X86318769Y-44629665D01*
X86347268Y-44585320D01*
X86580771Y-44351818D01*
X86642094Y-44318333D01*
X86668452Y-44315499D01*
X87833657Y-44315499D01*
X87833657Y-44315498D01*
X87876704Y-44312581D01*
X88062775Y-44266307D01*
X88234547Y-44181116D01*
X88383990Y-44060990D01*
X88434855Y-43997710D01*
X88492196Y-43957794D01*
X88562018Y-43955214D01*
X88622150Y-43990792D01*
G37*
%TD.AperFunction*%
%TA.AperFunction,Conductor*%
G36*
X92035039Y-47635185D02*
G01*
X92080794Y-47687989D01*
X92092000Y-47739500D01*
X92092000Y-48289971D01*
X92092001Y-48289987D01*
X92102494Y-48392697D01*
X92133589Y-48486536D01*
X92135991Y-48556365D01*
X92125621Y-48573789D01*
X92159110Y-48569335D01*
X93004318Y-47724127D01*
X93065641Y-47690642D01*
X93135332Y-47695626D01*
X93179680Y-47724127D01*
X93357871Y-47902318D01*
X93391356Y-47963641D01*
X93386372Y-48033333D01*
X93357871Y-48077680D01*
X92515651Y-48919900D01*
X92521700Y-48971668D01*
X92509928Y-49040539D01*
X92463634Y-49091596D01*
X92378227Y-49144275D01*
X92310835Y-49162715D01*
X92244171Y-49141792D01*
X92199402Y-49088150D01*
X92195204Y-49077064D01*
X92144138Y-48919900D01*
X92140181Y-48907721D01*
X92140178Y-48907715D01*
X92110962Y-48857112D01*
X92050691Y-48752719D01*
X92034219Y-48684820D01*
X92049056Y-48641952D01*
X92037738Y-48647599D01*
X91968279Y-48640038D01*
X91923735Y-48608514D01*
X91918871Y-48603112D01*
X91918867Y-48603109D01*
X91765734Y-48491851D01*
X91765729Y-48491848D01*
X91592807Y-48414857D01*
X91592802Y-48414855D01*
X91447001Y-48383865D01*
X91407646Y-48375500D01*
X91218354Y-48375500D01*
X91185897Y-48382398D01*
X91033197Y-48414855D01*
X91033192Y-48414857D01*
X90860270Y-48491848D01*
X90860265Y-48491851D01*
X90738385Y-48580403D01*
X90672579Y-48603883D01*
X90604525Y-48588057D01*
X90555830Y-48537952D01*
X90541500Y-48480085D01*
X90541500Y-48234741D01*
X90561185Y-48167702D01*
X90613989Y-48121947D01*
X90683147Y-48112003D01*
X90691266Y-48113448D01*
X90837354Y-48144500D01*
X90837355Y-48144500D01*
X91026644Y-48144500D01*
X91026646Y-48144500D01*
X91211803Y-48105144D01*
X91384730Y-48028151D01*
X91537871Y-47916888D01*
X91664533Y-47776216D01*
X91685731Y-47739500D01*
X91721527Y-47677500D01*
X91772094Y-47629284D01*
X91828914Y-47615500D01*
X91968000Y-47615500D01*
X92035039Y-47635185D01*
G37*
%TD.AperFunction*%
%TA.AperFunction,Conductor*%
G36*
X90111703Y-41894739D02*
G01*
X90118181Y-41900771D01*
X92055181Y-43837771D01*
X92088666Y-43899094D01*
X92091500Y-43925452D01*
X92091500Y-44290001D01*
X92091501Y-44290019D01*
X92102000Y-44392796D01*
X92102001Y-44392799D01*
X92157185Y-44559331D01*
X92157187Y-44559336D01*
X92158913Y-44562134D01*
X92249288Y-44708656D01*
X92373344Y-44832712D01*
X92457243Y-44884461D01*
X92503967Y-44936409D01*
X92515190Y-45005372D01*
X92487346Y-45069454D01*
X92457243Y-45095539D01*
X92373342Y-45147289D01*
X92249289Y-45271342D01*
X92228161Y-45305597D01*
X92176213Y-45352321D01*
X92122622Y-45364500D01*
X91243438Y-45364500D01*
X91227817Y-45362775D01*
X91227790Y-45363061D01*
X91220028Y-45362326D01*
X91152808Y-45364439D01*
X91148914Y-45364500D01*
X91121345Y-45364500D01*
X91117368Y-45365002D01*
X91105737Y-45365917D01*
X91062069Y-45367289D01*
X91062063Y-45367290D01*
X91042821Y-45372880D01*
X91023782Y-45376823D01*
X91003912Y-45379334D01*
X91003898Y-45379337D01*
X90963293Y-45395413D01*
X90952249Y-45399194D01*
X90910309Y-45411379D01*
X90910305Y-45411381D01*
X90893061Y-45421579D01*
X90875600Y-45430133D01*
X90856969Y-45437510D01*
X90856957Y-45437517D01*
X90821628Y-45463185D01*
X90811868Y-45469596D01*
X90774275Y-45491829D01*
X90760109Y-45505995D01*
X90745319Y-45518627D01*
X90729109Y-45530404D01*
X90729106Y-45530407D01*
X90701268Y-45564058D01*
X90693406Y-45572697D01*
X90118181Y-46147923D01*
X90056858Y-46181408D01*
X89987167Y-46176424D01*
X89931233Y-46134553D01*
X89906816Y-46069088D01*
X89906500Y-46060242D01*
X89906500Y-41988452D01*
X89926185Y-41921413D01*
X89978989Y-41875658D01*
X90048147Y-41865714D01*
X90111703Y-41894739D01*
G37*
%TD.AperFunction*%
%TA.AperFunction,Conductor*%
G36*
X87640587Y-40523185D02*
G01*
X87661229Y-40539819D01*
X88619181Y-41497771D01*
X88652666Y-41559094D01*
X88655500Y-41585452D01*
X88655500Y-42030599D01*
X88635815Y-42097638D01*
X88583011Y-42143393D01*
X88513853Y-42153337D01*
X88450297Y-42124312D01*
X88434853Y-42108286D01*
X88383990Y-42045010D01*
X88383989Y-42045009D01*
X88234546Y-41924883D01*
X88234543Y-41924881D01*
X88062778Y-41839694D01*
X88062776Y-41839693D01*
X88062775Y-41839693D01*
X88012789Y-41827262D01*
X87876708Y-41793419D01*
X87852105Y-41791751D01*
X87833657Y-41790500D01*
X87833654Y-41790500D01*
X86156343Y-41790500D01*
X86156340Y-41790501D01*
X86113298Y-41793418D01*
X86113297Y-41793418D01*
X85927221Y-41839694D01*
X85755456Y-41924881D01*
X85755453Y-41924883D01*
X85606010Y-42045009D01*
X85606009Y-42045010D01*
X85485883Y-42194453D01*
X85485881Y-42194456D01*
X85400694Y-42366221D01*
X85354419Y-42552291D01*
X85351500Y-42595345D01*
X85351500Y-43465547D01*
X85331815Y-43532586D01*
X85279011Y-43578341D01*
X85209853Y-43588285D01*
X85146297Y-43559260D01*
X85139819Y-43553228D01*
X84728818Y-43142227D01*
X84695333Y-43080904D01*
X84692499Y-43054546D01*
X84692499Y-42689998D01*
X84692498Y-42689981D01*
X84681999Y-42587203D01*
X84681998Y-42587200D01*
X84670430Y-42552291D01*
X84626814Y-42420666D01*
X84534712Y-42271344D01*
X84410656Y-42147288D01*
X84410655Y-42147287D01*
X84326757Y-42095539D01*
X84280032Y-42043591D01*
X84268809Y-41974629D01*
X84296653Y-41910546D01*
X84326757Y-41884461D01*
X84364625Y-41861104D01*
X84410656Y-41832712D01*
X84534712Y-41708656D01*
X84626814Y-41559334D01*
X84681999Y-41392797D01*
X84692500Y-41290009D01*
X84692499Y-41142441D01*
X84698570Y-41104118D01*
X84705674Y-41082256D01*
X84725460Y-40894000D01*
X84705674Y-40705744D01*
X84700555Y-40689991D01*
X84692888Y-40666394D01*
X84687447Y-40640549D01*
X84687388Y-40639964D01*
X84700233Y-40571287D01*
X84748170Y-40520456D01*
X84810760Y-40503500D01*
X87573548Y-40503500D01*
X87640587Y-40523185D01*
G37*
%TD.AperFunction*%
%TA.AperFunction,Conductor*%
G36*
X91040687Y-39507185D02*
G01*
X91061329Y-39523819D01*
X92481779Y-40944269D01*
X92515264Y-41005592D01*
X92517260Y-41046346D01*
X92515652Y-41060099D01*
X93357872Y-41902319D01*
X93391357Y-41963642D01*
X93386373Y-42033334D01*
X93357872Y-42077681D01*
X93179681Y-42255872D01*
X93118358Y-42289357D01*
X93048666Y-42284373D01*
X93004319Y-42255872D01*
X92162099Y-41413652D01*
X92157643Y-41420875D01*
X92157641Y-41420880D01*
X92102494Y-41587302D01*
X92102493Y-41587309D01*
X92092000Y-41690013D01*
X92092000Y-41806047D01*
X92072315Y-41873086D01*
X92019511Y-41918841D01*
X91950353Y-41928785D01*
X91886797Y-41899760D01*
X91880319Y-41893728D01*
X89685772Y-39699181D01*
X89652287Y-39637858D01*
X89657271Y-39568166D01*
X89699143Y-39512233D01*
X89764607Y-39487816D01*
X89773453Y-39487500D01*
X90973648Y-39487500D01*
X91040687Y-39507185D01*
G37*
%TD.AperFunction*%
%TD*%
M02*
