%TF.GenerationSoftware,KiCad,Pcbnew,7.0.10*%
%TF.CreationDate,2026-06-17T08:52:16+03:00*%
%TF.ProjectId,ADC_MainBoard,4144435f-4d61-4696-9e42-6f6172642e6b,rev?*%
%TF.SameCoordinates,Original*%
%TF.FileFunction,Copper,L2,Bot*%
%TF.FilePolarity,Positive*%
%FSLAX46Y46*%
G04 Gerber Fmt 4.6, Leading zero omitted, Abs format (unit mm)*
G04 Created by KiCad (PCBNEW 7.0.10) date 2026-06-17 08:52:16*
%MOMM*%
%LPD*%
G01*
G04 APERTURE LIST*
G04 Aperture macros list*
%AMRoundRect*
0 Rectangle with rounded corners*
0 $1 Rounding radius*
0 $2 $3 $4 $5 $6 $7 $8 $9 X,Y pos of 4 corners*
0 Add a 4 corners polygon primitive as box body*
4,1,4,$2,$3,$4,$5,$6,$7,$8,$9,$2,$3,0*
0 Add four circle primitives for the rounded corners*
1,1,$1+$1,$2,$3*
1,1,$1+$1,$4,$5*
1,1,$1+$1,$6,$7*
1,1,$1+$1,$8,$9*
0 Add four rect primitives between the rounded corners*
20,1,$1+$1,$2,$3,$4,$5,0*
20,1,$1+$1,$4,$5,$6,$7,0*
20,1,$1+$1,$6,$7,$8,$9,0*
20,1,$1+$1,$8,$9,$2,$3,0*%
G04 Aperture macros list end*
%TA.AperFunction,SMDPad,CuDef*%
%ADD10R,2.000000X1.500000*%
%TD*%
%TA.AperFunction,SMDPad,CuDef*%
%ADD11R,2.000000X3.800000*%
%TD*%
%TA.AperFunction,SMDPad,CuDef*%
%ADD12RoundRect,0.150000X0.512500X0.150000X-0.512500X0.150000X-0.512500X-0.150000X0.512500X-0.150000X0*%
%TD*%
%TA.AperFunction,SMDPad,CuDef*%
%ADD13RoundRect,0.150000X-0.587500X-0.150000X0.587500X-0.150000X0.587500X0.150000X-0.587500X0.150000X0*%
%TD*%
%TA.AperFunction,SMDPad,CuDef*%
%ADD14RoundRect,0.200000X-0.275000X0.200000X-0.275000X-0.200000X0.275000X-0.200000X0.275000X0.200000X0*%
%TD*%
%TA.AperFunction,SMDPad,CuDef*%
%ADD15RoundRect,0.200000X0.200000X0.275000X-0.200000X0.275000X-0.200000X-0.275000X0.200000X-0.275000X0*%
%TD*%
%TA.AperFunction,SMDPad,CuDef*%
%ADD16RoundRect,0.225000X-0.225000X-0.250000X0.225000X-0.250000X0.225000X0.250000X-0.225000X0.250000X0*%
%TD*%
%TA.AperFunction,SMDPad,CuDef*%
%ADD17RoundRect,0.225000X-0.250000X0.225000X-0.250000X-0.225000X0.250000X-0.225000X0.250000X0.225000X0*%
%TD*%
%TA.AperFunction,SMDPad,CuDef*%
%ADD18RoundRect,0.225000X0.250000X-0.225000X0.250000X0.225000X-0.250000X0.225000X-0.250000X-0.225000X0*%
%TD*%
%TA.AperFunction,SMDPad,CuDef*%
%ADD19RoundRect,0.225000X0.225000X0.250000X-0.225000X0.250000X-0.225000X-0.250000X0.225000X-0.250000X0*%
%TD*%
%TA.AperFunction,ComponentPad*%
%ADD20R,1.700000X1.700000*%
%TD*%
%TA.AperFunction,ComponentPad*%
%ADD21O,1.700000X1.700000*%
%TD*%
%TA.AperFunction,SMDPad,CuDef*%
%ADD22RoundRect,0.200000X-0.200000X-0.275000X0.200000X-0.275000X0.200000X0.275000X-0.200000X0.275000X0*%
%TD*%
%TA.AperFunction,ViaPad*%
%ADD23C,0.800000*%
%TD*%
%TA.AperFunction,Conductor*%
%ADD24C,0.250000*%
%TD*%
%TA.AperFunction,Conductor*%
%ADD25C,0.200000*%
%TD*%
G04 APERTURE END LIST*
D10*
%TO.P,U7,1,GND*%
%TO.N,Earth*%
X86462000Y-40626000D03*
D11*
%TO.P,U7,2,VO*%
%TO.N,+3.3V*%
X80162000Y-42926000D03*
D10*
X86462000Y-42926000D03*
%TO.P,U7,3,VI*%
%TO.N,+5V*%
X86462000Y-45226000D03*
%TD*%
D12*
%TO.P,U3,1*%
%TO.N,Net-(R7-Pad1)*%
X77078404Y-48630000D03*
%TO.P,U3,2,V-*%
%TO.N,Earth*%
X77078404Y-49580000D03*
%TO.P,U3,3,+*%
%TO.N,Net-(U3-+)*%
X77078404Y-50530000D03*
%TO.P,U3,4,-*%
%TO.N,Net-(U3--)*%
X74803404Y-50530000D03*
%TO.P,U3,5,V+*%
%TO.N,+3.3V*%
X74803404Y-48630000D03*
%TD*%
D13*
%TO.P,U1,1,Vin*%
%TO.N,+3.3V*%
X74868500Y-47077000D03*
%TO.P,U1,2,Vout*%
%TO.N,Net-(U1-Vout)*%
X74868500Y-45177000D03*
%TO.P,U1,3,Vss*%
%TO.N,Earth*%
X76743500Y-46127000D03*
%TD*%
D14*
%TO.P,R10,1*%
%TO.N,+3.3V*%
X66421000Y-62802000D03*
%TO.P,R10,2*%
%TO.N,/CamRST*%
X66421000Y-64452000D03*
%TD*%
%TO.P,R9,1*%
%TO.N,+3.3V*%
X67945000Y-60516000D03*
%TO.P,R9,2*%
%TO.N,/CamSCK*%
X67945000Y-62166000D03*
%TD*%
D15*
%TO.P,R8,1*%
%TO.N,Net-(U2-PWDN)*%
X64960000Y-65532000D03*
%TO.P,R8,2*%
%TO.N,Earth*%
X63310000Y-65532000D03*
%TD*%
D16*
%TO.P,R7,1*%
%TO.N,Net-(R7-Pad1)*%
X78714000Y-47524000D03*
%TO.P,R7,2*%
%TO.N,/REFIN+*%
X80264000Y-47524000D03*
%TD*%
D17*
%TO.P,R6,1*%
%TO.N,Net-(U3--)*%
X75425000Y-52083000D03*
%TO.P,R6,2*%
%TO.N,/REFIN+*%
X75425000Y-53633000D03*
%TD*%
D14*
%TO.P,R5,1*%
%TO.N,+3.3V*%
X69469000Y-60516000D03*
%TO.P,R5,2*%
%TO.N,/CamSDA*%
X69469000Y-62166000D03*
%TD*%
D18*
%TO.P,R4,1*%
%TO.N,/REFIN-*%
X73025000Y-50559000D03*
%TO.P,R4,2*%
%TO.N,Earth*%
X73025000Y-49009000D03*
%TD*%
D19*
%TO.P,R3,1*%
%TO.N,Net-(U1-Vout)*%
X78613000Y-52096000D03*
%TO.P,R3,2*%
%TO.N,Net-(U3-+)*%
X77063000Y-52096000D03*
%TD*%
%TO.P,R2,1*%
%TO.N,Net-(C2-Pad2)*%
X80264000Y-50572000D03*
%TO.P,R2,2*%
%TO.N,Net-(U1-Vout)*%
X78714000Y-50572000D03*
%TD*%
D16*
%TO.P,R1,1*%
%TO.N,Earth*%
X78714000Y-49048000D03*
%TO.P,R1,2*%
%TO.N,Net-(C2-Pad2)*%
X80264000Y-49048000D03*
%TD*%
D20*
%TO.P,J13,1,Pin_1*%
%TO.N,+5V*%
X97155000Y-56764000D03*
D21*
%TO.P,J13,2,Pin_2*%
%TO.N,Earth*%
X97155000Y-59304000D03*
%TD*%
D17*
%TO.P,C11,1*%
%TO.N,+1V2*%
X60579000Y-60185000D03*
%TO.P,C11,2*%
%TO.N,Earth*%
X60579000Y-61735000D03*
%TD*%
D16*
%TO.P,C10,1*%
%TO.N,+3.3V*%
X62725000Y-57150000D03*
%TO.P,C10,2*%
%TO.N,Earth*%
X64275000Y-57150000D03*
%TD*%
D19*
%TO.P,C9,1*%
%TO.N,+2V8*%
X62878000Y-58674000D03*
%TO.P,C9,2*%
%TO.N,Earth*%
X61328000Y-58674000D03*
%TD*%
D18*
%TO.P,C8,1*%
%TO.N,+5V*%
X67183000Y-59068000D03*
%TO.P,C8,2*%
%TO.N,Earth*%
X67183000Y-57518000D03*
%TD*%
D14*
%TO.P,C7,1*%
%TO.N,/CamRST*%
X67945000Y-64580000D03*
%TO.P,C7,2*%
%TO.N,Earth*%
X67945000Y-66230000D03*
%TD*%
D15*
%TO.P,C6,1*%
%TO.N,+3.3V*%
X63690000Y-61722000D03*
%TO.P,C6,2*%
%TO.N,Earth*%
X62040000Y-61722000D03*
%TD*%
D22*
%TO.P,C5,1*%
%TO.N,/PCLK*%
X60643000Y-64008000D03*
%TO.P,C5,2*%
%TO.N,Earth*%
X62293000Y-64008000D03*
%TD*%
D17*
%TO.P,C4,1*%
%TO.N,Net-(U3--)*%
X73901000Y-52083000D03*
%TO.P,C4,2*%
%TO.N,/REFIN+*%
X73901000Y-53633000D03*
%TD*%
%TO.P,C3,1*%
%TO.N,+5V*%
X95758000Y-57391000D03*
%TO.P,C3,2*%
%TO.N,Earth*%
X95758000Y-58941000D03*
%TD*%
D19*
%TO.P,C2,1*%
%TO.N,Earth*%
X81661000Y-52096000D03*
%TO.P,C2,2*%
%TO.N,Net-(C2-Pad2)*%
X80111000Y-52096000D03*
%TD*%
D16*
%TO.P,C1,1*%
%TO.N,Net-(U1-Vout)*%
X78587000Y-53620000D03*
%TO.P,C1,2*%
%TO.N,Earth*%
X80137000Y-53620000D03*
%TD*%
D23*
%TO.N,Earth*%
X88463000Y-46101000D03*
X60452000Y-55753000D03*
X72009000Y-57404000D03*
X75522310Y-56728695D03*
X63881000Y-43180000D03*
X82296000Y-40894000D03*
X91992000Y-44224552D03*
X91223000Y-50419000D03*
X88265000Y-48514000D03*
%TO.N,Net-(U1-Vout)*%
X78714000Y-50572000D03*
X76454000Y-44958000D03*
%TO.N,/nCS*%
X83820000Y-47117000D03*
X90932000Y-47244000D03*
%TO.N,Earth*%
X93091000Y-48133000D03*
X74926020Y-65667999D03*
X93475980Y-63868000D03*
X89789000Y-63119000D03*
X84582000Y-56261000D03*
X78486000Y-63373000D03*
%TO.N,/REFIN-*%
X93091000Y-53213000D03*
%TO.N,/nIRQ*%
X91313000Y-49276000D03*
X85852000Y-50927000D03*
%TO.N,/nIRQ___2*%
X77851000Y-62484000D03*
X70612000Y-53848000D03*
%TO.N,Earth*%
X73025000Y-49009000D03*
%TO.N,/REFIN-*%
X73025000Y-50559000D03*
%TO.N,+5V*%
X67183000Y-59055000D03*
%TO.N,/CamSDA*%
X69850000Y-62103000D03*
%TO.N,Earth*%
X61722000Y-58166000D03*
X67183000Y-57891000D03*
%TO.N,Net-(U2-PWDN)*%
X65424012Y-65061950D03*
%TO.N,+3.3V*%
X63751000Y-61725000D03*
%TO.N,/PCLK*%
X60691081Y-64424002D03*
%TO.N,/CamSCK*%
X67713701Y-61691138D03*
%TO.N,+3.3V*%
X61081500Y-57216000D03*
%TO.N,/CamRST*%
X66421000Y-64426000D03*
%TO.N,+1V2*%
X63627000Y-60198000D03*
X61341000Y-60198000D03*
%TO.N,+2V8*%
X63378500Y-59116000D03*
%TO.N,Earth*%
X67178347Y-65876000D03*
%TO.N,+2V8*%
X64475000Y-64424002D03*
%TO.N,Earth*%
X62103000Y-61722000D03*
X65404000Y-44990000D03*
X74930000Y-42037000D03*
X86462000Y-40626000D03*
X93092000Y-41990000D03*
%TO.N,+3.3V*%
X83692000Y-50990000D03*
X65404000Y-50990000D03*
%TO.N,/REFIN+*%
X92837000Y-50038000D03*
%TO.N,/MCLK*%
X84074000Y-38100000D03*
X83820000Y-40894000D03*
%TO.N,/REFIN+*%
X75425000Y-53633000D03*
%TO.N,Earth*%
X81661000Y-52096000D03*
X76949000Y-46127000D03*
X78714000Y-49048000D03*
%TO.N,/SDI*%
X88519000Y-49530000D03*
X93092000Y-43990000D03*
%TD*%
D24*
%TO.N,/MCLK*%
X84074000Y-38100000D02*
X84074000Y-40640000D01*
X84074000Y-40640000D02*
X83820000Y-40894000D01*
%TO.N,Earth*%
X91728000Y-40626000D02*
X93092000Y-41990000D01*
X86462000Y-40626000D02*
X91728000Y-40626000D01*
X83058000Y-42037000D02*
X81280000Y-40259000D01*
X85051000Y-42037000D02*
X83058000Y-42037000D01*
X86462000Y-40626000D02*
X85051000Y-42037000D01*
X76708000Y-40259000D02*
X74930000Y-42037000D01*
X81280000Y-40259000D02*
X76708000Y-40259000D01*
X91992000Y-44224552D02*
X90339448Y-44224552D01*
X90339448Y-44224552D02*
X88463000Y-46101000D01*
D25*
%TO.N,/REFIN-*%
X72644000Y-54229000D02*
X72644000Y-50940000D01*
X91186000Y-55118000D02*
X73533000Y-55118000D01*
X73533000Y-55118000D02*
X72644000Y-54229000D01*
X93091000Y-53213000D02*
X91186000Y-55118000D01*
X72644000Y-50940000D02*
X73025000Y-50559000D01*
D24*
%TO.N,Net-(U1-Vout)*%
X76235000Y-45177000D02*
X76454000Y-44958000D01*
X74868500Y-45177000D02*
X76235000Y-45177000D01*
%TO.N,Earth*%
X77470000Y-45606000D02*
X76949000Y-46127000D01*
X77470000Y-44450000D02*
X77470000Y-45606000D01*
X75057000Y-42037000D02*
X77470000Y-44450000D01*
X74930000Y-42037000D02*
X75057000Y-42037000D01*
%TO.N,/nCS*%
X83947000Y-47244000D02*
X90932000Y-47244000D01*
X83820000Y-47117000D02*
X83947000Y-47244000D01*
%TO.N,Earth*%
X94107000Y-57290000D02*
X95758000Y-58941000D01*
X93091000Y-48133000D02*
X94107000Y-49149000D01*
X94107000Y-49149000D02*
X94107000Y-57290000D01*
%TO.N,/SDI*%
X93092000Y-46227000D02*
X93092000Y-43990000D01*
X89789000Y-49530000D02*
X93092000Y-46227000D01*
X88519000Y-49530000D02*
X89789000Y-49530000D01*
%TO.N,Earth*%
X73025000Y-49009000D02*
X67183000Y-54851000D01*
X67183000Y-54851000D02*
X67183000Y-57518000D01*
X59830000Y-61735000D02*
X60579000Y-61735000D01*
X59309000Y-59309000D02*
X59309000Y-61214000D01*
X59944000Y-58674000D02*
X59309000Y-59309000D01*
X59309000Y-61214000D02*
X59830000Y-61735000D01*
X61328000Y-58674000D02*
X59944000Y-58674000D01*
X74930000Y-66230000D02*
X67945000Y-66230000D01*
X74930000Y-65671979D02*
X74926020Y-65667999D01*
X75629000Y-66230000D02*
X74930000Y-66230000D01*
X74930000Y-66230000D02*
X74930000Y-65671979D01*
X78486000Y-63373000D02*
X75629000Y-66230000D01*
X95758000Y-61585980D02*
X93475980Y-63868000D01*
X95758000Y-58941000D02*
X95758000Y-61585980D01*
X91173000Y-63868000D02*
X93475980Y-63868000D01*
X89789000Y-62484000D02*
X91173000Y-63868000D01*
X89789000Y-62484000D02*
X84582000Y-57277000D01*
X89789000Y-63119000D02*
X89789000Y-62484000D01*
X84582000Y-57277000D02*
X84582000Y-56261000D01*
X78486000Y-63373000D02*
X84582000Y-57277000D01*
%TO.N,/nIRQ*%
X89662000Y-50927000D02*
X85852000Y-50927000D01*
X91313000Y-49276000D02*
X89662000Y-50927000D01*
%TO.N,/nIRQ___2*%
X70612000Y-53848000D02*
X77851000Y-61087000D01*
X77851000Y-61087000D02*
X77851000Y-62484000D01*
%TO.N,+3.3V*%
X62725000Y-53734000D02*
X62725000Y-57150000D01*
X62738000Y-53721000D02*
X62725000Y-53734000D01*
X62738000Y-53656000D02*
X62738000Y-53721000D01*
X65404000Y-50990000D02*
X62738000Y-53656000D01*
%TO.N,+1V2*%
X61341000Y-60198000D02*
X63627000Y-60198000D01*
%TO.N,Earth*%
X66506347Y-66548000D02*
X67178347Y-65876000D01*
X62103000Y-64325000D02*
X64326000Y-66548000D01*
X62103000Y-61722000D02*
X62103000Y-64325000D01*
X64326000Y-66548000D02*
X66506347Y-66548000D01*
X66442000Y-57150000D02*
X64275000Y-57150000D01*
X67183000Y-57891000D02*
X66442000Y-57150000D01*
%TO.N,+3.3V*%
X69469000Y-60516000D02*
X67945000Y-60516000D01*
%TO.N,/CamSDA*%
X69787000Y-62166000D02*
X69850000Y-62103000D01*
X69469000Y-62166000D02*
X69787000Y-62166000D01*
%TO.N,+2V8*%
X62936500Y-58674000D02*
X63378500Y-59116000D01*
X62878000Y-58674000D02*
X62936500Y-58674000D01*
%TO.N,Earth*%
X61328000Y-58560000D02*
X61722000Y-58166000D01*
X61328000Y-58674000D02*
X61328000Y-58560000D01*
X67532347Y-66230000D02*
X67178347Y-65876000D01*
X67945000Y-66230000D02*
X67532347Y-66230000D01*
%TO.N,/CamRST*%
X67945000Y-64580000D02*
X66575000Y-64580000D01*
X66575000Y-64580000D02*
X66421000Y-64426000D01*
%TO.N,+2V8*%
X64069000Y-59116000D02*
X63378500Y-59116000D01*
X64516000Y-59563000D02*
X64069000Y-59116000D01*
X64516000Y-64383002D02*
X64516000Y-59563000D01*
X64475000Y-64424002D02*
X64516000Y-64383002D01*
%TO.N,Earth*%
X95758000Y-58941000D02*
X96792000Y-58941000D01*
X96792000Y-58941000D02*
X97155000Y-59304000D01*
%TO.N,+5V*%
X96528000Y-57391000D02*
X97155000Y-56764000D01*
X95758000Y-57391000D02*
X96528000Y-57391000D01*
%TO.N,Earth*%
X60579000Y-61735000D02*
X62027000Y-61735000D01*
X62027000Y-61735000D02*
X62040000Y-61722000D01*
%TO.N,+3.3V*%
X63690000Y-61722000D02*
X63748000Y-61722000D01*
X63748000Y-61722000D02*
X63751000Y-61725000D01*
X66736604Y-60516000D02*
X66421000Y-60831604D01*
X67945000Y-60516000D02*
X66736604Y-60516000D01*
X62805396Y-57216000D02*
X61081500Y-57216000D01*
X66421000Y-60831604D02*
X62805396Y-57216000D01*
X66421000Y-62802000D02*
X66421000Y-60831604D01*
%TO.N,+5V*%
X94869000Y-43053000D02*
X97155000Y-45339000D01*
X88635000Y-43053000D02*
X94869000Y-43053000D01*
X86462000Y-45226000D02*
X88635000Y-43053000D01*
X97155000Y-45339000D02*
X97155000Y-56764000D01*
%TO.N,Earth*%
X68357000Y-42037000D02*
X65404000Y-44990000D01*
X74930000Y-42037000D02*
X68357000Y-42037000D01*
%TO.N,+3.3V*%
X83692000Y-49656000D02*
X83692000Y-50990000D01*
X79457977Y-45421977D02*
X83692000Y-49656000D01*
X79457977Y-45421977D02*
X77802954Y-47077000D01*
X80162000Y-44717954D02*
X79457977Y-45421977D01*
X69317000Y-47077000D02*
X65404000Y-50990000D01*
X74868500Y-47077000D02*
X69317000Y-47077000D01*
X77802954Y-47077000D02*
X74868500Y-47077000D01*
X80162000Y-42926000D02*
X80162000Y-44717954D01*
X80162000Y-42926000D02*
X86462000Y-42926000D01*
D25*
%TO.N,/REFIN+*%
X90678000Y-52197000D02*
X82537000Y-52197000D01*
X82537000Y-52197000D02*
X82537000Y-49797000D01*
X82537000Y-52858000D02*
X82537000Y-52197000D01*
X92837000Y-50038000D02*
X90678000Y-52197000D01*
D24*
%TO.N,Earth*%
X80137000Y-53620000D02*
X81661000Y-52096000D01*
%TO.N,Net-(C2-Pad2)*%
X80111000Y-50725000D02*
X80264000Y-50572000D01*
X80111000Y-52096000D02*
X80111000Y-50725000D01*
%TO.N,Net-(U1-Vout)*%
X78613000Y-53594000D02*
X78587000Y-53620000D01*
X78613000Y-52096000D02*
X78613000Y-53594000D01*
D25*
%TO.N,/REFIN+*%
X82537000Y-49797000D02*
X80264000Y-47524000D01*
X75425000Y-53633000D02*
X76301000Y-54509000D01*
X76301000Y-54509000D02*
X80886000Y-54509000D01*
X80886000Y-54509000D02*
X82537000Y-52858000D01*
D24*
%TO.N,Net-(U3--)*%
X74181808Y-52083000D02*
X74803404Y-51461404D01*
X73901000Y-52083000D02*
X74181808Y-52083000D01*
D25*
%TO.N,/REFIN+*%
X73901000Y-53633000D02*
X75425000Y-53633000D01*
D24*
%TO.N,Net-(U3--)*%
X74803404Y-51461404D02*
X75425000Y-52083000D01*
X74803404Y-50530000D02*
X74803404Y-51461404D01*
%TO.N,+3.3V*%
X74868500Y-48564904D02*
X74803404Y-48630000D01*
X74868500Y-47077000D02*
X74868500Y-48564904D01*
%TO.N,Net-(R7-Pad1)*%
X77608000Y-48630000D02*
X78714000Y-47524000D01*
X77078404Y-48630000D02*
X77608000Y-48630000D01*
%TO.N,Earth*%
X76743500Y-46127000D02*
X76949000Y-46127000D01*
X78182000Y-49580000D02*
X77078404Y-49580000D01*
X78714000Y-49048000D02*
X78182000Y-49580000D01*
%TO.N,Net-(C2-Pad2)*%
X80264000Y-50572000D02*
X80264000Y-49048000D01*
%TO.N,Net-(U1-Vout)*%
X78613000Y-50673000D02*
X78714000Y-50572000D01*
X78613000Y-52096000D02*
X78613000Y-50673000D01*
%TO.N,Net-(U3-+)*%
X77078404Y-52080596D02*
X77063000Y-52096000D01*
X77078404Y-50530000D02*
X77078404Y-52080596D01*
%TD*%
%TA.AperFunction,Conductor*%
%TO.N,Earth*%
G36*
X98241039Y-36595685D02*
G01*
X98286794Y-36648489D01*
X98298000Y-36700000D01*
X98298000Y-55310508D01*
X98278315Y-55377547D01*
X98225511Y-55423302D01*
X98156353Y-55433246D01*
X98130671Y-55426691D01*
X98112487Y-55419909D01*
X98112483Y-55419908D01*
X98052883Y-55413501D01*
X98052881Y-55413500D01*
X98052873Y-55413500D01*
X98052865Y-55413500D01*
X97904500Y-55413500D01*
X97837461Y-55393815D01*
X97791706Y-55341011D01*
X97780500Y-55289500D01*
X97780500Y-45421737D01*
X97782224Y-45406123D01*
X97781938Y-45406096D01*
X97782672Y-45398333D01*
X97780561Y-45331144D01*
X97780500Y-45327250D01*
X97780500Y-45299651D01*
X97780500Y-45299650D01*
X97779997Y-45295670D01*
X97779080Y-45284021D01*
X97778633Y-45269793D01*
X97777709Y-45240373D01*
X97772122Y-45221144D01*
X97768174Y-45202084D01*
X97765664Y-45182208D01*
X97749585Y-45141597D01*
X97745804Y-45130552D01*
X97733619Y-45088612D01*
X97723418Y-45071363D01*
X97714860Y-45053894D01*
X97707486Y-45035268D01*
X97707483Y-45035264D01*
X97707483Y-45035263D01*
X97681816Y-44999935D01*
X97675403Y-44990172D01*
X97653172Y-44952583D01*
X97653170Y-44952579D01*
X97653166Y-44952575D01*
X97653163Y-44952571D01*
X97639005Y-44938413D01*
X97626370Y-44923620D01*
X97614593Y-44907412D01*
X97580945Y-44879576D01*
X97572304Y-44871713D01*
X95369803Y-42669212D01*
X95359980Y-42656950D01*
X95359759Y-42657134D01*
X95354786Y-42651122D01*
X95305776Y-42605099D01*
X95302977Y-42602386D01*
X95283477Y-42582885D01*
X95283471Y-42582880D01*
X95280286Y-42580409D01*
X95271434Y-42572848D01*
X95239582Y-42542938D01*
X95239580Y-42542936D01*
X95239577Y-42542935D01*
X95222029Y-42533288D01*
X95205763Y-42522604D01*
X95189932Y-42510324D01*
X95149849Y-42492978D01*
X95139363Y-42487841D01*
X95101094Y-42466803D01*
X95101092Y-42466802D01*
X95081693Y-42461822D01*
X95063281Y-42455518D01*
X95044898Y-42447562D01*
X95044892Y-42447560D01*
X95001760Y-42440729D01*
X94990322Y-42438361D01*
X94948020Y-42427500D01*
X94948019Y-42427500D01*
X94927984Y-42427500D01*
X94908586Y-42425973D01*
X94901162Y-42424797D01*
X94888805Y-42422840D01*
X94888804Y-42422840D01*
X94845325Y-42426950D01*
X94833656Y-42427500D01*
X88717738Y-42427500D01*
X88702121Y-42425776D01*
X88702094Y-42426062D01*
X88694332Y-42425327D01*
X88627145Y-42427439D01*
X88623251Y-42427500D01*
X88595650Y-42427500D01*
X88591962Y-42427965D01*
X88591649Y-42428005D01*
X88580031Y-42428918D01*
X88536373Y-42430290D01*
X88536372Y-42430290D01*
X88517129Y-42435881D01*
X88498079Y-42439825D01*
X88478211Y-42442334D01*
X88478210Y-42442334D01*
X88437599Y-42458413D01*
X88426554Y-42462194D01*
X88384614Y-42474379D01*
X88384610Y-42474381D01*
X88367366Y-42484579D01*
X88349905Y-42493133D01*
X88331274Y-42500510D01*
X88331262Y-42500517D01*
X88295933Y-42526185D01*
X88286173Y-42532596D01*
X88248580Y-42554829D01*
X88234414Y-42568995D01*
X88219624Y-42581627D01*
X88203414Y-42593404D01*
X88203408Y-42593410D01*
X88182042Y-42619238D01*
X88124142Y-42658345D01*
X88054291Y-42659941D01*
X87994665Y-42623519D01*
X87964196Y-42560643D01*
X87962499Y-42540197D01*
X87962499Y-42128129D01*
X87962498Y-42128123D01*
X87962497Y-42128116D01*
X87956091Y-42068517D01*
X87905796Y-41933669D01*
X87843081Y-41849893D01*
X87818664Y-41784431D01*
X87833515Y-41716158D01*
X87843082Y-41701271D01*
X87905352Y-41618089D01*
X87905354Y-41618086D01*
X87955596Y-41483379D01*
X87955598Y-41483372D01*
X87961999Y-41423844D01*
X87962000Y-41423827D01*
X87962000Y-40876000D01*
X84962000Y-40876000D01*
X84930072Y-40907928D01*
X84914414Y-40916477D01*
X84928554Y-40924821D01*
X84959977Y-40987226D01*
X84962000Y-41009533D01*
X84962000Y-41423844D01*
X84968401Y-41483372D01*
X84968403Y-41483379D01*
X85018645Y-41618086D01*
X85018646Y-41618088D01*
X85080918Y-41701272D01*
X85105335Y-41766736D01*
X85090484Y-41835009D01*
X85080918Y-41849894D01*
X85018204Y-41933669D01*
X85018202Y-41933671D01*
X84967908Y-42068517D01*
X84961501Y-42128116D01*
X84961501Y-42128123D01*
X84961500Y-42128135D01*
X84961500Y-42176500D01*
X84941815Y-42243539D01*
X84889011Y-42289294D01*
X84837500Y-42300500D01*
X81786499Y-42300500D01*
X81719460Y-42280815D01*
X81673705Y-42228011D01*
X81662499Y-42176500D01*
X81662499Y-40978129D01*
X81662498Y-40978123D01*
X81662497Y-40978116D01*
X81656091Y-40918517D01*
X81655330Y-40916477D01*
X81646947Y-40894000D01*
X82914540Y-40894000D01*
X82934326Y-41082256D01*
X82934327Y-41082259D01*
X82992818Y-41262277D01*
X82992821Y-41262284D01*
X83087467Y-41426216D01*
X83138931Y-41483372D01*
X83214129Y-41566888D01*
X83367265Y-41678148D01*
X83367270Y-41678151D01*
X83540192Y-41755142D01*
X83540197Y-41755144D01*
X83725354Y-41794500D01*
X83725355Y-41794500D01*
X83914644Y-41794500D01*
X83914646Y-41794500D01*
X84099803Y-41755144D01*
X84272730Y-41678151D01*
X84425871Y-41566888D01*
X84552533Y-41426216D01*
X84647179Y-41262284D01*
X84705674Y-41082256D01*
X84714679Y-40996570D01*
X84741264Y-40931957D01*
X84768083Y-40913240D01*
X84743123Y-40894556D01*
X84719070Y-40833208D01*
X84705674Y-40705744D01*
X84705672Y-40705740D01*
X84705416Y-40704532D01*
X84705372Y-40702885D01*
X84704994Y-40699280D01*
X84705277Y-40699250D01*
X84704450Y-40667620D01*
X84703915Y-40667604D01*
X84704160Y-40659805D01*
X84700050Y-40616324D01*
X84699500Y-40604655D01*
X84699500Y-40376000D01*
X84962000Y-40376000D01*
X86212000Y-40376000D01*
X86212000Y-39376000D01*
X86712000Y-39376000D01*
X86712000Y-40376000D01*
X87962000Y-40376000D01*
X87962000Y-39828172D01*
X87961999Y-39828155D01*
X87955598Y-39768627D01*
X87955596Y-39768620D01*
X87905354Y-39633913D01*
X87905350Y-39633906D01*
X87819190Y-39518812D01*
X87819187Y-39518809D01*
X87704093Y-39432649D01*
X87704086Y-39432645D01*
X87569379Y-39382403D01*
X87569372Y-39382401D01*
X87509844Y-39376000D01*
X86712000Y-39376000D01*
X86212000Y-39376000D01*
X85414155Y-39376000D01*
X85354627Y-39382401D01*
X85354620Y-39382403D01*
X85219913Y-39432645D01*
X85219906Y-39432649D01*
X85104812Y-39518809D01*
X85104809Y-39518812D01*
X85018649Y-39633906D01*
X85018645Y-39633913D01*
X84968403Y-39768620D01*
X84968401Y-39768627D01*
X84962000Y-39828155D01*
X84962000Y-40376000D01*
X84699500Y-40376000D01*
X84699500Y-38798687D01*
X84719185Y-38731648D01*
X84731350Y-38715715D01*
X84749891Y-38695122D01*
X84806533Y-38632216D01*
X84901179Y-38468284D01*
X84959674Y-38288256D01*
X84979460Y-38100000D01*
X84959674Y-37911744D01*
X84901179Y-37731716D01*
X84806533Y-37567784D01*
X84679871Y-37427112D01*
X84679870Y-37427111D01*
X84526734Y-37315851D01*
X84526729Y-37315848D01*
X84353807Y-37238857D01*
X84353802Y-37238855D01*
X84208001Y-37207865D01*
X84168646Y-37199500D01*
X83979354Y-37199500D01*
X83946897Y-37206398D01*
X83794197Y-37238855D01*
X83794192Y-37238857D01*
X83621270Y-37315848D01*
X83621265Y-37315851D01*
X83468129Y-37427111D01*
X83341466Y-37567785D01*
X83246821Y-37731715D01*
X83246818Y-37731722D01*
X83188327Y-37911740D01*
X83188326Y-37911744D01*
X83168540Y-38100000D01*
X83188326Y-38288256D01*
X83188327Y-38288259D01*
X83246818Y-38468277D01*
X83246821Y-38468284D01*
X83341467Y-38632216D01*
X83384772Y-38680310D01*
X83416650Y-38715715D01*
X83446880Y-38778706D01*
X83448500Y-38798687D01*
X83448500Y-39993156D01*
X83428815Y-40060195D01*
X83376011Y-40105950D01*
X83374939Y-40106434D01*
X83367268Y-40109849D01*
X83214129Y-40221111D01*
X83087466Y-40361785D01*
X82992821Y-40525715D01*
X82992818Y-40525722D01*
X82936436Y-40699250D01*
X82934326Y-40705744D01*
X82914540Y-40894000D01*
X81646947Y-40894000D01*
X81605797Y-40783671D01*
X81605793Y-40783664D01*
X81519547Y-40668455D01*
X81519544Y-40668452D01*
X81404335Y-40582206D01*
X81404328Y-40582202D01*
X81269482Y-40531908D01*
X81269483Y-40531908D01*
X81209883Y-40525501D01*
X81209881Y-40525500D01*
X81209873Y-40525500D01*
X81209864Y-40525500D01*
X79114129Y-40525500D01*
X79114123Y-40525501D01*
X79054516Y-40531908D01*
X78919671Y-40582202D01*
X78919664Y-40582206D01*
X78804455Y-40668452D01*
X78804452Y-40668455D01*
X78718206Y-40783664D01*
X78718202Y-40783671D01*
X78667908Y-40918517D01*
X78661501Y-40978116D01*
X78661501Y-40978123D01*
X78661500Y-40978135D01*
X78661500Y-44873870D01*
X78661501Y-44873876D01*
X78667908Y-44933483D01*
X78718202Y-45068328D01*
X78718206Y-45068335D01*
X78743214Y-45101741D01*
X78767632Y-45167205D01*
X78752781Y-45235478D01*
X78731629Y-45263733D01*
X78158498Y-45836864D01*
X78097175Y-45870349D01*
X78027483Y-45865365D01*
X77971550Y-45823493D01*
X77951741Y-45783778D01*
X77932283Y-45716806D01*
X77932282Y-45716803D01*
X77848685Y-45575447D01*
X77848678Y-45575438D01*
X77732561Y-45459321D01*
X77732552Y-45459314D01*
X77591196Y-45375717D01*
X77591193Y-45375716D01*
X77433488Y-45329898D01*
X77428059Y-45328907D01*
X77365648Y-45297496D01*
X77330127Y-45237330D01*
X77332410Y-45168609D01*
X77339674Y-45146256D01*
X77359460Y-44958000D01*
X77339674Y-44769744D01*
X77285112Y-44601823D01*
X77281181Y-44589722D01*
X77281180Y-44589721D01*
X77281179Y-44589716D01*
X77186533Y-44425784D01*
X77059871Y-44285112D01*
X77059870Y-44285111D01*
X76906734Y-44173851D01*
X76906729Y-44173848D01*
X76733807Y-44096857D01*
X76733802Y-44096855D01*
X76588001Y-44065865D01*
X76548646Y-44057500D01*
X76359354Y-44057500D01*
X76326897Y-44064398D01*
X76174197Y-44096855D01*
X76174192Y-44096857D01*
X76001270Y-44173848D01*
X76001265Y-44173851D01*
X75848129Y-44285111D01*
X75848128Y-44285112D01*
X75772840Y-44368727D01*
X75713353Y-44405375D01*
X75646097Y-44404831D01*
X75558567Y-44379401D01*
X75521701Y-44376500D01*
X75521694Y-44376500D01*
X74215306Y-44376500D01*
X74215298Y-44376500D01*
X74178432Y-44379401D01*
X74178426Y-44379402D01*
X74020606Y-44425254D01*
X74020603Y-44425255D01*
X73879137Y-44508917D01*
X73879129Y-44508923D01*
X73762923Y-44625129D01*
X73762917Y-44625137D01*
X73679255Y-44766603D01*
X73679254Y-44766606D01*
X73633402Y-44924426D01*
X73633401Y-44924432D01*
X73630500Y-44961298D01*
X73630500Y-45392701D01*
X73633401Y-45429567D01*
X73633402Y-45429573D01*
X73679254Y-45587393D01*
X73679255Y-45587396D01*
X73679256Y-45587398D01*
X73704976Y-45630888D01*
X73762917Y-45728862D01*
X73762923Y-45728870D01*
X73879129Y-45845076D01*
X73879133Y-45845079D01*
X73879135Y-45845081D01*
X74020602Y-45928744D01*
X74062224Y-45940836D01*
X74178426Y-45974597D01*
X74178429Y-45974597D01*
X74178431Y-45974598D01*
X74215306Y-45977500D01*
X74215314Y-45977500D01*
X75521686Y-45977500D01*
X75521694Y-45977500D01*
X75558569Y-45974598D01*
X75558571Y-45974597D01*
X75558573Y-45974597D01*
X75600191Y-45962505D01*
X75716398Y-45928744D01*
X75774694Y-45894268D01*
X75837815Y-45877000D01*
X76869500Y-45877000D01*
X76936539Y-45896685D01*
X76982294Y-45949489D01*
X76993500Y-46001000D01*
X76993500Y-46253000D01*
X76973815Y-46320039D01*
X76921011Y-46365794D01*
X76869500Y-46377000D01*
X75837815Y-46377000D01*
X75774694Y-46359732D01*
X75747247Y-46343500D01*
X75716398Y-46325256D01*
X75716397Y-46325255D01*
X75716396Y-46325255D01*
X75716393Y-46325254D01*
X75558573Y-46279402D01*
X75558567Y-46279401D01*
X75521701Y-46276500D01*
X75521694Y-46276500D01*
X74215306Y-46276500D01*
X74215298Y-46276500D01*
X74178432Y-46279401D01*
X74178426Y-46279402D01*
X74020606Y-46325254D01*
X74020603Y-46325255D01*
X73879137Y-46408917D01*
X73879129Y-46408923D01*
X73872872Y-46415181D01*
X73811549Y-46448666D01*
X73785191Y-46451500D01*
X69399743Y-46451500D01*
X69384122Y-46449775D01*
X69384095Y-46450061D01*
X69376333Y-46449326D01*
X69309113Y-46451439D01*
X69305219Y-46451500D01*
X69277650Y-46451500D01*
X69273673Y-46452002D01*
X69262042Y-46452917D01*
X69218374Y-46454289D01*
X69218368Y-46454290D01*
X69199126Y-46459880D01*
X69180087Y-46463823D01*
X69160217Y-46466334D01*
X69160203Y-46466337D01*
X69119598Y-46482413D01*
X69108554Y-46486194D01*
X69066614Y-46498379D01*
X69066610Y-46498381D01*
X69049366Y-46508579D01*
X69031905Y-46517133D01*
X69013274Y-46524510D01*
X69013262Y-46524517D01*
X68977933Y-46550185D01*
X68968173Y-46556596D01*
X68930580Y-46578829D01*
X68916414Y-46592995D01*
X68901624Y-46605627D01*
X68885414Y-46617404D01*
X68885411Y-46617407D01*
X68857573Y-46651058D01*
X68849711Y-46659697D01*
X65456228Y-50053181D01*
X65394905Y-50086666D01*
X65368547Y-50089500D01*
X65309354Y-50089500D01*
X65285699Y-50094528D01*
X65124197Y-50128855D01*
X65124192Y-50128857D01*
X64951270Y-50205848D01*
X64951265Y-50205851D01*
X64798129Y-50317111D01*
X64671466Y-50457785D01*
X64576821Y-50621715D01*
X64576818Y-50621722D01*
X64538797Y-50738740D01*
X64518326Y-50801744D01*
X64503795Y-50940000D01*
X64500679Y-50969649D01*
X64474094Y-51034263D01*
X64465039Y-51044368D01*
X62354208Y-53155199D01*
X62341951Y-53165020D01*
X62342134Y-53165241D01*
X62336122Y-53170214D01*
X62290098Y-53219223D01*
X62287391Y-53222016D01*
X62267889Y-53241517D01*
X62267875Y-53241534D01*
X62265407Y-53244715D01*
X62257843Y-53253570D01*
X62227937Y-53285418D01*
X62227936Y-53285420D01*
X62218284Y-53302976D01*
X62207610Y-53319226D01*
X62195329Y-53335061D01*
X62195324Y-53335068D01*
X62177975Y-53375158D01*
X62172838Y-53385644D01*
X62151803Y-53423906D01*
X62146822Y-53443307D01*
X62140521Y-53461710D01*
X62132562Y-53480102D01*
X62132561Y-53480105D01*
X62125728Y-53523243D01*
X62123360Y-53534674D01*
X62112501Y-53576971D01*
X62112500Y-53576982D01*
X62112500Y-53588680D01*
X62108605Y-53619515D01*
X62099500Y-53654976D01*
X62099500Y-53675016D01*
X62097973Y-53694415D01*
X62094840Y-53714194D01*
X62094840Y-53714195D01*
X62098950Y-53757674D01*
X62099500Y-53769343D01*
X62099500Y-56225452D01*
X62079815Y-56292491D01*
X62052410Y-56322719D01*
X62046958Y-56327029D01*
X61927030Y-56446958D01*
X61881313Y-56521077D01*
X61829365Y-56567801D01*
X61760402Y-56579022D01*
X61696320Y-56551179D01*
X61692320Y-56547328D01*
X61692201Y-56547461D01*
X61687369Y-56543110D01*
X61534234Y-56431851D01*
X61534229Y-56431848D01*
X61361307Y-56354857D01*
X61361302Y-56354855D01*
X61210109Y-56322719D01*
X61176146Y-56315500D01*
X60986854Y-56315500D01*
X60954397Y-56322398D01*
X60801697Y-56354855D01*
X60801692Y-56354857D01*
X60628770Y-56431848D01*
X60628765Y-56431851D01*
X60475629Y-56543111D01*
X60348966Y-56683785D01*
X60254321Y-56847715D01*
X60254318Y-56847722D01*
X60198897Y-57018292D01*
X60195826Y-57027744D01*
X60176040Y-57216000D01*
X60195826Y-57404256D01*
X60195827Y-57404259D01*
X60254318Y-57584277D01*
X60254321Y-57584284D01*
X60348967Y-57748216D01*
X60475629Y-57888888D01*
X60476158Y-57889475D01*
X60506388Y-57952466D01*
X60497763Y-58021801D01*
X60489547Y-58037544D01*
X60441454Y-58115513D01*
X60441452Y-58115518D01*
X60388144Y-58276393D01*
X60378000Y-58375677D01*
X60378000Y-58424000D01*
X61454000Y-58424000D01*
X61521039Y-58443685D01*
X61566794Y-58496489D01*
X61578000Y-58548000D01*
X61578000Y-58800000D01*
X61558315Y-58867039D01*
X61505511Y-58912794D01*
X61454000Y-58924000D01*
X60378001Y-58924000D01*
X60378001Y-58972322D01*
X60388144Y-59071606D01*
X60388237Y-59071887D01*
X60388243Y-59072073D01*
X60389561Y-59078229D01*
X60388463Y-59078464D01*
X60390637Y-59141716D01*
X60354904Y-59201757D01*
X60292383Y-59232948D01*
X60283132Y-59234247D01*
X60181291Y-59244651D01*
X60181289Y-59244651D01*
X60020305Y-59297996D01*
X60020294Y-59298001D01*
X59875959Y-59387029D01*
X59875955Y-59387032D01*
X59756032Y-59506955D01*
X59756029Y-59506959D01*
X59667001Y-59651294D01*
X59666996Y-59651305D01*
X59613651Y-59812290D01*
X59603500Y-59911647D01*
X59603500Y-60458337D01*
X59603501Y-60458355D01*
X59613650Y-60557707D01*
X59613651Y-60557710D01*
X59666996Y-60718694D01*
X59667001Y-60718705D01*
X59756029Y-60863040D01*
X59756032Y-60863044D01*
X59765660Y-60872672D01*
X59799145Y-60933995D01*
X59794161Y-61003687D01*
X59765663Y-61048031D01*
X59756428Y-61057265D01*
X59756424Y-61057271D01*
X59667457Y-61201507D01*
X59667452Y-61201518D01*
X59614144Y-61362393D01*
X59604000Y-61461677D01*
X59604000Y-61485000D01*
X61116386Y-61485000D01*
X61135004Y-61474834D01*
X61161362Y-61472000D01*
X62166000Y-61472000D01*
X62233039Y-61491685D01*
X62278794Y-61544489D01*
X62290000Y-61596000D01*
X62290000Y-62696999D01*
X62296581Y-62696999D01*
X62367102Y-62690591D01*
X62367107Y-62690590D01*
X62529396Y-62640018D01*
X62674877Y-62552072D01*
X62674878Y-62552071D01*
X62776963Y-62449985D01*
X62838286Y-62416499D01*
X62907977Y-62421483D01*
X62952326Y-62449984D01*
X63054811Y-62552469D01*
X63054813Y-62552470D01*
X63054815Y-62552472D01*
X63200394Y-62640478D01*
X63362804Y-62691086D01*
X63433384Y-62697500D01*
X63766500Y-62697500D01*
X63833539Y-62717185D01*
X63879294Y-62769989D01*
X63890500Y-62821500D01*
X63890500Y-63679779D01*
X63870815Y-63746818D01*
X63858650Y-63762751D01*
X63742466Y-63891787D01*
X63647821Y-64055717D01*
X63647818Y-64055724D01*
X63613466Y-64161450D01*
X63589326Y-64235746D01*
X63578409Y-64339616D01*
X63569540Y-64424002D01*
X63575099Y-64476899D01*
X63562529Y-64545629D01*
X63560000Y-64549127D01*
X63560000Y-66506999D01*
X63566581Y-66506999D01*
X63637102Y-66500591D01*
X63637107Y-66500590D01*
X63799396Y-66450018D01*
X63944877Y-66362072D01*
X63944878Y-66362071D01*
X64046963Y-66259985D01*
X64108286Y-66226499D01*
X64177977Y-66231483D01*
X64222326Y-66259984D01*
X64324811Y-66362469D01*
X64324813Y-66362470D01*
X64324815Y-66362472D01*
X64470394Y-66450478D01*
X64632804Y-66501086D01*
X64703384Y-66507500D01*
X64703387Y-66507500D01*
X65216613Y-66507500D01*
X65216616Y-66507500D01*
X65287196Y-66501086D01*
X65354865Y-66480000D01*
X66970001Y-66480000D01*
X66970001Y-66486582D01*
X66976408Y-66557102D01*
X66976409Y-66557107D01*
X67026981Y-66719396D01*
X67114927Y-66864877D01*
X67235122Y-66985072D01*
X67380604Y-67073019D01*
X67380603Y-67073019D01*
X67542894Y-67123590D01*
X67542892Y-67123590D01*
X67613418Y-67129999D01*
X67694999Y-67129998D01*
X67695000Y-67129998D01*
X67695000Y-66480000D01*
X68195000Y-66480000D01*
X68195000Y-67129999D01*
X68276581Y-67129999D01*
X68347102Y-67123591D01*
X68347107Y-67123590D01*
X68509396Y-67073018D01*
X68654877Y-66985072D01*
X68775072Y-66864877D01*
X68863019Y-66719395D01*
X68913590Y-66557106D01*
X68920000Y-66486572D01*
X68920000Y-66480000D01*
X68195000Y-66480000D01*
X67695000Y-66480000D01*
X66970001Y-66480000D01*
X65354865Y-66480000D01*
X65449606Y-66450478D01*
X65595185Y-66362472D01*
X65715472Y-66242185D01*
X65803478Y-66096606D01*
X65854086Y-65934196D01*
X65855964Y-65913524D01*
X65881634Y-65848543D01*
X65906562Y-65824435D01*
X66029883Y-65734838D01*
X66156545Y-65594166D01*
X66251191Y-65430234D01*
X66251194Y-65430222D01*
X66253045Y-65426069D01*
X66298293Y-65372830D01*
X66365142Y-65352506D01*
X66366327Y-65352500D01*
X66752613Y-65352500D01*
X66752616Y-65352500D01*
X66823196Y-65346086D01*
X66985606Y-65295478D01*
X67002365Y-65285347D01*
X67032857Y-65266913D01*
X67100411Y-65249075D01*
X67166885Y-65270591D01*
X67184690Y-65285347D01*
X67217015Y-65317672D01*
X67250500Y-65378995D01*
X67245516Y-65448687D01*
X67217016Y-65493034D01*
X67114926Y-65595124D01*
X67026980Y-65740604D01*
X66976409Y-65902893D01*
X66970000Y-65973427D01*
X66970000Y-65980000D01*
X68919999Y-65980000D01*
X68919999Y-65973417D01*
X68913591Y-65902897D01*
X68913590Y-65902892D01*
X68863018Y-65740603D01*
X68775072Y-65595122D01*
X68672984Y-65493034D01*
X68639499Y-65431711D01*
X68644483Y-65362019D01*
X68672983Y-65317673D01*
X68775472Y-65215185D01*
X68863478Y-65069606D01*
X68914086Y-64907196D01*
X68920500Y-64836616D01*
X68920500Y-64323384D01*
X68914086Y-64252804D01*
X68863478Y-64090394D01*
X68775472Y-63944815D01*
X68775470Y-63944813D01*
X68775469Y-63944811D01*
X68655188Y-63824530D01*
X68642419Y-63816811D01*
X68509606Y-63736522D01*
X68347196Y-63685914D01*
X68347194Y-63685913D01*
X68347192Y-63685913D01*
X68297778Y-63681423D01*
X68276616Y-63679500D01*
X67613384Y-63679500D01*
X67594145Y-63681248D01*
X67542807Y-63685913D01*
X67542804Y-63685914D01*
X67380394Y-63736522D01*
X67380392Y-63736522D01*
X67380392Y-63736523D01*
X67333138Y-63765088D01*
X67265583Y-63782923D01*
X67199109Y-63761404D01*
X67181310Y-63746653D01*
X67170244Y-63735587D01*
X67149337Y-63714680D01*
X67115853Y-63653360D01*
X67120837Y-63583668D01*
X67149336Y-63539320D01*
X67251472Y-63437185D01*
X67339478Y-63291606D01*
X67386342Y-63141209D01*
X67425079Y-63083064D01*
X67489104Y-63055089D01*
X67536281Y-63059245D01*
X67536369Y-63058806D01*
X67540406Y-63059609D01*
X67541615Y-63059715D01*
X67542804Y-63060086D01*
X67613384Y-63066500D01*
X67613387Y-63066500D01*
X68276613Y-63066500D01*
X68276616Y-63066500D01*
X68347196Y-63060086D01*
X68509606Y-63009478D01*
X68642852Y-62928927D01*
X68710404Y-62911092D01*
X68771147Y-62928927D01*
X68904394Y-63009478D01*
X69066804Y-63060086D01*
X69137384Y-63066500D01*
X69137387Y-63066500D01*
X69800613Y-63066500D01*
X69800616Y-63066500D01*
X69871196Y-63060086D01*
X70033606Y-63009478D01*
X70079192Y-62981918D01*
X70117565Y-62966745D01*
X70119082Y-62966422D01*
X70129803Y-62964144D01*
X70302730Y-62887151D01*
X70455871Y-62775888D01*
X70582533Y-62635216D01*
X70677179Y-62471284D01*
X70735674Y-62291256D01*
X70755460Y-62103000D01*
X70735674Y-61914744D01*
X70677179Y-61734716D01*
X70582533Y-61570784D01*
X70455871Y-61430112D01*
X70320966Y-61332098D01*
X70278301Y-61276770D01*
X70272322Y-61207156D01*
X70296243Y-61155306D01*
X70299466Y-61151190D01*
X70299472Y-61151185D01*
X70387478Y-61005606D01*
X70438086Y-60843196D01*
X70444500Y-60772616D01*
X70444500Y-60259384D01*
X70438086Y-60188804D01*
X70387478Y-60026394D01*
X70299472Y-59880815D01*
X70299470Y-59880813D01*
X70299469Y-59880811D01*
X70179188Y-59760530D01*
X70166849Y-59753071D01*
X70033606Y-59672522D01*
X69871196Y-59621914D01*
X69871194Y-59621913D01*
X69871192Y-59621913D01*
X69821778Y-59617423D01*
X69800616Y-59615500D01*
X69137384Y-59615500D01*
X69118145Y-59617248D01*
X69066807Y-59621913D01*
X68904393Y-59672522D01*
X68771150Y-59753071D01*
X68703595Y-59770907D01*
X68642850Y-59753071D01*
X68509606Y-59672522D01*
X68441510Y-59651303D01*
X68347196Y-59621914D01*
X68347194Y-59621913D01*
X68347192Y-59621913D01*
X68297778Y-59617423D01*
X68276616Y-59615500D01*
X68276613Y-59615500D01*
X68262149Y-59615500D01*
X68195110Y-59595815D01*
X68149355Y-59543011D01*
X68139411Y-59473853D01*
X68144443Y-59452495D01*
X68148349Y-59440708D01*
X68158500Y-59341345D01*
X68158499Y-58794656D01*
X68148349Y-58695292D01*
X68095003Y-58534303D01*
X68094999Y-58534297D01*
X68094998Y-58534294D01*
X68005970Y-58389959D01*
X68005967Y-58389955D01*
X67996339Y-58380327D01*
X67962854Y-58319004D01*
X67967838Y-58249312D01*
X67996345Y-58204959D01*
X68005573Y-58195731D01*
X68094542Y-58051492D01*
X68094547Y-58051481D01*
X68147855Y-57890606D01*
X68157999Y-57791322D01*
X68158000Y-57791309D01*
X68158000Y-57768000D01*
X66208001Y-57768000D01*
X66208001Y-57791322D01*
X66218144Y-57890607D01*
X66271452Y-58051481D01*
X66271457Y-58051492D01*
X66360424Y-58195728D01*
X66360427Y-58195732D01*
X66369660Y-58204965D01*
X66403145Y-58266288D01*
X66398161Y-58335980D01*
X66369663Y-58380324D01*
X66360033Y-58389953D01*
X66360029Y-58389959D01*
X66271001Y-58534294D01*
X66270996Y-58534305D01*
X66217651Y-58695290D01*
X66207500Y-58794647D01*
X66207500Y-59341337D01*
X66207501Y-59341355D01*
X66216699Y-59431391D01*
X66203929Y-59500084D01*
X66156048Y-59550968D01*
X66088258Y-59567888D01*
X66022082Y-59545472D01*
X66005660Y-59531673D01*
X64745621Y-58271634D01*
X64712136Y-58210311D01*
X64717120Y-58140619D01*
X64758992Y-58084686D01*
X64794300Y-58066247D01*
X64808477Y-58061549D01*
X64808492Y-58061542D01*
X64952728Y-57972575D01*
X64952732Y-57972572D01*
X65072572Y-57852732D01*
X65072575Y-57852728D01*
X65161542Y-57708492D01*
X65161547Y-57708481D01*
X65214855Y-57547606D01*
X65224999Y-57448322D01*
X65225000Y-57448309D01*
X65225000Y-57400000D01*
X64149000Y-57400000D01*
X64081961Y-57380315D01*
X64036206Y-57327511D01*
X64025000Y-57276000D01*
X64025000Y-57268000D01*
X66208000Y-57268000D01*
X66933000Y-57268000D01*
X66933000Y-56568000D01*
X67433000Y-56568000D01*
X67433000Y-57268000D01*
X68157999Y-57268000D01*
X68157999Y-57244692D01*
X68157998Y-57244677D01*
X68147855Y-57145392D01*
X68094547Y-56984518D01*
X68094542Y-56984507D01*
X68005575Y-56840271D01*
X68005572Y-56840267D01*
X67885732Y-56720427D01*
X67885728Y-56720424D01*
X67741492Y-56631457D01*
X67741481Y-56631452D01*
X67580606Y-56578144D01*
X67481322Y-56568000D01*
X67433000Y-56568000D01*
X66933000Y-56568000D01*
X66932999Y-56567999D01*
X66884693Y-56568000D01*
X66884675Y-56568001D01*
X66785392Y-56578144D01*
X66624518Y-56631452D01*
X66624507Y-56631457D01*
X66480271Y-56720424D01*
X66480267Y-56720427D01*
X66360427Y-56840267D01*
X66360424Y-56840271D01*
X66271457Y-56984507D01*
X66271452Y-56984518D01*
X66218144Y-57145393D01*
X66208000Y-57244677D01*
X66208000Y-57268000D01*
X64025000Y-57268000D01*
X64025000Y-56175000D01*
X64525000Y-56175000D01*
X64525000Y-56900000D01*
X65224999Y-56900000D01*
X65224999Y-56851692D01*
X65224998Y-56851677D01*
X65214855Y-56752392D01*
X65161547Y-56591518D01*
X65161542Y-56591507D01*
X65072575Y-56447271D01*
X65072572Y-56447267D01*
X64952732Y-56327427D01*
X64952728Y-56327424D01*
X64808492Y-56238457D01*
X64808481Y-56238452D01*
X64647606Y-56185144D01*
X64548322Y-56175000D01*
X64525000Y-56175000D01*
X64025000Y-56175000D01*
X64025000Y-56174999D01*
X64001693Y-56175000D01*
X64001674Y-56175001D01*
X63902392Y-56185144D01*
X63741518Y-56238452D01*
X63741507Y-56238457D01*
X63597271Y-56327424D01*
X63597264Y-56327430D01*
X63588028Y-56336665D01*
X63526703Y-56370146D01*
X63457011Y-56365157D01*
X63412672Y-56336659D01*
X63403046Y-56327033D01*
X63397590Y-56322719D01*
X63357213Y-56265697D01*
X63350500Y-56225452D01*
X63350500Y-53979452D01*
X63370185Y-53912413D01*
X63386819Y-53891771D01*
X65351772Y-51926819D01*
X65413095Y-51893334D01*
X65439453Y-51890500D01*
X65498644Y-51890500D01*
X65498646Y-51890500D01*
X65683803Y-51851144D01*
X65856730Y-51774151D01*
X66009871Y-51662888D01*
X66136533Y-51522216D01*
X66231179Y-51358284D01*
X66289674Y-51178256D01*
X66307321Y-51010345D01*
X66333905Y-50945732D01*
X66342952Y-50935636D01*
X68519589Y-48759000D01*
X72050000Y-48759000D01*
X72775000Y-48759000D01*
X72775000Y-48059000D01*
X72774999Y-48058999D01*
X72726693Y-48059000D01*
X72726675Y-48059001D01*
X72627392Y-48069144D01*
X72466518Y-48122452D01*
X72466507Y-48122457D01*
X72322271Y-48211424D01*
X72322267Y-48211427D01*
X72202427Y-48331267D01*
X72202424Y-48331271D01*
X72113457Y-48475507D01*
X72113452Y-48475518D01*
X72060144Y-48636393D01*
X72050000Y-48735677D01*
X72050000Y-48759000D01*
X68519589Y-48759000D01*
X69539771Y-47738819D01*
X69601094Y-47705334D01*
X69627452Y-47702500D01*
X73785191Y-47702500D01*
X73852230Y-47722185D01*
X73872872Y-47738819D01*
X73879129Y-47745076D01*
X73879134Y-47745080D01*
X73879135Y-47745081D01*
X73886936Y-47749695D01*
X73934621Y-47800762D01*
X73947127Y-47869504D01*
X73920483Y-47934094D01*
X73894674Y-47956459D01*
X73895202Y-47957139D01*
X73889033Y-47961923D01*
X73772827Y-48078129D01*
X73772818Y-48078140D01*
X73767318Y-48087442D01*
X73716249Y-48135125D01*
X73647507Y-48147628D01*
X73595490Y-48129858D01*
X73583492Y-48122457D01*
X73583481Y-48122452D01*
X73422606Y-48069144D01*
X73323322Y-48059000D01*
X73275000Y-48059000D01*
X73275000Y-49135000D01*
X73255315Y-49202039D01*
X73202511Y-49247794D01*
X73151000Y-49259000D01*
X72050001Y-49259000D01*
X72050001Y-49282322D01*
X72060144Y-49381607D01*
X72113452Y-49542481D01*
X72113457Y-49542492D01*
X72202424Y-49686728D01*
X72202427Y-49686732D01*
X72211660Y-49695965D01*
X72245145Y-49757288D01*
X72240161Y-49826980D01*
X72211663Y-49871324D01*
X72202033Y-49880953D01*
X72202029Y-49880959D01*
X72113001Y-50025294D01*
X72112996Y-50025305D01*
X72059651Y-50186290D01*
X72049500Y-50285647D01*
X72049500Y-50832352D01*
X72049661Y-50835494D01*
X72049268Y-50835513D01*
X72048915Y-50859499D01*
X72038515Y-50938500D01*
X72038318Y-50940000D01*
X72042221Y-50969649D01*
X72042439Y-50971301D01*
X72043500Y-50987487D01*
X72043500Y-54095547D01*
X72023815Y-54162586D01*
X71971011Y-54208341D01*
X71901853Y-54218285D01*
X71838297Y-54189260D01*
X71831819Y-54183228D01*
X71550960Y-53902369D01*
X71517475Y-53841046D01*
X71515323Y-53827668D01*
X71497674Y-53659744D01*
X71439179Y-53479716D01*
X71344533Y-53315784D01*
X71217871Y-53175112D01*
X71217870Y-53175111D01*
X71064734Y-53063851D01*
X71064729Y-53063848D01*
X70891807Y-52986857D01*
X70891802Y-52986855D01*
X70741724Y-52954956D01*
X70706646Y-52947500D01*
X70517354Y-52947500D01*
X70484897Y-52954398D01*
X70332197Y-52986855D01*
X70332192Y-52986857D01*
X70159270Y-53063848D01*
X70159265Y-53063851D01*
X70006129Y-53175111D01*
X69879466Y-53315785D01*
X69784821Y-53479715D01*
X69784818Y-53479722D01*
X69726327Y-53659740D01*
X69726326Y-53659744D01*
X69706540Y-53848000D01*
X69726326Y-54036256D01*
X69726327Y-54036259D01*
X69784818Y-54216277D01*
X69784821Y-54216284D01*
X69879467Y-54380216D01*
X69937809Y-54445011D01*
X70006129Y-54520888D01*
X70159265Y-54632148D01*
X70159270Y-54632151D01*
X70332192Y-54709142D01*
X70332197Y-54709144D01*
X70517354Y-54748500D01*
X70576548Y-54748500D01*
X70643587Y-54768185D01*
X70664229Y-54784819D01*
X77189181Y-61309771D01*
X77222666Y-61371094D01*
X77225500Y-61397452D01*
X77225500Y-61785312D01*
X77205815Y-61852351D01*
X77193650Y-61868284D01*
X77118466Y-61951784D01*
X77023821Y-62115715D01*
X77023818Y-62115722D01*
X76968295Y-62286606D01*
X76965326Y-62295744D01*
X76945540Y-62484000D01*
X76965326Y-62672256D01*
X76965327Y-62672259D01*
X77023818Y-62852277D01*
X77023821Y-62852284D01*
X77118467Y-63016216D01*
X77220191Y-63129192D01*
X77245129Y-63156888D01*
X77398265Y-63268148D01*
X77398270Y-63268151D01*
X77571192Y-63345142D01*
X77571197Y-63345144D01*
X77756354Y-63384500D01*
X77756355Y-63384500D01*
X77945644Y-63384500D01*
X77945646Y-63384500D01*
X78130803Y-63345144D01*
X78303730Y-63268151D01*
X78456871Y-63156888D01*
X78583533Y-63016216D01*
X78678179Y-62852284D01*
X78736674Y-62672256D01*
X78756460Y-62484000D01*
X78736674Y-62295744D01*
X78678179Y-62115716D01*
X78583533Y-61951784D01*
X78550182Y-61914744D01*
X78508350Y-61868284D01*
X78478120Y-61805292D01*
X78476500Y-61785312D01*
X78476500Y-61169742D01*
X78478224Y-61154122D01*
X78477939Y-61154096D01*
X78478671Y-61146340D01*
X78478673Y-61146333D01*
X78476561Y-61079126D01*
X78476500Y-61075231D01*
X78476500Y-61047654D01*
X78476500Y-61047650D01*
X78475996Y-61043665D01*
X78475080Y-61032021D01*
X78474250Y-61005606D01*
X78473709Y-60988373D01*
X78468122Y-60969144D01*
X78464174Y-60950084D01*
X78461663Y-60930204D01*
X78445588Y-60889604D01*
X78441804Y-60878552D01*
X78429618Y-60836609D01*
X78429616Y-60836606D01*
X78419423Y-60819371D01*
X78410861Y-60801894D01*
X78403487Y-60783269D01*
X78377816Y-60747937D01*
X78371405Y-60738177D01*
X78349170Y-60700580D01*
X78349168Y-60700578D01*
X78349165Y-60700574D01*
X78335006Y-60686415D01*
X78322368Y-60671619D01*
X78320478Y-60669017D01*
X78310594Y-60655413D01*
X78302086Y-60648375D01*
X78276940Y-60627572D01*
X78268299Y-60619709D01*
X76839590Y-59191000D01*
X94783001Y-59191000D01*
X94783001Y-59214322D01*
X94793144Y-59313607D01*
X94846452Y-59474481D01*
X94846457Y-59474492D01*
X94935424Y-59618728D01*
X94935427Y-59618732D01*
X95055267Y-59738572D01*
X95055271Y-59738575D01*
X95199507Y-59827542D01*
X95199518Y-59827547D01*
X95360393Y-59880855D01*
X95459683Y-59890999D01*
X95507999Y-59890998D01*
X95508000Y-59890998D01*
X95508000Y-59191000D01*
X94783001Y-59191000D01*
X76839590Y-59191000D01*
X73578772Y-55930181D01*
X73545287Y-55868858D01*
X73550271Y-55799166D01*
X73592143Y-55743233D01*
X73657607Y-55718816D01*
X73666453Y-55718500D01*
X91138513Y-55718500D01*
X91154697Y-55719560D01*
X91186000Y-55723682D01*
X91186001Y-55723682D01*
X91238254Y-55716802D01*
X91342762Y-55703044D01*
X91488841Y-55642536D01*
X91614282Y-55546282D01*
X91633510Y-55521222D01*
X91644189Y-55509044D01*
X93003416Y-54149819D01*
X93064739Y-54116334D01*
X93091097Y-54113500D01*
X93185644Y-54113500D01*
X93185646Y-54113500D01*
X93370803Y-54074144D01*
X93543730Y-53997151D01*
X93696871Y-53885888D01*
X93823533Y-53745216D01*
X93918179Y-53581284D01*
X93976674Y-53401256D01*
X93996460Y-53213000D01*
X93976674Y-53024744D01*
X93918179Y-52844716D01*
X93823533Y-52680784D01*
X93696871Y-52540112D01*
X93696870Y-52540111D01*
X93543734Y-52428851D01*
X93543729Y-52428848D01*
X93370807Y-52351857D01*
X93370802Y-52351855D01*
X93225001Y-52320865D01*
X93185646Y-52312500D01*
X92996354Y-52312500D01*
X92963897Y-52319398D01*
X92811197Y-52351855D01*
X92811192Y-52351857D01*
X92638270Y-52428848D01*
X92638265Y-52428851D01*
X92485129Y-52540111D01*
X92358466Y-52680785D01*
X92263821Y-52844715D01*
X92263818Y-52844722D01*
X92208569Y-53014762D01*
X92205326Y-53024744D01*
X92185540Y-53213000D01*
X92185540Y-53213002D01*
X92185540Y-53217862D01*
X92165855Y-53284901D01*
X92149221Y-53305543D01*
X90973584Y-54481181D01*
X90912261Y-54514666D01*
X90885903Y-54517500D01*
X82026097Y-54517500D01*
X81959058Y-54497815D01*
X81913303Y-54445011D01*
X81903359Y-54375853D01*
X81932384Y-54312297D01*
X81938416Y-54305819D01*
X82170093Y-54074142D01*
X82928044Y-53316189D01*
X82940222Y-53305510D01*
X82965282Y-53286282D01*
X83061536Y-53160841D01*
X83122044Y-53014762D01*
X83125718Y-52986856D01*
X83136454Y-52905314D01*
X83164721Y-52841417D01*
X83223046Y-52802947D01*
X83259393Y-52797500D01*
X90630513Y-52797500D01*
X90646697Y-52798560D01*
X90678000Y-52802682D01*
X90678001Y-52802682D01*
X90730254Y-52795802D01*
X90834762Y-52782044D01*
X90980841Y-52721536D01*
X91007294Y-52701238D01*
X91106282Y-52625282D01*
X91125510Y-52600222D01*
X91136189Y-52588044D01*
X92749416Y-50974819D01*
X92810739Y-50941334D01*
X92837097Y-50938500D01*
X92931644Y-50938500D01*
X92931646Y-50938500D01*
X93116803Y-50899144D01*
X93289730Y-50822151D01*
X93442871Y-50710888D01*
X93569533Y-50570216D01*
X93664179Y-50406284D01*
X93722674Y-50226256D01*
X93742460Y-50038000D01*
X93722674Y-49849744D01*
X93664179Y-49669716D01*
X93569533Y-49505784D01*
X93442871Y-49365112D01*
X93442870Y-49365111D01*
X93289734Y-49253851D01*
X93289729Y-49253848D01*
X93116807Y-49176857D01*
X93116802Y-49176855D01*
X92971001Y-49145865D01*
X92931646Y-49137500D01*
X92742354Y-49137500D01*
X92692375Y-49148123D01*
X92557199Y-49176855D01*
X92379564Y-49255944D01*
X92310314Y-49265228D01*
X92247037Y-49235600D01*
X92209824Y-49176465D01*
X92205809Y-49155638D01*
X92198674Y-49087744D01*
X92140179Y-48907716D01*
X92045533Y-48743784D01*
X91918871Y-48603112D01*
X91896404Y-48586788D01*
X91851916Y-48554466D01*
X91809250Y-48499135D01*
X91803272Y-48429522D01*
X91835878Y-48367727D01*
X91837043Y-48366545D01*
X93475787Y-46727801D01*
X93488042Y-46717986D01*
X93487859Y-46717764D01*
X93493868Y-46712791D01*
X93493877Y-46712786D01*
X93539949Y-46663722D01*
X93542566Y-46661023D01*
X93562120Y-46641471D01*
X93564576Y-46638303D01*
X93572156Y-46629427D01*
X93602062Y-46597582D01*
X93611713Y-46580024D01*
X93622396Y-46563761D01*
X93634673Y-46547936D01*
X93652021Y-46507844D01*
X93657151Y-46497371D01*
X93678197Y-46459092D01*
X93683180Y-46439680D01*
X93689481Y-46421280D01*
X93697437Y-46402896D01*
X93704270Y-46359748D01*
X93706633Y-46348338D01*
X93717500Y-46306019D01*
X93717500Y-46285983D01*
X93719027Y-46266582D01*
X93722160Y-46246804D01*
X93718050Y-46203324D01*
X93717500Y-46191655D01*
X93717500Y-44688687D01*
X93737185Y-44621648D01*
X93749350Y-44605715D01*
X93778111Y-44573772D01*
X93824533Y-44522216D01*
X93919179Y-44358284D01*
X93977674Y-44178256D01*
X93997460Y-43990000D01*
X93979115Y-43815458D01*
X93991685Y-43746732D01*
X94039417Y-43695708D01*
X94102436Y-43678500D01*
X94558548Y-43678500D01*
X94625587Y-43698185D01*
X94646229Y-43714819D01*
X96493181Y-45561771D01*
X96526666Y-45623094D01*
X96529500Y-45649452D01*
X96529500Y-55289500D01*
X96509815Y-55356539D01*
X96457011Y-55402294D01*
X96405501Y-55413500D01*
X96257130Y-55413500D01*
X96257123Y-55413501D01*
X96197516Y-55419908D01*
X96062671Y-55470202D01*
X96062664Y-55470206D01*
X95947455Y-55556452D01*
X95947452Y-55556455D01*
X95861206Y-55671664D01*
X95861202Y-55671671D01*
X95810908Y-55806517D01*
X95804501Y-55866116D01*
X95804500Y-55866135D01*
X95804500Y-56316500D01*
X95784815Y-56383539D01*
X95732011Y-56429294D01*
X95680501Y-56440500D01*
X95459663Y-56440500D01*
X95459644Y-56440501D01*
X95360292Y-56450650D01*
X95360289Y-56450651D01*
X95199305Y-56503996D01*
X95199294Y-56504001D01*
X95054959Y-56593029D01*
X95054955Y-56593032D01*
X94935032Y-56712955D01*
X94935029Y-56712959D01*
X94846001Y-56857294D01*
X94845996Y-56857305D01*
X94792651Y-57018290D01*
X94782500Y-57117647D01*
X94782500Y-57664337D01*
X94782501Y-57664355D01*
X94792650Y-57763707D01*
X94792651Y-57763710D01*
X94845996Y-57924694D01*
X94846001Y-57924705D01*
X94935029Y-58069040D01*
X94935032Y-58069044D01*
X94944660Y-58078672D01*
X94978145Y-58139995D01*
X94973161Y-58209687D01*
X94944663Y-58254031D01*
X94935428Y-58263265D01*
X94935424Y-58263271D01*
X94846457Y-58407507D01*
X94846452Y-58407518D01*
X94793144Y-58568393D01*
X94783000Y-58667677D01*
X94783000Y-58691000D01*
X95884000Y-58691000D01*
X95951039Y-58710685D01*
X95996794Y-58763489D01*
X96008000Y-58815000D01*
X96008000Y-59821276D01*
X95988581Y-59887901D01*
X95959213Y-59933999D01*
X95981399Y-59981578D01*
X96116894Y-60175082D01*
X96283917Y-60342105D01*
X96477421Y-60477600D01*
X96691507Y-60577429D01*
X96691516Y-60577433D01*
X96905000Y-60634634D01*
X96905000Y-59739501D01*
X97012685Y-59788680D01*
X97119237Y-59804000D01*
X97190763Y-59804000D01*
X97297315Y-59788680D01*
X97405000Y-59739501D01*
X97405000Y-60634633D01*
X97618483Y-60577433D01*
X97618492Y-60577429D01*
X97832578Y-60477600D01*
X98026082Y-60342105D01*
X98086319Y-60281869D01*
X98147642Y-60248384D01*
X98217334Y-60253368D01*
X98273267Y-60295240D01*
X98297684Y-60360704D01*
X98298000Y-60369550D01*
X98298000Y-69218000D01*
X98278315Y-69285039D01*
X98225511Y-69330794D01*
X98174000Y-69342000D01*
X54226000Y-69342000D01*
X54158961Y-69322315D01*
X54113206Y-69269511D01*
X54102000Y-69218000D01*
X54102000Y-65782000D01*
X62410001Y-65782000D01*
X62410001Y-65863582D01*
X62416408Y-65934102D01*
X62416409Y-65934107D01*
X62466981Y-66096396D01*
X62554927Y-66241877D01*
X62675122Y-66362072D01*
X62820604Y-66450019D01*
X62820603Y-66450019D01*
X62982894Y-66500590D01*
X62982893Y-66500590D01*
X63053408Y-66506998D01*
X63053426Y-66506999D01*
X63059999Y-66506998D01*
X63060000Y-66506998D01*
X63060000Y-65782000D01*
X62410001Y-65782000D01*
X54102000Y-65782000D01*
X54102000Y-64339616D01*
X59742500Y-64339616D01*
X59748914Y-64410196D01*
X59768989Y-64474620D01*
X59798461Y-64569204D01*
X59803395Y-64593125D01*
X59805406Y-64612257D01*
X59863899Y-64792279D01*
X59863902Y-64792286D01*
X59958548Y-64956218D01*
X60060643Y-65069606D01*
X60085210Y-65096890D01*
X60238346Y-65208150D01*
X60238351Y-65208153D01*
X60411273Y-65285144D01*
X60411278Y-65285146D01*
X60596435Y-65324502D01*
X60596436Y-65324502D01*
X60785725Y-65324502D01*
X60785727Y-65324502D01*
X60970884Y-65285146D01*
X60977950Y-65282000D01*
X62410000Y-65282000D01*
X63060000Y-65282000D01*
X63060000Y-64638000D01*
X63079685Y-64570961D01*
X63132489Y-64525206D01*
X63141714Y-64523198D01*
X63154215Y-64514000D01*
X63186591Y-64410101D01*
X63193000Y-64339572D01*
X63193000Y-64258000D01*
X62543000Y-64258000D01*
X62543000Y-64902000D01*
X62523315Y-64969039D01*
X62470511Y-65014794D01*
X62461285Y-65016801D01*
X62448784Y-65025999D01*
X62416408Y-65129898D01*
X62410000Y-65200427D01*
X62410000Y-65282000D01*
X60977950Y-65282000D01*
X61143811Y-65208153D01*
X61296952Y-65096890D01*
X61423614Y-64956218D01*
X61472199Y-64872065D01*
X61522765Y-64823851D01*
X61591372Y-64810627D01*
X61651451Y-64834616D01*
X61651707Y-64834194D01*
X61654259Y-64835737D01*
X61656060Y-64836456D01*
X61658124Y-64838073D01*
X61803604Y-64926019D01*
X61803603Y-64926019D01*
X61965894Y-64976590D01*
X61965893Y-64976590D01*
X62036408Y-64982998D01*
X62036426Y-64982999D01*
X62042999Y-64982998D01*
X62043000Y-64982998D01*
X62043000Y-63033000D01*
X62543000Y-63033000D01*
X62543000Y-63758000D01*
X63192999Y-63758000D01*
X63192999Y-63676417D01*
X63186591Y-63605897D01*
X63186590Y-63605892D01*
X63136018Y-63443603D01*
X63048072Y-63298122D01*
X62927877Y-63177927D01*
X62782395Y-63089980D01*
X62782396Y-63089980D01*
X62620105Y-63039409D01*
X62620106Y-63039409D01*
X62549572Y-63033000D01*
X62543000Y-63033000D01*
X62043000Y-63033000D01*
X62042999Y-63032999D01*
X62036436Y-63033000D01*
X62036417Y-63033001D01*
X61965897Y-63039408D01*
X61965892Y-63039409D01*
X61803603Y-63089981D01*
X61658122Y-63177927D01*
X61658121Y-63177928D01*
X61556035Y-63280015D01*
X61494712Y-63313500D01*
X61425020Y-63308516D01*
X61380673Y-63280015D01*
X61278188Y-63177530D01*
X61132606Y-63089522D01*
X61058724Y-63066500D01*
X60970196Y-63038914D01*
X60970194Y-63038913D01*
X60970192Y-63038913D01*
X60920778Y-63034423D01*
X60899616Y-63032500D01*
X60386384Y-63032500D01*
X60367145Y-63034248D01*
X60315807Y-63038913D01*
X60153393Y-63089522D01*
X60007811Y-63177530D01*
X59887530Y-63297811D01*
X59799522Y-63443393D01*
X59748913Y-63605807D01*
X59744592Y-63653360D01*
X59742500Y-63676384D01*
X59742500Y-64339616D01*
X54102000Y-64339616D01*
X54102000Y-61985000D01*
X59604001Y-61985000D01*
X59604001Y-62008322D01*
X59614144Y-62107607D01*
X59667452Y-62268481D01*
X59667457Y-62268492D01*
X59756424Y-62412728D01*
X59756427Y-62412732D01*
X59876267Y-62532572D01*
X59876271Y-62532575D01*
X60020507Y-62621542D01*
X60020518Y-62621547D01*
X60181393Y-62674855D01*
X60280683Y-62684999D01*
X60829000Y-62684999D01*
X60877308Y-62684999D01*
X60877322Y-62684998D01*
X60976607Y-62674855D01*
X61137481Y-62621547D01*
X61137488Y-62621544D01*
X61263295Y-62543944D01*
X61330687Y-62525503D01*
X61397351Y-62546425D01*
X61404864Y-62551870D01*
X61405121Y-62552071D01*
X61550604Y-62640019D01*
X61550603Y-62640019D01*
X61712894Y-62690590D01*
X61712893Y-62690590D01*
X61783408Y-62696998D01*
X61783426Y-62696999D01*
X61789999Y-62696998D01*
X61790000Y-62696998D01*
X61790000Y-61972000D01*
X61577614Y-61972000D01*
X61558996Y-61982166D01*
X61532638Y-61985000D01*
X60829000Y-61985000D01*
X60829000Y-62684999D01*
X60280683Y-62684999D01*
X60328999Y-62684998D01*
X60329000Y-62684998D01*
X60329000Y-61985000D01*
X59604001Y-61985000D01*
X54102000Y-61985000D01*
X54102000Y-36700000D01*
X54121685Y-36632961D01*
X54174489Y-36587206D01*
X54226000Y-36576000D01*
X98174000Y-36576000D01*
X98241039Y-36595685D01*
G37*
%TD.AperFunction*%
%TA.AperFunction,Conductor*%
G36*
X81347063Y-49465345D02*
G01*
X81379386Y-49488621D01*
X81900181Y-50009416D01*
X81933666Y-50070739D01*
X81936500Y-50097097D01*
X81936500Y-51044138D01*
X81916815Y-51111177D01*
X81911000Y-51118393D01*
X81911000Y-52222000D01*
X81891315Y-52289039D01*
X81838511Y-52334794D01*
X81787000Y-52346000D01*
X81535000Y-52346000D01*
X81467961Y-52326315D01*
X81422206Y-52273511D01*
X81411000Y-52222000D01*
X81411000Y-51120999D01*
X81387693Y-51121000D01*
X81387669Y-51121002D01*
X81336593Y-51126219D01*
X81267900Y-51113448D01*
X81217017Y-51065567D01*
X81200097Y-50997777D01*
X81203988Y-50976557D01*
X81202932Y-50976331D01*
X81204348Y-50969714D01*
X81207248Y-50941334D01*
X81214500Y-50870345D01*
X81214499Y-50273656D01*
X81213152Y-50260474D01*
X81204349Y-50174292D01*
X81204348Y-50174289D01*
X81198122Y-50155500D01*
X81151003Y-50013303D01*
X81150999Y-50013297D01*
X81150998Y-50013294D01*
X81065756Y-49875097D01*
X81047315Y-49807705D01*
X81065756Y-49744903D01*
X81150998Y-49606705D01*
X81150997Y-49606705D01*
X81151003Y-49606697D01*
X81173999Y-49537297D01*
X81213771Y-49479853D01*
X81278287Y-49453030D01*
X81347063Y-49465345D01*
G37*
%TD.AperFunction*%
%TA.AperFunction,Conductor*%
G36*
X84904540Y-43571185D02*
G01*
X84950295Y-43623989D01*
X84961501Y-43675500D01*
X84961501Y-43723876D01*
X84967908Y-43783483D01*
X85018202Y-43918328D01*
X85018203Y-43918330D01*
X85018204Y-43918331D01*
X85071855Y-43990000D01*
X85080606Y-44001689D01*
X85105023Y-44067153D01*
X85090172Y-44135426D01*
X85080606Y-44150311D01*
X85018203Y-44233669D01*
X85018202Y-44233671D01*
X84967908Y-44368517D01*
X84961501Y-44428116D01*
X84961500Y-44428135D01*
X84961500Y-46023870D01*
X84961501Y-46023876D01*
X84967908Y-46083483D01*
X85018202Y-46218328D01*
X85018206Y-46218335D01*
X85104452Y-46333544D01*
X85104453Y-46333544D01*
X85104454Y-46333546D01*
X85117751Y-46343500D01*
X85186858Y-46395234D01*
X85228728Y-46451168D01*
X85233712Y-46520860D01*
X85200226Y-46582182D01*
X85138903Y-46615667D01*
X85112546Y-46618500D01*
X84638099Y-46618500D01*
X84571060Y-46598815D01*
X84545949Y-46577472D01*
X84540548Y-46571474D01*
X84425871Y-46444112D01*
X84425870Y-46444111D01*
X84272734Y-46332851D01*
X84272729Y-46332848D01*
X84099807Y-46255857D01*
X84099802Y-46255855D01*
X83954001Y-46224865D01*
X83914646Y-46216500D01*
X83725354Y-46216500D01*
X83692897Y-46223398D01*
X83540197Y-46255855D01*
X83540192Y-46255857D01*
X83367270Y-46332848D01*
X83367265Y-46332851D01*
X83214129Y-46444111D01*
X83087466Y-46584785D01*
X82992821Y-46748715D01*
X82992818Y-46748722D01*
X82976811Y-46797988D01*
X82934326Y-46928744D01*
X82914540Y-47117000D01*
X82934326Y-47305256D01*
X82934327Y-47305259D01*
X82992818Y-47485277D01*
X82992821Y-47485284D01*
X83087467Y-47649216D01*
X83177938Y-47749694D01*
X83214129Y-47789888D01*
X83367265Y-47901148D01*
X83367270Y-47901151D01*
X83540192Y-47978142D01*
X83540197Y-47978144D01*
X83725354Y-48017500D01*
X83725355Y-48017500D01*
X83914644Y-48017500D01*
X83914646Y-48017500D01*
X84099803Y-47978144D01*
X84272730Y-47901151D01*
X84283698Y-47893181D01*
X84349504Y-47869702D01*
X84356584Y-47869500D01*
X90228252Y-47869500D01*
X90295291Y-47889185D01*
X90320400Y-47910526D01*
X90326127Y-47916886D01*
X90329735Y-47920135D01*
X90366383Y-47979621D01*
X90365052Y-48049478D01*
X90334443Y-48099965D01*
X89566228Y-48868181D01*
X89504905Y-48901666D01*
X89478547Y-48904500D01*
X89222748Y-48904500D01*
X89155709Y-48884815D01*
X89130600Y-48863474D01*
X89124873Y-48857114D01*
X89124869Y-48857110D01*
X88971734Y-48745851D01*
X88971729Y-48745848D01*
X88798807Y-48668857D01*
X88798802Y-48668855D01*
X88646075Y-48636393D01*
X88613646Y-48629500D01*
X88424354Y-48629500D01*
X88391925Y-48636393D01*
X88239197Y-48668855D01*
X88239192Y-48668857D01*
X88066270Y-48745848D01*
X88066265Y-48745851D01*
X87913129Y-48857111D01*
X87786466Y-48997785D01*
X87691821Y-49161715D01*
X87691818Y-49161722D01*
X87637142Y-49330000D01*
X87633326Y-49341744D01*
X87613540Y-49530000D01*
X87633326Y-49718256D01*
X87633327Y-49718259D01*
X87691818Y-49898277D01*
X87691821Y-49898284D01*
X87786467Y-50062216D01*
X87808482Y-50086666D01*
X87815561Y-50094528D01*
X87845791Y-50157519D01*
X87837166Y-50226854D01*
X87792424Y-50280520D01*
X87725772Y-50301478D01*
X87723411Y-50301500D01*
X86555748Y-50301500D01*
X86488709Y-50281815D01*
X86463600Y-50260474D01*
X86457873Y-50254114D01*
X86457869Y-50254110D01*
X86304734Y-50142851D01*
X86304729Y-50142848D01*
X86131807Y-50065857D01*
X86131802Y-50065855D01*
X85986001Y-50034865D01*
X85946646Y-50026500D01*
X85757354Y-50026500D01*
X85724897Y-50033398D01*
X85572197Y-50065855D01*
X85572192Y-50065857D01*
X85399270Y-50142848D01*
X85399265Y-50142851D01*
X85246129Y-50254111D01*
X85119466Y-50394785D01*
X85024821Y-50558715D01*
X85024818Y-50558722D01*
X84975377Y-50710888D01*
X84966326Y-50738744D01*
X84946540Y-50927000D01*
X84966326Y-51115256D01*
X84966327Y-51115259D01*
X85024818Y-51295277D01*
X85024821Y-51295284D01*
X85082373Y-51394968D01*
X85091341Y-51410500D01*
X85107814Y-51478400D01*
X85084961Y-51544427D01*
X85030040Y-51587618D01*
X84983954Y-51596500D01*
X84596419Y-51596500D01*
X84529380Y-51576815D01*
X84483625Y-51524011D01*
X84473681Y-51454853D01*
X84489032Y-51410500D01*
X84492724Y-51404105D01*
X84519179Y-51358284D01*
X84577674Y-51178256D01*
X84597460Y-50990000D01*
X84577674Y-50801744D01*
X84519179Y-50621716D01*
X84424533Y-50457784D01*
X84349350Y-50374284D01*
X84319120Y-50311292D01*
X84317500Y-50291312D01*
X84317500Y-49738742D01*
X84319224Y-49723122D01*
X84318939Y-49723095D01*
X84319673Y-49715333D01*
X84317561Y-49648112D01*
X84317500Y-49644218D01*
X84317500Y-49616656D01*
X84317500Y-49616650D01*
X84316996Y-49612668D01*
X84316081Y-49601029D01*
X84315939Y-49596500D01*
X84314710Y-49557373D01*
X84309119Y-49538130D01*
X84305173Y-49519078D01*
X84302664Y-49499208D01*
X84286579Y-49458583D01*
X84282806Y-49447562D01*
X84270618Y-49405610D01*
X84270617Y-49405609D01*
X84270617Y-49405607D01*
X84270616Y-49405606D01*
X84260423Y-49388371D01*
X84251861Y-49370894D01*
X84244487Y-49352269D01*
X84228307Y-49330000D01*
X84218811Y-49316930D01*
X84212405Y-49307177D01*
X84193967Y-49276000D01*
X84190172Y-49269583D01*
X84190165Y-49269574D01*
X84176006Y-49255415D01*
X84163368Y-49240619D01*
X84151594Y-49224413D01*
X84124548Y-49202039D01*
X84117940Y-49196572D01*
X84109299Y-49188709D01*
X80458771Y-45538180D01*
X80425286Y-45476857D01*
X80430270Y-45407165D01*
X80472142Y-45351232D01*
X80537606Y-45326815D01*
X80546452Y-45326499D01*
X81209871Y-45326499D01*
X81209872Y-45326499D01*
X81269483Y-45320091D01*
X81404331Y-45269796D01*
X81519546Y-45183546D01*
X81605796Y-45068331D01*
X81656091Y-44933483D01*
X81662500Y-44873873D01*
X81662500Y-43675500D01*
X81682185Y-43608461D01*
X81734989Y-43562706D01*
X81786500Y-43551500D01*
X84837501Y-43551500D01*
X84904540Y-43571185D01*
G37*
%TD.AperFunction*%
%TA.AperFunction,Conductor*%
G36*
X91628669Y-50149644D02*
G01*
X91684403Y-50191781D01*
X91708508Y-50257361D01*
X91693331Y-50325562D01*
X91672464Y-50353299D01*
X90465584Y-51560181D01*
X90404261Y-51593666D01*
X90377903Y-51596500D01*
X90183249Y-51596500D01*
X90116210Y-51576815D01*
X90070455Y-51524011D01*
X90060511Y-51454853D01*
X90088848Y-51392803D01*
X90088612Y-51392608D01*
X90089338Y-51391730D01*
X90089536Y-51391297D01*
X90090692Y-51390093D01*
X90093585Y-51386595D01*
X90093587Y-51386594D01*
X90121438Y-51352926D01*
X90129279Y-51344309D01*
X91260771Y-50212819D01*
X91322094Y-50179334D01*
X91348452Y-50176500D01*
X91407644Y-50176500D01*
X91407646Y-50176500D01*
X91559003Y-50144328D01*
X91628669Y-50149644D01*
G37*
%TD.AperFunction*%
%TA.AperFunction,Conductor*%
G36*
X75846605Y-49271735D02*
G01*
X75894345Y-49303752D01*
X75918608Y-49330000D01*
X76184089Y-49330000D01*
X76247210Y-49347268D01*
X76305506Y-49381744D01*
X76328316Y-49388371D01*
X76463330Y-49427597D01*
X76463333Y-49427597D01*
X76463335Y-49427598D01*
X76500210Y-49430500D01*
X76500218Y-49430500D01*
X77204404Y-49430500D01*
X77271443Y-49450185D01*
X77317198Y-49502989D01*
X77328404Y-49554500D01*
X77328404Y-49605500D01*
X77308719Y-49672539D01*
X77255915Y-49718294D01*
X77204404Y-49729500D01*
X76500202Y-49729500D01*
X76463336Y-49732401D01*
X76463330Y-49732402D01*
X76305510Y-49778254D01*
X76305507Y-49778255D01*
X76247210Y-49812732D01*
X76184089Y-49830000D01*
X75918608Y-49830000D01*
X75894344Y-49856248D01*
X75834383Y-49892114D01*
X75764549Y-49889869D01*
X75724891Y-49865468D01*
X75723935Y-49866702D01*
X75717766Y-49861917D01*
X75576300Y-49778255D01*
X75576297Y-49778254D01*
X75418477Y-49732402D01*
X75418471Y-49732401D01*
X75381605Y-49729500D01*
X75381598Y-49729500D01*
X74225210Y-49729500D01*
X74225202Y-49729500D01*
X74188336Y-49732401D01*
X74047985Y-49773177D01*
X73978116Y-49772977D01*
X73919446Y-49735034D01*
X73890603Y-49671396D01*
X73900744Y-49602266D01*
X73907854Y-49589001D01*
X73936543Y-49542490D01*
X73936548Y-49542479D01*
X73955806Y-49484362D01*
X73995578Y-49426917D01*
X74060093Y-49400093D01*
X74108104Y-49404288D01*
X74188335Y-49427598D01*
X74225210Y-49430500D01*
X74225218Y-49430500D01*
X75381590Y-49430500D01*
X75381598Y-49430500D01*
X75418473Y-49427598D01*
X75418475Y-49427597D01*
X75418477Y-49427597D01*
X75494155Y-49405610D01*
X75576302Y-49381744D01*
X75717769Y-49298081D01*
X75717774Y-49298075D01*
X75723935Y-49293298D01*
X75725243Y-49294984D01*
X75776913Y-49266761D01*
X75846605Y-49271735D01*
G37*
%TD.AperFunction*%
%TA.AperFunction,Conductor*%
G36*
X92148603Y-43698185D02*
G01*
X92194358Y-43750989D01*
X92204884Y-43815458D01*
X92186540Y-43990000D01*
X92206326Y-44178256D01*
X92206327Y-44178259D01*
X92264818Y-44358277D01*
X92264821Y-44358284D01*
X92359467Y-44522216D01*
X92402772Y-44570310D01*
X92434650Y-44605715D01*
X92464880Y-44668706D01*
X92466500Y-44688687D01*
X92466500Y-45916546D01*
X92446815Y-45983585D01*
X92430181Y-46004227D01*
X91784452Y-46649955D01*
X91723129Y-46683440D01*
X91653437Y-46678456D01*
X91604622Y-46645247D01*
X91537871Y-46571112D01*
X91537870Y-46571111D01*
X91384734Y-46459851D01*
X91384729Y-46459848D01*
X91211807Y-46382857D01*
X91211802Y-46382855D01*
X91049355Y-46348327D01*
X91026646Y-46343500D01*
X90837354Y-46343500D01*
X90814645Y-46348327D01*
X90652197Y-46382855D01*
X90652192Y-46382857D01*
X90479270Y-46459848D01*
X90479265Y-46459851D01*
X90326130Y-46571110D01*
X90326126Y-46571114D01*
X90320400Y-46577474D01*
X90260913Y-46614121D01*
X90228252Y-46618500D01*
X87811454Y-46618500D01*
X87744415Y-46598815D01*
X87698660Y-46546011D01*
X87688716Y-46476853D01*
X87717741Y-46413297D01*
X87737142Y-46395234D01*
X87776468Y-46365794D01*
X87819546Y-46333546D01*
X87905796Y-46218331D01*
X87956091Y-46083483D01*
X87962500Y-46023873D01*
X87962499Y-44661452D01*
X87982184Y-44594414D01*
X87998818Y-44573772D01*
X88857772Y-43714819D01*
X88919095Y-43681334D01*
X88945453Y-43678500D01*
X92081564Y-43678500D01*
X92148603Y-43698185D01*
G37*
%TD.AperFunction*%
%TD*%
M02*
