%TF.GenerationSoftware,KiCad,Pcbnew,7.0.10*%
%TF.CreationDate,2026-06-17T08:51:38+03:00*%
%TF.ProjectId,ADC_MCP_Module,4144435f-4d43-4505-9f4d-6f64756c652e,rev?*%
%TF.SameCoordinates,Original*%
%TF.FileFunction,Soldermask,Bot*%
%TF.FilePolarity,Negative*%
%FSLAX46Y46*%
G04 Gerber Fmt 4.6, Leading zero omitted, Abs format (unit mm)*
G04 Created by KiCad (PCBNEW 7.0.10) date 2026-06-17 08:51:38*
%MOMM*%
%LPD*%
G01*
G04 APERTURE LIST*
G04 Aperture macros list*
%AMRoundRect*
0 Rectangle with rounded corners*
0 $1 Rounding radius*
0 $2 $3 $4 $5 $6 $7 $8 $9 X,Y pos of 4 corners*
0 Add a 4 corners polygon primitive as box body*
4,1,4,$2,$3,$4,$5,$6,$7,$8,$9,$2,$3,0*
0 Add four circle primitives for the rounded corners*
1,1,$1+$1,$2,$3*
1,1,$1+$1,$4,$5*
1,1,$1+$1,$6,$7*
1,1,$1+$1,$8,$9*
0 Add four rect primitives between the rounded corners*
20,1,$1+$1,$2,$3,$4,$5,0*
20,1,$1+$1,$4,$5,$6,$7,0*
20,1,$1+$1,$6,$7,$8,$9,0*
20,1,$1+$1,$8,$9,$2,$3,0*%
G04 Aperture macros list end*
%ADD10RoundRect,0.135000X-0.185000X0.135000X-0.185000X-0.135000X0.185000X-0.135000X0.185000X0.135000X0*%
%ADD11RoundRect,0.135000X0.135000X0.185000X-0.135000X0.185000X-0.135000X-0.185000X0.135000X-0.185000X0*%
%ADD12RoundRect,0.135000X0.185000X-0.135000X0.185000X0.135000X-0.185000X0.135000X-0.185000X-0.135000X0*%
%ADD13RoundRect,0.100000X-0.637500X-0.100000X0.637500X-0.100000X0.637500X0.100000X-0.637500X0.100000X0*%
%ADD14RoundRect,0.050000X-0.450000X-0.050000X0.450000X-0.050000X0.450000X0.050000X-0.450000X0.050000X0*%
%ADD15RoundRect,0.050000X-0.350000X-0.050000X0.350000X-0.050000X0.350000X0.050000X-0.350000X0.050000X0*%
%ADD16RoundRect,0.050000X-0.050000X0.350000X-0.050000X-0.350000X0.050000X-0.350000X0.050000X0.350000X0*%
%ADD17RoundRect,0.381000X0.762000X0.381000X-0.762000X0.381000X-0.762000X-0.381000X0.762000X-0.381000X0*%
%ADD18RoundRect,0.200000X-0.275000X0.200000X-0.275000X-0.200000X0.275000X-0.200000X0.275000X0.200000X0*%
%ADD19RoundRect,0.200000X0.200000X0.275000X-0.200000X0.275000X-0.200000X-0.275000X0.200000X-0.275000X0*%
%ADD20RoundRect,0.200000X-0.200000X-0.275000X0.200000X-0.275000X0.200000X0.275000X-0.200000X0.275000X0*%
%ADD21RoundRect,0.150000X-0.150000X0.587500X-0.150000X-0.587500X0.150000X-0.587500X0.150000X0.587500X0*%
%ADD22RoundRect,0.250000X0.250000X1.100000X-0.250000X1.100000X-0.250000X-1.100000X0.250000X-1.100000X0*%
%ADD23RoundRect,0.250000X-0.250000X0.250000X-0.250000X-0.250000X0.250000X-0.250000X0.250000X0.250000X0*%
%ADD24RoundRect,0.250000X0.412500X0.925000X-0.412500X0.925000X-0.412500X-0.925000X0.412500X-0.925000X0*%
G04 APERTURE END LIST*
D10*
%TO.C,C10*%
X98562000Y-88605000D03*
X98562000Y-89625000D03*
%TD*%
D11*
%TO.C,C8*%
X98681000Y-90764000D03*
X97661000Y-90764000D03*
%TD*%
D12*
%TO.C,C6*%
X97546000Y-86321000D03*
X97546000Y-85301000D03*
%TD*%
D10*
%TO.C,C5*%
X97546000Y-88603000D03*
X97546000Y-89623000D03*
%TD*%
D12*
%TO.C,C3*%
X96012000Y-90809000D03*
X96012000Y-89789000D03*
%TD*%
D13*
%TO.C,U2*%
X106182000Y-90006000D03*
X106182000Y-89356000D03*
X106182000Y-88706000D03*
X106182000Y-88056000D03*
X106182000Y-87406000D03*
X106182000Y-86756000D03*
X106182000Y-86106000D03*
X106182000Y-85456000D03*
X106182000Y-84806000D03*
X106182000Y-84156000D03*
X100457000Y-84156000D03*
X100457000Y-84806000D03*
X100457000Y-85456000D03*
X100457000Y-86106000D03*
X100457000Y-86756000D03*
X100457000Y-87406000D03*
X100457000Y-88056000D03*
X100457000Y-88706000D03*
X100457000Y-89356000D03*
X100457000Y-90006000D03*
%TD*%
D14*
%TO.C,U1*%
X96187000Y-86608000D03*
D15*
X96287000Y-87008000D03*
X96287000Y-87408000D03*
X96287000Y-87808000D03*
D16*
X95987000Y-88508000D03*
X95587000Y-88508000D03*
X95187000Y-88508000D03*
X94787000Y-88508000D03*
D15*
X94487000Y-87808000D03*
X94487000Y-87408000D03*
X94487000Y-87008000D03*
X94487000Y-86608000D03*
D16*
X94787000Y-85908000D03*
X95187000Y-85908000D03*
X95587000Y-85908000D03*
X95987000Y-85908000D03*
%TD*%
D17*
%TO.C,SW1*%
X107632000Y-78232000D03*
X99632000Y-78232000D03*
%TD*%
D18*
%TO.C,R7*%
X96774000Y-79185000D03*
X96774000Y-80835000D03*
%TD*%
D19*
%TO.C,R4*%
X98234000Y-76708000D03*
X96584000Y-76708000D03*
%TD*%
D20*
%TO.C,R3*%
X99832000Y-82763000D03*
X101482000Y-82763000D03*
%TD*%
D19*
%TO.C,R2*%
X98435000Y-82763000D03*
X96785000Y-82763000D03*
%TD*%
%TO.C,R1*%
X95694000Y-84328000D03*
X94044000Y-84328000D03*
%TD*%
D21*
%TO.C,Q1*%
X92715000Y-76581000D03*
X94615000Y-76581000D03*
X93665000Y-78456000D03*
%TD*%
D22*
%TO.C,J3*%
X106000000Y-100000000D03*
X104000000Y-100000000D03*
X102000000Y-100000000D03*
X100000000Y-100000000D03*
X98000000Y-100000000D03*
X96000000Y-100000000D03*
%TD*%
D23*
%TO.C,J1*%
X92858400Y-81547600D03*
X100358400Y-81547600D03*
X107858400Y-81547600D03*
X92858400Y-86547600D03*
X107858400Y-86547600D03*
X92858400Y-91547600D03*
X100358400Y-91547600D03*
X107858400Y-91547600D03*
%TD*%
D24*
%TO.C,C7*%
X96647000Y-94996000D03*
X93572000Y-94996000D03*
%TD*%
D18*
%TO.C,C4*%
X95250000Y-79185000D03*
X95250000Y-80835000D03*
%TD*%
M02*
