M48
; DRILL file {KiCad 7.0.10} date Wed Jun 17 08:52:35 2026
; FORMAT={-:-/ absolute / metric / decimal}
; #@! TF.CreationDate,2026-06-17T08:52:35+03:00
; #@! TF.GenerationSoftware,Kicad,Pcbnew,7.0.10
; #@! TF.FileFunction,Plated,1,2,PTH
FMAT,2
METRIC
; #@! TA.AperFunction,Plated,PTH,ViaDrill
T1C0.400
%
G90
G05
T1
X92.715Y-76.581
X93.345Y-95.123
X94.361Y-76.708
X94.488Y-90.17
X94.615Y-91.694
X94.869Y-82.042
X94.928Y-80.958
X94.995Y-94.361
X95.584Y-76.745
X96.317Y-92.534
X96.842Y-94.801
X97.028Y-86.308
X97.161Y-78.192
X97.536Y-85.282
X97.536Y-88.603
X97.546Y-89.875
X97.904Y-81.755
X97.917Y-92.71
X98.562Y-86.065
X98.846Y-87.024
X98.87Y-90.684
X99.07Y-83.017
X100.358Y-91.548
X101.473Y-95.631
X101.727Y-77.851
X101.727Y-79.756
X101.748Y-89.356
X101.981Y-97.028
X102.997Y-95.504
X103.759Y-81.915
X107.442Y-89.367
X107.786Y-90.324
X107.823Y-81.661
X107.858Y-91.548
X107.95Y-88.201
X108.04Y-85.153
X108.204Y-80.391
M30
